<svg xmlns="http://www.w3.org/2000/svg"><defs><filter id="a"><feGaussianBlur/></filter></defs><symbol id="icon-add-cal" viewBox="0 0 18 20"><path d="M16 18V6H2v12h14zM13 0h2v2h1a2 2 0 0 1 2 2v14a2 2 0 0 1-2 2H2a2 2 0 0 1-2-2V4c0-1.11.89-2 2-2h1V0h2v2h8V0zM8 8h2v3h3v2h-3v3H8v-3H5v-2h3V8z"/></symbol><symbol id="pic-balloon" viewBox="0 0 48 60"><g fill="none" fill-rule="evenodd"><path d="M23.636 50.562C46.12 37.42 46.118 29.72 46.514 27.262c.287-1.787 2.674-12.43-3.28-19.082-5.093-5.69-8.05-5.366-8.05-5.366s-1.803.893-3.176-.818C30.76.441 29.071.113 27.837 1.116c-1.015.824-2.605-.429-3.833-.538-5.22-.465-4.998.409-6.484.36-4.224-.136-5.424 2.167-6.484 2.621C8.288 4.737 1.146 8.28.552 17.423.47 18.69-.746 23.583.906 27.426c2.651 6.167 4.786 8.96 7.644 13.23 2.858 4.27 6.956 9.461 6.956 9.461s.467.5.483.718c.037.496 1.455.908 3.21 1.142.942.125 1.609.194 2.434-.18.642-.29 2.003-1.235 2.003-1.235z" fill="#2962FF"/><path d="M46.812 27.261c-.386-12.534-9.364-16.475-17.74-21.018-8.36-.94-14.492 1.888-19.08 6.26-3.392 3.233-6.516 7.99-6.56 13.417-.049 6.171 2.859 11.023 5.665 15.055C5.35 36.192.01 28.985.302 21c.153-4.162 2.794-8.554 5.069-10.733C6.83 8.87 9.238 7.604 11.483 6.541c5.063-2.4 11.221-2.004 17.142-.448C24.6 3.415 17.23 1.266 11.334 3.56c4.195-5.072 14.08-1.904 17.291 2.087-.766-2.364-1.997-4.263-4.323-5.068 3.408-1.713 5.223 1.623 5.069 4.92.578-2.377 4-5.434 6.112-2.684-2.267.715-4.116 1.847-5.814 3.13C33.72 3.58 41.946 3.76 43.532 8.18c-2.957-1.78-8.627-3.079-13.714-1.937 8.91 1.574 17.916 3.326 18.037 13.416.053 4.42-.728 5.433-1.043 7.602z" fill="#FFF"/><path d="M21.793 52.454c.06-.145-.368-.07.138-.657 8.66-5.418 20.323-11.216 19.216-25.58-.38-4.948-2.872-8.682-5.217-12.074-1.968-2.846-4.493-6.198-6.857-7.9 1.892 5.859 4.62 13.325 3.876 21.316-.423 4.542-2.592 9.148-4.472 12.97-.877 1.78-6.427 13.455-9.395 11.177 1.02-16.08.738-34.6 8.326-43.848.264-.321 1.044-.895 1.665-1.615-5.027 1.405-9.576 3.284-12.671 6.559-3.157 3.339-5.83 9.263-6.112 14.906-.257 5.155 1.187 8.864 2.385 12.97.97 3.32 3.981 10.157 4.073 10.731.083.518 4.797 1.641 5.045 1.045z" fill="#FFF"/><path d="M20.767 58.474c-.126.81-1.02 1.344-1.995 1.192l-2.062-.32c-.977-.152-1.666-.932-1.54-1.743l.418-2.69c.126-.81 1.02-1.344 1.996-1.192l2.062.32c.976.152 1.666.932 1.54 1.742l-.419 2.69z" fill="#2962FF"/><ellipse fill="#FFF" transform="rotate(9.312 18.381 55.334)" cx="18.381" cy="55.334" rx="2.296" ry="1.043"/><path d="M21.931 51.797s.489 1.675-3.169 1.253c-3.23-.373-2.475-2.215-2.475-2.215 1.89.998 3.42.975 5.644.962z" fill="#2962FF"/></g></symbol><symbol id="icon-balloon" viewBox="0 0 47 60"><path d="M16.406 50.897a8.134 8.134 0 0 0-.016-.046c-.272-.141-.433-.295-.445-.457-.016-.218-.483-.718-.483-.718s-4.098-5.192-6.956-9.462c-1.387-2.07-2.603-3.794-3.79-5.724 1.427 2.278 2.986 4.319 4.337 6.044C6.246 36.502 3.34 31.65 3.39 25.478c.043-5.427 3.167-10.183 6.559-13.416 4.588-4.372 10.72-7.2 19.08-6.26 8.08 4.383 16.721 8.205 17.667 19.722-.098.592-.184 1.037-.225 1.296-.34 2.111-.387 8.091-14.646 18.066-3.254 2.562-6.914 4.642-10.153 6.669-.086.099-.144.18-.184.245l.444-.003s.489 1.675-3.169 1.253c-3.23-.373-2.475-2.215-2.475-2.215l.12.062zm3.88.738c-.348 0-.712-.044-1.13-.1a20.453 20.453 0 0 1-.293-.04c.43.307.91.33 1.424.14zm25.91-38.548c-.613-1.895-1.565-3.738-3.006-5.348a35.222 35.222 0 0 0-.305-.337c-3.081-1.6-8.351-2.669-13.111-1.6 6.683 1.18 13.42 2.46 16.421 7.285zM39.923 4.61c-2.346-1.854-3.9-2.18-4.503-2.232-2.258.715-4.103 1.845-5.796 3.125 2.655-1.55 7.102-2.006 10.299-.893zm-7.875-2.953a3.568 3.568 0 0 1-.085-.102C30.775.073 29.186-.295 27.971.54c.967 1.012 1.437 2.77 1.356 4.515.308-1.268 1.426-2.73 2.722-3.4zM24.653.287a3.344 3.344 0 0 0-.693-.15c-4.91-.437-5.005.31-6.236.36 4.211.029 8.845 2.207 10.857 4.708-.721-2.227-1.856-4.04-3.928-4.917zm-7.175.21h-.002C13.252.36 12.052 2.663 10.99 3.118 8.244 4.296 1.101 7.838.508 16.981c-.082 1.267-1.298 6.16.354 10.003a60.68 60.68 0 0 0 2.381 4.96C1.423 28.495.11 24.627.258 20.558c.153-4.162 2.794-8.554 5.069-10.733 1.459-1.398 3.867-2.663 6.111-3.727 5.064-2.4 11.222-2.004 17.143-.447C24.556 2.973 17.185.825 11.29 3.118c1.515-1.832 3.772-2.589 6.189-2.62zm14.346 44.389c-2.34 1.637-5.063 3.382-8.233 5.235 0 0-1.36.944-2.002 1.235a3.031 3.031 0 0 1-1.302.279c3.044-1.135 7.182-9.832 7.93-11.35 1.88-3.82 4.048-8.427 4.471-12.968.745-7.991-1.984-15.458-3.875-21.317 2.364 1.702 4.889 5.054 6.857 7.9 2.345 3.393 4.836 7.127 5.217 12.075.693 8.99-3.617 14.625-9.063 18.911zm-12.961 6.608c-1.056-.156-1.961-.377-2.473-.643-.537-1.5-3.096-7.404-3.975-10.416-1.198-4.106-2.642-7.815-2.385-12.97.281-5.642 2.955-11.567 6.112-14.906C19.237 9.285 23.786 7.405 28.812 6c-.62.72-1.4 1.294-1.664 1.615-7.588 9.25-7.306 27.769-8.326 43.848l.04.031zm1.904 6.98c-.126.81-1.02 1.344-1.995 1.192l-2.062-.32c-.977-.152-1.666-.932-1.54-1.743l.418-2.69c.126-.81 1.02-1.344 1.996-1.192l2.062.32c.976.152 1.666.932 1.54 1.742l-.419 2.69zm-2.554-2.11c1.25.205 2.34-.09 2.434-.658.093-.569-.845-1.196-2.097-1.401-1.251-.205-2.341.09-2.434.658-.093.569.845 1.196 2.097 1.401z"/></symbol><symbol id="pic-map"><path fill="#ff5656" d="M-1-1h897v472H-1z"/><g><g fill="none" fill-rule="evenodd"><path fill="#03152C" d="M-2 0h923v488H-2z"/><text font-weight="bold" fill="#f40a54" stroke-width="0" x="59" y="239" font-size="18" font-family="&apos;Times New Roman&apos;, Times, serif" filter="url(#a)">&#x443;&#x43B;. &#x414;&#x43E;&#x431;&#x440;&#x43E;&#x434;&#x435;&#x43B;&#x43E;&#x432;&#x430;, &#x434;.7</text><path fill="#F5F5F5" d="M-42.488 205.454l498.316-26.116.314 5.992-498.316 26.115z"/><path fill="#616C7B" d="M850-30h6v435h-6z"/><path stroke="null" fill="#616C7B" d="M455.078 111.77l396.694-13.853.21 5.997-396.694 13.853z"/><path d="M-40 360l805 33.922s121 11.696 137 1.95C918 386.124 963 314 963 314l2 33.138S928 416.304 905 428c-23 11.696-140-3-140-3l-805-30v-35z" fill="#1047DE"/><circle fill="#F9F9F9" cx="484.5" cy="180.5" r="12.5"/><path d="M489.015 175.435a5.927 5.927 0 0 1 1.854 4.288c0 2.788-1.972 5.147-4.65 5.863l.488.59h4.027c1.407-1.45 2.266-3.395 2.266-5.518 0-3.522-2.359-6.53-5.644-7.658l-2.856 9.098-2.856-9.098c-3.285 1.129-5.644 4.136-5.644 7.658 0 2.123.86 4.069 2.266 5.518h4.019l.497-.59h-.009c-2.679-.716-4.65-3.075-4.65-5.863 0-1.668.708-3.185 1.853-4.288.11-.127.329-.194.54-.16.21.042.412.185.513.497l3.151 10.033c.101.008.21.008.32.008.11 0 .21 0 .32-.008l3.151-10.042c.084-.253.261-.421.472-.48a.657.657 0 0 1 .572.152z" fill="#2962FF"/><circle fill="#F40A54" cx="100.5" cy="189" r="4.5"/><path fill="#FFEE03" d="M431.977-117.26l18.14-.633L472.461 522l-18.14.633z"/><path d="M136 134.902l-9.591-9.566v-22.847h-8.223v14.646L99 98l-37 36.902 8.808-.21V172H126.8v-37.098h9.2zm-37 31.762H80.729v-21.868H99v21.868zm17.751-9.372h-12.006v-12.628h12.006v12.628z" fill="#f40a54"/></g></g></symbol><symbol id="icon-baloon" viewBox="0 0 48 60"><g><path d="M21.633 51.797c.642-.29 2.003-1.235 2.003-1.235C46.12 37.42 46.118 29.72 46.514 27.262c.287-1.787 2.674-12.43-3.28-19.082-5.093-5.69-8.05-5.366-8.05-5.366s-1.803.893-3.176-.818C30.76.441 29.071.113 27.837 1.116c-1.015.824-2.605-.429-3.833-.538-5.22-.465-4.998.409-6.484.36-4.224-.136-5.424 2.167-6.484 2.621C8.288 4.737 1.146 8.28.552 17.423.47 18.69-.746 23.583.906 27.426c2.651 6.167 4.786 8.96 7.644 13.23 2.858 4.27 6.956 9.461 6.956 9.461s.467.5.483.718c.037.496 1.455.908 3.21 1.142.942.125 1.609.194 2.434-.18z"/><path d="M46.812 27.261c-.386-12.534-9.364-16.475-17.74-21.018-8.36-.94-14.492 1.888-19.08 6.26-3.392 3.233-6.516 7.99-6.56 13.417-.049 6.171 2.859 11.023 5.665 15.055C5.35 36.192.01 28.985.302 21c.153-4.162 2.794-8.554 5.069-10.733C6.83 8.87 9.238 7.604 11.483 6.541c5.063-2.4 11.221-2.004 17.142-.448C24.6 3.415 17.23 1.266 11.334 3.56c4.195-5.072 14.08-1.904 17.291 2.087-.766-2.364-1.997-4.263-4.323-5.068 3.408-1.713 5.223 1.623 5.069 4.92.578-2.377 4-5.434 6.112-2.684-2.267.715-4.116 1.847-5.814 3.13C33.72 3.58 41.946 3.76 43.532 8.18c-2.957-1.78-8.627-3.079-13.714-1.937 8.91 1.574 17.916 3.326 18.037 13.416.053 4.42-.728 5.433-1.043 7.602z"/><path d="M21.793 52.454c.06-.145-.368-.07.138-.657 8.66-5.418 20.323-11.216 19.216-25.58-.38-4.948-2.872-8.682-5.217-12.074-1.968-2.846-4.493-6.198-6.857-7.9 1.892 5.859 4.62 13.325 3.876 21.316-.423 4.542-2.592 9.148-4.472 12.97-.877 1.78-6.427 13.455-9.395 11.177 1.02-16.08.738-34.6 8.326-43.848.264-.321 1.044-.895 1.665-1.615-5.027 1.405-9.576 3.284-12.671 6.559-3.157 3.339-5.83 9.263-6.112 14.906-.257 5.155 1.187 8.864 2.385 12.97.97 3.32 3.981 10.157 4.073 10.731.083.518 4.797 1.641 5.045 1.045z"/><path d="M20.767 58.474c-.126.81-1.02 1.344-1.995 1.192l-2.062-.32c-.977-.152-1.666-.932-1.54-1.743l.418-2.69c.126-.81 1.02-1.344 1.996-1.192l2.062.32c.976.152 1.666.932 1.54 1.742l-.419 2.69z"/><ellipse transform="rotate(9.312 18.381 55.334)" cx="18.381" cy="55.334" rx="2.296" ry="1.043"/><path d="M21.931 51.797s.489 1.675-3.169 1.253c-3.23-.373-2.475-2.215-2.475-2.215 1.89.998 3.42.975 5.644.962z"/></g></symbol><symbol id="pic-mapmobile" viewBox="0 0 500 448"><g fill="none" fill-rule="evenodd"><path fill="#03152C" d="M-23-22h923v488H-23z"/><path fill="#616C7B" d="M484 386h6v68h-6z"/><path fill="#F5F5F5" d="M-74 194.116L424.316 168l.314 5.992-498.316 26.116z"/><path fill="#616C7B" d="M421 50h6v331h-6z"/><path fill="#F5F5F5" d="M318 177h2v200h-2z"/><path fill="#616C7B" d="M425.019 90.086l405.753-14.169.209 5.997-405.753 14.169z"/><path fill="#1E57F2" d="M-44 70l42-3 14-32 19-1 26 21 255 5L639-85l87 1L331 99 45 96l-33 20-60-8z"/><path d="M-61 338l805 33.922s121 11.696 137 1.95C897 364.124 942 292 942 292l2 33.138S907 394.304 884 406c-23 11.696-140-3-140-3l-805-30v-35z" fill="#1047DE"/><path d="M82.64 353.68c-4.03-.14-6.146 1.137-6.323 6.228-.18 5.163 1.836 6.728 5.865 6.869 4.012.14 6.15-1.28 6.331-6.443.178-5.091-1.862-6.513-5.873-6.653zm-.365 10.452c-2.537-.088-2.987-.608-2.866-4.08.12-3.418.601-3.798 3.138-3.709 2.536.089 2.99.5 2.87 3.919-.12 3.472-.606 3.959-3.142 3.87zm10.702-1.661c.064-1.817.333-2.294 1.628-2.249 1.223.043 1.588.434 1.521 2.34-.08 2.303-.519 2.486-1.742 2.443-1.044-.036-1.479-.465-1.407-2.534zm.128-3.652c.229-1.397.56-2.106 2.165-2.176 1.498-.074 2.618-.178 3.403-.493l.083-2.375c-1.002.343-2.178.482-3.585.541-3.462.132-4.735.988-4.947 7.068-.168 4.785 1.385 5.722 3.993 5.813 3.13.11 4.588-.884 4.717-4.59.129-3.688-1.226-4.6-3.529-4.68-.953-.034-1.792.261-2.3.892zm10.51 6.4l.06-1.708 2.231.078c.54.019.82.244.796.928-.022.63-.28.8-.784.783l-2.302-.08zm.18-5.108l2.212.077c.468.016.678.186.658.762-.02.54-.242.73-.71.713l-2.212-.077.051-1.475zm3.444 2.444c1.84-.062 2.243-.787 2.288-2.082.05-1.439-.462-2.231-2.567-2.305l-5.864-.205-.322 9.21 5.918.207c1.71.06 2.793-.532 2.857-2.385.05-1.44-.37-2.3-2.31-2.44zm8.313 5.387c3.004.105 4.537-.976 4.669-4.754.131-3.76-1.343-4.856-4.33-4.96-2.932-.102-4.497.887-4.629 4.647-.132 3.778 1.322 4.963 4.29 5.067zm.264-7.555c1.313.045 1.68.346 1.597 2.757-.081 2.32-.472 2.685-1.785 2.64-1.296-.046-1.66-.437-1.58-2.757.085-2.411.473-2.686 1.768-2.64zm8.324-1.619c-.204 2.208-.736 4.55-1.408 6.795l-1.727-.06.435 5.058 2.267.08.093-2.663 6.458.225-.093 2.663 2.249.078.787-5.015-1.817-.064.239-6.836-7.483-.26zm4.648 2.54l-.156 4.461-3.022-.105c.468-1.551.813-3.16.947-4.434l2.23.078zm11.4 3.622l-.126 3.616 2.752.096.321-9.193-2.752-.096-.112 3.22-2.95-.103.112-3.22-2.753-.096-.32 9.193 2.752.096.126-3.616 2.95.103zm10.124 2.028l-2.285-.08.071-2.032 2.23.078c.54.019.835.335.81 1.037-.024.701-.323 1.015-.826.997zm-2.142-4.18l.11-3.149-2.752-.096-.321 9.192 5.828.204c1.817.063 2.887-.656 2.965-2.904.07-1.98-.937-3.077-2.754-3.14l-3.076-.108zm9.626-2.817l-2.77-.096-.32 9.192 2.77.097.32-9.193zm7.936 9.481l2.753.096.32-9.192-2.752-.096c-.92 1.589-2.256 3.74-3.306 4.927l.176-5.037-2.752-.096-.321 9.193 2.752.096c1.129-1.366 2.302-3 3.299-4.712l-.169 4.821zm-3.987-12.693c-.062 1.781.953 2.61 2.734 2.671 1.817.064 2.852-.693 2.914-2.473l-1.69-.06c-.024.684-.337.871-.896.888a.675.675 0 0 1-.199.01c-.737-.025-1.091-.2-1.064-.973l-1.8-.063zm23.074 13.36c-1.5-4.015-2.303-4.71-3.19-5.1.463-.363 1.683-1.78 3.331-4.117l-3.184-.111c-1.38 1.879-2.644 3.51-3.338 4.314l.154-4.425-2.77-.097-.322 9.21 2.77.097.146-4.155c1.105.326 2.014 1.115 3.237 4.273l3.166.11zm9.416-5.561c.095-2.734-1.17-3.625-3.923-3.721a17.394 17.394 0 0 0-3.975.347l.356 2.21c.781-.207 1.812-.315 2.873-.278 1.799.063 2.076.379 2.031 1.656a10.454 10.454 0 0 0-2.078-.307c-2.195-.076-3.612.288-3.703 2.879-.084 2.41.793 3.09 3.833 3.196 1.35.047 3.14-.161 4.396-.567l.19-5.415zm-2.76 3.74c-.438.147-1.017.217-1.539.198-1.079-.037-1.307-.207-1.274-1.143.032-.917.395-1.013 1.385-.978.557.02 1.078.056 1.488.178l-.06 1.745zm10.667-1.195l-.126 3.616 2.753.096.32-9.192-2.752-.096-.112 3.22-2.95-.103.112-3.22-2.752-.096-.321 9.192 2.752.096.126-3.616 2.95.103zm13.176-1.809c.095-2.734-1.17-3.625-3.923-3.721a17.394 17.394 0 0 0-3.974.347l.355 2.21c.781-.207 1.812-.315 2.873-.278 1.799.063 2.076.379 2.032 1.656a10.454 10.454 0 0 0-2.079-.306c-2.195-.077-3.612.288-3.703 2.878-.084 2.41.793 3.09 3.833 3.196 1.35.047 3.14-.16 4.397-.567l.189-5.415zm-2.76 3.74c-.438.147-1.017.217-1.538.199-1.08-.038-1.308-.208-1.275-1.144.032-.917.395-1.012 1.385-.978.557.02 1.078.056 1.488.178l-.06 1.745zm10.654-4.419l-.239 6.836 2.753.096.321-9.21-7.483-.262c-.307 3.124-.967 6.54-1.833 9.158l2.896.101c.662-1.922 1.218-4.442 1.462-6.793l2.123.074zM148.772 75.598c.324-.126.918-.216 1.404-.216 1.314 0 1.746.396 1.746 2.628 0 1.944-.414 2.52-1.728 2.52-.81 0-1.422-.288-1.422-.702v-4.23zM146 86.002h2.772v-3.618a4.828 4.828 0 0 0 2.016.414c2.286 0 3.906-1.134 3.906-4.86 0-3.762-1.386-4.86-4.518-4.86-1.44 0-3.186.27-4.176.648v12.276zm12.222-6.408c-1.224 0-1.638.216-1.638 1.476 0 1.368.414 1.602 1.638 1.602 1.26 0 1.656-.234 1.656-1.602 0-1.26-.396-1.476-1.656-1.476zM171.434 70v1.44c-4.176.216-5.274 1.566-5.274 4.806s1.098 4.608 5.274 4.824v1.476h2.898v-1.494c4.212-.216 5.454-1.566 5.454-4.806 0-3.222-1.224-4.59-5.454-4.806V70h-2.898zm5.364 6.246c0 1.8-.288 2.394-2.466 2.466v-4.896c2.178.054 2.466.63 2.466 2.43zm-7.704 0c0-1.782.324-2.358 2.34-2.43v4.896c-2.016-.09-2.34-.702-2.34-2.466zm16.668 6.552c3.006 0 4.5-1.134 4.5-4.914 0-3.762-1.512-4.806-4.5-4.806-2.934 0-4.464 1.044-4.464 4.806 0 3.78 1.494 4.914 4.464 4.914zm0-7.56c1.314 0 1.692.288 1.692 2.7 0 2.322-.378 2.7-1.692 2.7-1.296 0-1.674-.378-1.674-2.7 0-2.412.378-2.7 1.674-2.7zm12.222 3.69v3.618h2.754v-9.198h-2.754v3.222h-2.952v-3.222h-2.754v9.198h2.754v-3.618h2.952zm9.72-3.222h2.952V73.33h-8.676v2.376h2.97v6.84h2.754v-6.84zm12.15.954c0-2.736-1.296-3.582-4.05-3.582-1.368 0-2.898.216-3.96.486l.432 2.196c.774-.234 1.8-.378 2.862-.378 1.8 0 2.088.306 2.088 1.584a10.454 10.454 0 0 0-2.088-.234c-2.196 0-3.6.414-3.6 3.006 0 2.412.9 3.06 3.942 3.06 1.35 0 3.132-.27 4.374-.72V76.66zm-2.628 3.834c-.432.162-1.008.252-1.53.252-1.08 0-1.314-.162-1.314-1.098 0-.918.36-1.026 1.35-1.026.558 0 1.08.018 1.494.126v1.746zm10.62-1.566v3.618h2.754v-9.198h-2.754v3.222h-2.952v-3.222h-2.754v9.198h2.754v-3.618h2.952zm14.472 3.618c-1.638-3.96-2.466-4.626-3.366-4.986.45-.378 1.62-1.836 3.186-4.23h-3.186c-1.314 1.926-2.52 3.6-3.186 4.428V73.33h-2.772v9.216h2.772v-4.158c1.116.288 2.052 1.044 3.384 4.158h3.168zm9.216-5.886c0-2.736-1.296-3.582-4.05-3.582-1.368 0-2.898.216-3.96.486l.432 2.196c.774-.234 1.8-.378 2.862-.378 1.8 0 2.088.306 2.088 1.584a10.454 10.454 0 0 0-2.088-.234c-2.196 0-3.6.414-3.6 3.006 0 2.412.9 3.06 3.942 3.06 1.35 0 3.132-.27 4.374-.72V76.66zm-2.628 3.834c-.432.162-1.008.252-1.53.252-1.08 0-1.314-.162-1.314-1.098 0-.918.36-1.026 1.35-1.026.558 0 1.08.018 1.494.126v1.746zM372.187 427.219v-2.08h2.483c.468 0 .715.338.715 1.079 0 .702-.221 1.001-.663 1.001h-2.535zm4.81-7.28h-6.903V429h5.174c1.469 0 2.392-.624 2.392-2.769 0-1.859-.845-2.795-2.431-2.795h-3.042v-1.664h4.81v-1.833zm8.034 4.81c0-1.976-.936-2.587-2.925-2.587-.988 0-2.093.156-2.86.351l.312 1.586c.559-.169 1.3-.273 2.067-.273 1.3 0 1.508.221 1.508 1.144a7.55 7.55 0 0 0-1.508-.169c-1.586 0-2.6.299-2.6 2.171 0 1.742.65 2.21 2.847 2.21.975 0 2.262-.195 3.159-.52v-3.913zm-1.898 2.769a3.338 3.338 0 0 1-1.105.182c-.78 0-.949-.117-.949-.793 0-.663.26-.741.975-.741.403 0 .78.013 1.079.091v1.261zm7.579-3.458V429h1.989v-6.656h-5.408c-.143 2.262-.533 4.745-1.092 6.656h2.093c.429-1.404.767-3.237.884-4.94h1.534zm7.007 0h2.132v-1.716h-6.266v1.716h2.145V429h1.989v-4.94zm7.28 4.94h1.989v-6.643h-1.989c-.624 1.17-1.534 2.756-2.262 3.64v-3.64h-1.989V429h1.989a25.962 25.962 0 0 0 2.262-3.484V429zm7.969 0h1.989v-6.643h-1.989c-.624 1.17-1.534 2.756-2.262 3.64v-3.64h-1.989V429h1.989a25.962 25.962 0 0 0 2.262-3.484V429zm-3.198-9.061c0 1.287.754 1.859 2.041 1.859 1.313 0 2.041-.572 2.041-1.859h-1.222c0 .494-.221.637-.624.663a.487.487 0 0 1-.143.013c-.533 0-.793-.117-.793-.676h-1.3zm11.648 7.228a4.137 4.137 0 0 1-1.508.299c-.975 0-1.469-.234-1.469-1.794 0-1.638.494-1.807 1.469-1.807.546 0 1.131.13 1.508.273l.416-1.69c-.52-.182-1.404-.286-2.093-.286-1.976 0-3.315.767-3.315 3.471 0 2.73 1.326 3.549 3.315 3.549.663 0 1.56-.117 2.093-.338l-.416-1.677zm8.138 1.833c-1.183-2.86-1.781-3.341-2.431-3.601.325-.273 1.17-1.326 2.301-3.055h-2.301c-.949 1.391-1.82 2.6-2.301 3.198v-3.198h-2.002V429h2.002v-3.003c.806.208 1.482.754 2.444 3.003h2.288zm6.656-4.251c0-1.976-.936-2.587-2.925-2.587-.988 0-2.093.156-2.86.351l.312 1.586c.559-.169 1.3-.273 2.067-.273 1.3 0 1.508.221 1.508 1.144a7.55 7.55 0 0 0-1.508-.169c-1.586 0-2.6.299-2.6 2.171 0 1.742.65 2.21 2.847 2.21.975 0 2.262-.195 3.159-.52v-3.913zm-1.898 2.769a3.338 3.338 0 0 1-1.105.182c-.78 0-.949-.117-.949-.793 0-.663.26-.741.975-.741.403 0 .78.013 1.079.091v1.261zm7.826-2.21h-1.599c-.377 0-.624-.195-.624-.702 0-.507.221-.689.611-.689h1.612v1.391zm-2.509.871c-1.066.143-1.547.624-2.366 2.821h2.275c.585-1.794.936-2.158 1.716-2.158h.884V429h2.002v-6.656h-4.264c-1.573 0-2.119.858-2.119 1.95 0 .962.455 1.807 1.872 1.885z" fill="#FFF"/><g transform="translate(452 412)"><circle fill="#F9F9F9" cx="12.5" cy="12.5" r="12.5"/><path d="M17.015 7.435a5.927 5.927 0 0 1 1.854 4.288c0 2.788-1.972 5.147-4.65 5.863l.488.59h4.027C20.14 16.726 21 14.78 21 12.658c0-3.522-2.359-6.53-5.644-7.658L12.5 14.098 9.644 5C6.36 6.129 4 9.136 4 12.658c0 2.123.86 4.069 2.266 5.518h4.019l.497-.59h-.009c-2.679-.716-4.65-3.075-4.65-5.863 0-1.668.708-3.185 1.853-4.288.11-.127.329-.194.54-.16.21.042.412.185.513.497l3.151 10.033c.101.008.21.008.32.008.11 0 .21 0 .32-.008l3.151-10.042c.084-.253.261-.421.472-.48a.657.657 0 0 1 .572.152z" fill="#2962FF"/></g><circle fill="#F40A54" cx="307.5" cy="190.5" r="4.5"/><path d="M39.354 172.432l-.197-3.757 3.127-.164c.791-.042 1.252.493 1.324 1.86.068 1.311-.408 1.859-1.163 1.898l-3.091.163zm.33 6.29l-.205-3.9 4.116-.215c2.337-.123 3.313-2.139 3.194-4.404-.135-2.57-1.093-4.358-3.664-4.224l-6.992.367.656 12.529 2.894-.152zm14.99-.785l2.751-.144-.481-9.185-2.75.144c-.779 1.663-1.922 3.922-2.865 5.197l-.263-5.033-2.75.144.48 9.185 2.751-.144a35.948 35.948 0 0 0 2.875-4.981l.253 4.817zm7.155-.375c1.068-3.012 2.008-3.98 2.928-4.317l.218 4.152 2.768-.145-.218-4.152c.95.239 1.969 1.105 3.364 3.987l3.127-.163c-1.735-3.875-2.704-4.473-3.568-4.806.393-.4 1.593-1.922 2.906-4.388l-3.146.164a61.946 61.946 0 0 1-2.719 4.523l-.229-4.368-2.768.145.23 4.368c-.711-.828-1.93-2.404-3.196-4.213l-3.145.165c1.581 2.315 2.916 3.705 3.349 4.06-.825.422-1.708 1.118-3.029 5.152l3.128-.164zm19.856-3.582a5.728 5.728 0 0 1-2.064.523c-1.348.07-2.048-.217-2.161-2.374-.119-2.265.552-2.535 1.9-2.605a6.36 6.36 0 0 1 2.105.268l.453-2.367c-.732-.214-1.962-.294-2.915-.244-2.732.143-4.528 1.301-4.332 5.04.198 3.775 2.09 4.811 4.84 4.667.918-.048 2.15-.275 2.87-.62l-.696-2.288zm11.385 1.945c-1.843-3.869-2.705-4.49-3.622-4.803.43-.401 1.521-1.918 2.96-4.39l-3.182.166c-1.211 1.992-2.328 3.727-2.95 4.588l-.231-4.421-2.768.145.482 9.203 2.768-.145-.218-4.152c1.13.229 2.104.935 3.597 3.975l3.164-.166zm7.136-.374l2.75-.144-.48-9.186-2.751.145c-.778 1.663-1.921 3.922-2.864 5.197l-.264-5.033-2.75.144.481 9.185 2.75-.144a35.948 35.948 0 0 0 2.876-4.981l.252 4.817zm11.02-.577l2.75-.145-.482-9.185-2.75.144c-.778 1.663-1.922 3.922-2.864 5.197l-.264-5.033-2.75.144.481 9.186 2.75-.145a35.948 35.948 0 0 0 2.876-4.98l.252 4.817zm-5.08-12.298c.094 1.78 1.178 2.516 2.957 2.423 1.816-.095 2.781-.939 2.688-2.718l-1.69.088c.036.683-.26.897-.815.962a.675.675 0 0 1-.196.029c-.737.038-1.105-.105-1.146-.878l-1.797.094zm17.25 4.81l2.93-.153.358 6.83 2.768-.145-.482-9.203-8.467.444.483 9.203 2.768-.145-.358-6.83zm10.833-.676c.317-.142.906-.263 1.391-.289 1.312-.069 1.765.304 1.881 2.533.102 1.942-.281 2.538-1.593 2.607-.81.043-1.436-.213-1.457-.626l-.222-4.225zm-2.223 10.535l2.768-.145-.19-3.613c.515.19 1.137.355 2.036.308 2.282-.12 3.84-1.337 3.646-5.058-.197-3.757-1.639-4.78-4.766-4.617-1.438.076-3.168.437-4.137.866l.643 12.26zm11.87-7.039c-1.223.064-1.625.302-1.559 1.56.072 1.366.497 1.578 1.72 1.514 1.258-.066 1.641-.32 1.57-1.686-.066-1.259-.473-1.454-1.731-1.388z" fill="#FFF"/><path d="M166.582 202.454h-8.676c-.162 3.69-.81 6.93-1.764 9.882h-2.016l.396 5.436h2.592V215h8.712v2.772h2.574l.396-5.436h-2.214v-9.882zm-2.88 9.882h-4.428c.72-2.43 1.08-4.95 1.296-7.344h3.132v7.344zm9.054-4.284c.324-.126.918-.216 1.404-.216 1.314 0 1.746.396 1.746 2.628 0 1.944-.414 2.52-1.728 2.52-.81 0-1.422-.288-1.422-.702v-4.23zm-2.772 10.404h2.772v-3.618a4.828 4.828 0 0 0 2.016.414c2.286 0 3.906-1.134 3.906-4.86 0-3.762-1.386-4.86-4.518-4.86-1.44 0-3.186.27-4.176.648v12.276zm14.832-3.204c3.006 0 4.5-1.134 4.5-4.914 0-3.762-1.512-4.806-4.5-4.806-2.934 0-4.464 1.044-4.464 4.806 0 3.78 1.494 4.914 4.464 4.914zm0-7.56c1.314 0 1.692.288 1.692 2.7 0 2.322-.378 2.7-1.692 2.7-1.296 0-1.674-.378-1.674-2.7 0-2.412.378-2.7 1.674-2.7zm9.288 5.256v-1.71h2.232c.54 0 .828.216.828.9 0 .63-.252.81-.756.81h-2.304zm0-5.112h2.214c.468 0 .684.162.684.738 0 .54-.216.738-.684.738h-2.214v-1.476zm3.528 2.322c1.836-.126 2.214-.864 2.214-2.16 0-1.44-.54-2.214-2.646-2.214h-5.868V215h5.922c1.71 0 2.772-.63 2.772-2.484 0-1.44-.45-2.286-2.394-2.358zm10.314-.27h-2.214c-.522 0-.864-.27-.864-.972s.306-.954.846-.954h2.232v1.926zm-3.474 1.206c-1.476.198-2.142.864-3.276 3.906h3.15c.81-2.484 1.296-2.988 2.376-2.988h1.224V215h2.772v-9.216h-5.904c-2.178 0-2.934 1.188-2.934 2.7 0 1.332.63 2.502 2.592 2.61zm14.328.288V215h2.754v-9.198H218.8v3.222h-2.952v-3.222h-2.754V215h2.754v-3.618h2.952zm13.104-2.268c0-2.736-1.296-3.582-4.05-3.582-1.368 0-2.898.216-3.96.486l.432 2.196c.774-.234 1.8-.378 2.862-.378 1.8 0 2.088.306 2.088 1.584a10.454 10.454 0 0 0-2.088-.234c-2.196 0-3.6.414-3.6 3.006 0 2.412.9 3.06 3.942 3.06 1.35 0 3.132-.27 4.374-.72v-5.418zm-2.628 3.834c-.432.162-1.008.252-1.53.252-1.08 0-1.314-.162-1.314-1.098 0-.918.36-1.026 1.35-1.026.558 0 1.08.018 1.494.126v1.746zm10.836-3.06h-2.214c-.522 0-.864-.27-.864-.972s.306-.954.846-.954h2.232v1.926zm-3.474 1.206c-1.476.198-2.142.864-3.276 3.906h3.15c.81-2.484 1.296-2.988 2.376-2.988h1.224V215h2.772v-9.216h-5.904c-2.178 0-2.934 1.188-2.934 2.7 0 1.332.63 2.502 2.592 2.61zm15.03 4.356c-.45.99-1.008 2.142-1.512 3.006h3.042c.45-.882.9-1.926 1.314-2.898a83.498 83.498 0 0 0 3.51-9.756h-2.754c-.504 2.106-1.224 4.302-1.962 6.408-.576-2.196-1.278-4.482-2.016-6.408h-2.79c1.08 2.862 2.268 6.39 3.168 9.648zm13.014-7.29V215h2.754v-9.216h-7.488c-.198 3.132-.738 6.57-1.512 9.216h2.898c.594-1.944 1.062-4.482 1.224-6.84h2.124zm6.624 3.888c-1.224 0-1.638.216-1.638 1.476 0 1.368.414 1.602 1.638 1.602 1.26 0 1.656-.234 1.656-1.602 0-1.26-.396-1.476-1.656-1.476zm7.344 1.062h-3.168l-1.422 4.752h2.466l2.124-4.752zm8.298-7.326c-.126 2.214-.576 4.572-1.17 6.84h-1.728l.612 5.04h2.268V215h6.462v2.664h2.25l.612-5.04h-1.818v-6.84h-7.488zm4.734 2.376v4.464h-3.024c.414-1.566.702-3.186.792-4.464h2.232zm7.308 3.888c-1.224 0-1.638.216-1.638 1.476 0 1.368.414 1.602 1.638 1.602 1.26 0 1.656-.234 1.656-1.602 0-1.26-.396-1.476-1.656-1.476zM309.43 215v-13.122l-6.426 2.394.756 2.448 2.808-1.134V215h2.862z" fill="#F40A54"/><g transform="translate(8 16)"><circle fill="#F9F9F9" cx="12.5" cy="12.5" r="12.5"/><path d="M20.865 17.072c0 2.162-3.442 3.928-7.676 3.928-2.468 0-4.666-.595-6.054-1.514H5.19L4 18.297l1.838-.072a2.286 2.286 0 0 1-.324-1.063h-.541c.054.09.072.234.072.415 0 .27-.072.468-.144.468-.09 0-.144-.216-.144-.468 0-.18.036-.325.072-.415h-.162v-.072h.198c-.072-.054-.108-.234-.108-.45 0-.27.072-.469.144-.469.09 0 .144.216.144.469 0 .216-.054.414-.108.45h.577c0-.36.09-.703.27-1.027L4 15.991l1.19-1.19h1.765c.9-.63 2.162-1.134 3.622-1.405v-2.324c0-.306.252-.558.558-.558h.036v-4.45a.34.34 0 0 1 .036-.145v-.36c0-.307.252-.559.559-.559h2.36c.306 0 .559.252.559.559v.468a.561.561 0 0 1-.559.559h-2.09v3.928h.45v-1.1c0-.162.127-.288.289-.288.162 0 .288.126.288.288v1.1H14c.306 0 .559.252.559.558v2.144c3.585.343 6.306 1.928 6.306 3.856zm-7.1-11.099a.361.361 0 0 0 .72 0l.001-.396a.361.361 0 0 0-.36-.36.361.361 0 0 0-.36.36v.396zM9.82 14.297c.018.036.054.072.09.072h.018c.036 0 .054-.018.09-.018.054-.018.072-.072.072-.108-.018-.054-.072-.072-.108-.072-.036 0-.054.018-.09.018-.054 0-.09.054-.072.108zm-.613.198a.1.1 0 0 0 .09.055h.036c.036-.018.054-.018.09-.036.054-.019.072-.073.054-.127-.018-.054-.072-.072-.126-.054-.036.018-.054.018-.09.036-.054.018-.072.072-.054.126zm-.612.235c.018.036.054.072.09.072h.036c.036-.018.054-.018.09-.036.054-.018.072-.072.054-.126-.018-.054-.072-.072-.126-.054-.036.018-.054.018-.09.036-.054.018-.072.072-.054.108zM8 15.018a.1.1 0 0 0 .09.054c.018 0 .036 0 .036-.018.036-.018.054-.036.09-.036.054-.018.072-.072.036-.126-.018-.054-.072-.072-.126-.036-.036.018-.054.036-.09.036-.036.018-.054.09-.036.126zm-.54-.072h.035c.037 0 .073-.018.09-.072v-.018c.019-.054 0-.108-.053-.126-.055-.018-.109 0-.127.054v.018c-.018.072 0 .126.054.144zm-.163.63c.054 0 .108-.035.108-.071 0-.037.018-.055.018-.09.018-.055-.018-.109-.072-.109-.054-.018-.108.018-.108.072 0 .036-.018.054-.018.09-.018.055.018.109.072.109zm.018 2.974c-.054.018-.072.072-.072.108 0 .036.018.054.018.09.018.036.054.072.09.072h.018c.054-.018.072-.072.072-.108 0-.036-.018-.054-.018-.09 0-.054-.054-.09-.108-.072zm-.198-2.523c0 .036 0 .054-.018.09 0 .054.036.09.072.108h.018c.054 0 .09-.036.09-.072s0-.054.018-.09a.122.122 0 0 0-.072-.108c-.054-.018-.09.018-.108.072zm.036.577c-.054 0-.09.036-.108.09v.09c0 .054.036.09.09.09s.09-.036.09-.09v-.09c.018-.054-.018-.09-.072-.09zm-.558-.685a.111.111 0 0 0-.127-.018c-.054.036-.072.072-.072.072a.087.087 0 0 0 0 .126c.018.018.036.036.072.036.018 0 .055 0 .073-.018 0 0 .018-.018.072-.054 0-.036.018-.09-.018-.144zm.288 2.63c-.018-.017-.054-.035-.072-.054-.036-.036-.108-.018-.126.019-.036.036-.018.108.018.126.018.018.054.036.072.054.018.018.036.018.054.018.036 0 .054-.018.072-.036.036-.036.018-.09-.018-.126zm.126-2.828c.018-.018.054-.036.072-.054.036-.036.054-.09.018-.126-.036-.036-.09-.055-.126-.018-.018.018-.054.036-.072.054-.036.036-.054.09-.018.126a.137.137 0 0 0 .072.036c.036 0 .054 0 .054-.018zm.126 1.82c.018 0 .018-.018 0 0 .054 0 .09-.055.09-.109v-.09c0-.054-.054-.09-.09-.09-.054 0-.09.054-.09.09v.09c0 .054.054.109.09.109zm.09.63s.018 0 0 0c.072-.018.108-.054.09-.108 0-.036-.018-.054-.018-.09 0-.054-.054-.09-.108-.072-.054 0-.09.054-.072.108 0 .036.018.054.018.09 0 .054.054.072.09.072zm.234.865c.018-.036.018-.108-.036-.126-.036-.018-.054-.036-.072-.054-.036-.036-.108-.018-.126.036-.018.036-.018.108.036.126.018.018.054.036.072.054.018 0 .036.018.054.018.018 0 .054-.018.072-.054zm.199.27s-.018-.036-.036-.09-.072-.072-.127-.054c-.054.018-.072.072-.054.126.018.054.036.09.036.09a.1.1 0 0 0 .09.054h.037c.054-.018.072-.072.054-.126zm.018-4.108c-.018-.036-.09-.054-.126-.036-.036.018-.055.036-.073.054-.036.018-.054.09-.036.126.018.036.054.054.073.054.018 0 .036 0 .054-.018.018-.018.054-.036.072-.054.054-.018.054-.072.036-.126zm.306 4.018c-.036-.018-.054-.036-.09-.036-.054-.018-.108 0-.126.036-.018.054 0 .108.036.126.036.018.054.036.09.036.018 0 .036.018.036.018a.1.1 0 0 0 .09-.054c.036-.054.018-.108-.036-.126zm.595.27c-.036-.018-.054-.018-.09-.036-.055-.018-.109 0-.127.055-.018.054 0 .108.054.126.036.018.054.018.09.036h.037a.1.1 0 0 0 .09-.054c.018-.054 0-.108-.054-.127zm.612.217c-.036-.018-.054-.018-.09-.036-.054-.018-.108.018-.126.054-.018.054.018.108.054.126.036.018.054.018.09.036h.036c.036 0 .072-.018.09-.072.018-.036-.018-.09-.054-.108zm.613.18c-.036 0-.054-.018-.09-.018-.054-.018-.108.018-.108.072-.018.054.018.108.072.108.036 0 .054.018.09.018h.018c.036 0 .072-.036.09-.072.018-.036-.018-.09-.072-.108zm.414-3.243a1.2 1.2 0 0 0-1.189-1.19 1.2 1.2 0 0 0-1.19 1.19 1.2 1.2 0 0 0 1.19 1.189c.667 0 1.19-.523 1.19-1.19zm.216 3.405c-.036 0-.054-.018-.09-.018-.054-.018-.108.018-.108.072-.018.054.018.108.072.108.036 0 .054.018.09.018h.018c.036 0 .09-.036.09-.072.019-.054-.018-.108-.072-.108zm.289-5.982c-.018-.054-.054-.09-.108-.072-.036 0-.054.018-.09.018-.055.018-.09.054-.073.108.018.036.055.072.09.072h.019c.036 0 .054-.018.09-.018.054 0 .09-.054.072-.108zm8.432.883h.036c.036 0 .072-.018.09-.072v-.018c.018-.054 0-.108-.054-.126-.054-.018-.108 0-.126.054l-.018.018c0 .072.018.126.072.144zm-1.585-.126c.036.018.054.018.09.036h.036a.1.1 0 0 0 .09-.054c.018-.054 0-.108-.054-.126-.036-.018-.054-.018-.09-.036-.054-.018-.108 0-.126.054-.019.054 0 .108.054.126zm-.613-.216c.036.018.054.018.09.036h.036a.1.1 0 0 0 .09-.054c.018-.054-.018-.109-.054-.127-.036-.018-.054-.018-.09-.036-.054-.018-.108.018-.126.054-.018.055.018.109.054.127zm-.613-.18c.036 0 .054.017.09.017h.018c.036 0 .073-.036.09-.072.019-.054-.017-.108-.072-.108-.036 0-.054-.018-.09-.018-.054-.018-.108.018-.108.072 0 .036.018.09.072.108zm-.63-.163c.036 0 .054.018.09.018h.018c.036 0 .09-.036.09-.072.018-.054-.018-.108-.072-.108-.036 0-.054-.018-.09-.018-.054-.018-.108.018-.108.072-.018.054.018.108.072.108zm-.379-.54h.036c.036 0 .072-.018.09-.072.018-.054.018-.072.018-.072.018-.054 0-.109-.054-.127-.054-.018-.108 0-.126.055 0 0-.018.018-.018.072-.018.072 0 .126.054.144zm-.342.324c0 .054.018.09.072.108h.036c0 .036-.018.054-.018.09-.018.054.018.108.072.108h.018c.036 0 .072-.036.09-.072 0-.036.018-.054.018-.09s0-.072-.018-.09v-.018c0-.054-.018-.108-.072-.108-.036 0-.054-.018-.09-.018-.054 0-.09.036-.108.09zm-.036.829c-.018.054.018.108.072.108h.018c.036 0 .09-.036.09-.072s.018-.054.018-.09c.018-.054-.018-.108-.072-.108-.054-.018-.108.018-.108.072-.018.036-.018.072-.018.09zm.108 3.82c-.018-.054-.054-.09-.108-.072-.054.018-.09.054-.072.108 0 .036.018.054.018.09s.054.072.09.072h.018c.054-.018.09-.054.072-.108-.018-.036-.018-.072-.018-.09zm-.216-3.171c0 .054.036.09.072.108h.018c.054 0 .09-.036.09-.072s0-.054.018-.09a.122.122 0 0 0-.072-.109.122.122 0 0 0-.108.072c-.018.036-.018.073-.018.09zm-.072.666c0 .054.036.09.09.108.054 0 .09-.036.09-.09v-.09c0-.054-.036-.09-.09-.108-.054 0-.09.036-.108.09.018.018.018.054.018.09zm-.054.649c0 .054.036.09.09.09s.09-.036.09-.09v-.09c0-.054-.036-.09-.09-.09s-.09.036-.09.09c.018.036.018.072 0 .09zm-.63-5.55c.035.018.071.018.09.018h.035c.036 0 .072-.018.09-.072.018-.054-.018-.108-.054-.108a.304.304 0 0 1-.09-.036c-.054-.018-.108.018-.108.072-.036.072 0 .126.036.126zm-.397 2.613c0 .054.036.09.09.108h.09c.054 0 .09-.036.09-.09s-.036-.09-.09-.108h-.09c-.036 0-.09.036-.09.09zm-.307-2.847c0 .054.018.09.072.108.036 0 .055.018.09.018h.019c.036 0 .09-.036.09-.072 0-.054-.018-.108-.072-.108-.036 0-.054-.018-.09-.018-.055-.018-.09.018-.109.072zm-.342 2.81c0 .055.036.091.09.091h.09c.054 0 .09-.036.09-.09s-.036-.09-.09-.09h-.09c-.036 0-.09.054-.09.09zm-.306-2.882c0 .054.036.09.09.09h.09c.054 0 .09-.036.09-.09s-.036-.09-.09-.108h-.09c-.036.018-.09.072-.09.108zm-.343 2.9c0 .055.036.091.09.091h.09c.055 0 .09-.036.09-.09s-.035-.09-.09-.09h-.09c-.054-.018-.09.036-.09.09zm-.306-2.864c0 .054.054.09.09.09h.108c.054 0 .09-.054.09-.108s-.054-.09-.108-.09h-.09c-.054.018-.09.054-.09.108zm-.342 2.9c0 .055.036.091.09.091h.09c.054 0 .09-.054.09-.108s-.054-.09-.108-.09h-.09c-.054.018-.09.054-.072.108zm-.036-.251c.018-.054.018-.072.018-.072.018-.054 0-.109-.054-.127-.054-.018-.108 0-.126.055 0 0-.018.018-.018.072-.018.054.018.108.054.126h.036a.1.1 0 0 0 .09-.054zm-.27-2.523c.017.036.053.072.09.072h.018c.036 0 .054-.018.09-.018.054-.018.09-.054.072-.108-.018-.054-.054-.09-.108-.072-.036 0-.054.018-.09.018-.055 0-.073.054-.073.108zm-.09 3.1c-.019.053.017.107.071.107h.018c.036 0 .073-.036.09-.072 0-.036.019-.054.019-.09.018-.054-.018-.108-.073-.108-.054-.018-.108.018-.108.072 0 .018 0 .054-.018.09zm-.055 1.315c0-.036 0-.054.018-.09a.122.122 0 0 0-.072-.109.122.122 0 0 0-.108.072c0 .036-.018.054-.018.09 0 .055.036.09.072.109h.018c.036 0 .072-.036.09-.072zm-.306 1.189v.09c0 .054.036.09.09.09s.09-.036.09-.09v-.09c0-.054-.036-.09-.09-.09-.036 0-.072.036-.09.09zm.126-.469c.054 0 .09-.036.108-.09v-.09c0-.054-.036-.09-.09-.108-.054 0-.09.036-.108.09v.09c0 .072.036.108.09.108zm-.126 1.135v.09c0 .055.036.09.09.09s.09-.053.09-.09v-.09c0-.054-.036-.09-.09-.09-.054-.018-.09.036-.09.09zm.054.65c0 .035 0 .053.018.09 0 .053.054.09.09.09h.018c.054 0 .09-.055.09-.109 0-.036 0-.054-.018-.09 0-.054-.054-.09-.108-.09-.072.018-.108.054-.09.108zm.27-3.064c.036 0 .09-.036.09-.072s.018-.054.018-.09c.018-.054-.018-.108-.072-.108-.054-.018-.108.018-.108.072 0 .036-.018.054-.018.09-.018.036.018.09.09.108zm-.216-.991c0 .054.054.072.09.072h.018c.036 0 .054-.018.09-.018.054 0 .09-.054.072-.108 0-.054-.054-.09-.108-.072-.036 0-.054 0-.09.018-.054 0-.09.054-.072.108zm-.18-2.595h.036s.036-.018.09-.036.072-.072.054-.126c-.018-.054-.072-.072-.126-.054-.054.018-.09.036-.09.036-.054.018-.072.072-.054.126.018.018.054.054.09.054zm.234 8.847c0-.054-.018-.09-.072-.108-.036 0-.054-.018-.09-.018-.054 0-.09.018-.108.072 0 .054.018.09.072.108.036 0 .054.018.09.018h.018c.036.018.072-.018.09-.072zm.108-1.37c.054-.017.09-.053.072-.107 0-.036-.018-.054-.018-.09-.018-.054-.054-.09-.108-.072-.054.018-.09.054-.072.108 0 .036.018.054.018.09a.122.122 0 0 0 .108.072zm.144.632c.054-.018.072-.073.072-.109 0-.036-.018-.054-.018-.09-.018-.054-.054-.09-.108-.072-.054.018-.072.054-.072.108 0 .036.018.054.018.09a.122.122 0 0 0 .108.073zm.163.63h.036c.054-.018.072-.072.054-.108 0-.036-.018-.054-.018-.09-.018-.054-.072-.072-.108-.054-.055.018-.073.072-.055.108.018.036.018.054.037.09-.019.036.018.054.054.054zm.036.27c.036 0 .054 0 .09.018h.018c.054 0 .09-.036.09-.09s-.036-.09-.09-.108c-.036 0-.054 0-.09-.018-.054 0-.09.036-.108.09 0 .054.036.108.09.108zm.252.235s-.018-.036-.036-.09-.072-.073-.126-.054c-.054.018-.072.072-.054.126.018.054.036.09.036.09a.1.1 0 0 0 .09.054h.036c.054-.036.072-.09.054-.126zm.594-.253c0-.054-.036-.09-.09-.108h-.09c-.054 0-.09.036-.108.09 0 .054.036.09.09.108h.09c.054 0 .108-.036.108-.09zm.65.036c0-.054-.037-.09-.091-.09h-.09c-.054 0-.09.036-.09.09s.036.09.09.09h.09c.054 0 .09-.054.09-.09zm.648-.018c0-.054-.036-.09-.09-.09h-.09c-.054 0-.09.036-.09.09s.036.09.09.09h.09c.054.019.09-.036.09-.09zm.396-3.783a1.2 1.2 0 0 0-1.189-1.19 1.2 1.2 0 0 0-1.19 1.19 1.2 1.2 0 0 0 1.19 1.189c.649 0 1.19-.523 1.19-1.19zm.27 3.747c0-.054-.054-.09-.108-.09h-.09c-.054 0-.09.054-.09.108s.036.09.09.09h.09c.072-.018.108-.054.108-.108zm.217-6.396c0-.054-.036-.09-.09-.108-.036 0-.055 0-.09-.018-.055 0-.09.036-.109.09 0 .054.036.09.09.108.036 0 .054 0 .09.018h.019c.036-.018.09-.054.09-.09zm.198 3.604c.054 0 .09-.054.09-.09v-.09c0-.055-.036-.09-.09-.09s-.09.035-.09.09v.09c0 .054.036.09.09.09zm-.054.468c0 .036 0 .054.018.09 0 .054.054.09.09.09h.018c.054 0 .09-.054.09-.108 0-.036 0-.054-.018-.09 0-.054-.054-.09-.108-.09-.054.018-.09.054-.09.108zm.288 2.234c0-.054-.054-.09-.108-.072-.036 0-.054.018-.09.018-.054 0-.09.054-.072.108 0 .054.054.072.09.072h.018c.036 0 .054-.018.09-.018s.072-.054.072-.108zm.09-.774c.054-.018.072-.073.072-.109 0-.036-.018-.054-.018-.09-.018-.054-.054-.09-.108-.072-.054.018-.072.054-.072.108 0 .036.018.054.018.09a.122.122 0 0 0 .108.073zm.234.522c0-.036-.018-.054-.018-.09-.018-.054-.072-.072-.108-.054-.054.018-.072.072-.054.108.018.036.018.054.036.09s.054.072.09.072h.036c0-.036.036-.09.018-.126zm.199.613s-.018-.036-.036-.09-.073-.073-.127-.054c-.054.018-.072.072-.054.126.018.054.036.09.036.09a.1.1 0 0 0 .09.054h.037c.054-.036.09-.09.054-.126zm.108-.469c-.018-.054-.054-.09-.108-.072-.036 0-.054.018-.09.018-.055.018-.09.054-.073.108.018.036.054.072.09.072h.019c.036 0 .054-.018.09-.018.054-.018.09-.072.072-.108zm.63-.18c-.018-.054-.072-.072-.108-.072-.036 0-.054.018-.09.018-.054.018-.072.072-.072.108.018.036.054.072.09.072h.018c.036 0 .054-.018.09-.018.054 0 .09-.054.072-.108zm.631-.198c-.018-.054-.072-.072-.126-.054-.036.018-.054.018-.09.036-.054.018-.072.072-.054.126a.1.1 0 0 0 .09.054h.036c.036-.018.054-.018.09-.036s.072-.072.054-.126zm.595-.234c-.018-.054-.073-.072-.127-.054-.036.018-.054.018-.09.036-.054.018-.072.072-.054.126a.1.1 0 0 0 .09.054h.036c.036-.018.054-.018.09-.036.055-.036.073-.09.055-.126zm.486-2.937a1.2 1.2 0 0 0-1.19-1.19 1.2 1.2 0 0 0-1.188 1.19 1.2 1.2 0 0 0 1.189 1.189c.667 0 1.189-.523 1.189-1.19zm.108 2.648c-.018-.054-.072-.072-.126-.036-.036.018-.054.036-.09.036-.054.018-.072.072-.036.126a.1.1 0 0 0 .09.054c.018 0 .036 0 .036-.018.036-.018.054-.036.09-.036.036-.018.054-.09.036-.126zm.18-4.324c-.036-.018-.054-.036-.09-.036-.054-.018-.108 0-.126.036-.018.054 0 .108.036.126.036.018.054.036.09.036.018 0 .036.018.036.018a.1.1 0 0 0 .09-.054c.036-.036.018-.108-.036-.126zm.397 4c-.018-.036-.09-.054-.126-.036-.018.018-.054.036-.072.054-.037.018-.055.09-.037.126.019.036.055.054.073.054.018 0 .036 0 .054-.018.036-.018.054-.036.09-.054.018-.018.036-.072.018-.126zm0-3.568c.018.018.054.036.072.054.018.018.036.018.054.018.036 0 .054-.018.072-.036 0 .018 0 .036-.018.054-.018.055.018.109.072.109h.018c.036 0 .09-.036.09-.072 0-.037.018-.055.018-.09.018-.055-.018-.109-.072-.109-.054-.018-.09.018-.108.054 0-.036-.018-.054-.036-.072-.018-.018-.054-.036-.09-.054-.036-.018-.108-.018-.126.036 0 .018.018.09.054.108zm.27.757c0-.036 0-.054.018-.09a.122.122 0 0 0-.072-.108.122.122 0 0 0-.108.072c0 .036 0 .054-.018.09 0 .054.036.09.072.108h.018c.054 0 .09-.036.09-.072zm-.144.45c-.054 0-.09.037-.09.09v.09c0 .055.036.09.09.09s.09-.035.09-.09v-.09c0-.053-.036-.09-.09-.09zm0 .92c.054 0 .09-.055.09-.109v-.09c0-.054-.054-.09-.09-.09-.054 0-.09.054-.09.09v.09c0 .072.036.109.09.109zm.09.648c.054-.018.09-.054.072-.108 0-.036-.018-.054-.018-.09 0-.054-.054-.09-.108-.072-.054 0-.09.054-.072.108 0 .036.018.054.018.09.018.054.054.072.108.072zm.18.63c.018 0 .036 0 .054-.017.018-.018.054-.036.072-.054.036-.036.054-.09.018-.126-.036-.036-.09-.054-.126-.018-.018-.036-.054-.054-.108-.036-.054.018-.072.072-.072.108 0 .036.018.054.018.09.018.036.054.072.09.072.018 0 .018 0 .054-.018-.018.018-.018 0 0 0zm.234.505s-.018-.036-.036-.09-.072-.072-.126-.054c-.054.018-.072.072-.054.126.018.054.036.09.036.09a.1.1 0 0 0 .09.054h.036c.054-.018.072-.072.054-.126zm.108-3.64c-.018-.017-.054-.035-.072-.053-.036-.036-.108-.018-.126.018-.036.036-.018.108.018.126.018.018.054.036.072.054.018.018.036.018.054.018.036 0 .054-.018.072-.036.018-.036.018-.108-.018-.126zm.307 2.523a.087.087 0 0 0-.126 0s-.018.018-.072.054a.111.111 0 0 0-.018.126c.036.036.054.036.072.036.018 0 .036 0 .054-.018.054-.036.072-.072.072-.072.054-.018.054-.09.018-.126z" fill="#2962FF"/></g><path d="M55.059 26h2.314c-.975-2.366-2.327-6.227-3.185-9.061h-3.237c-1.04 2.548-2.457 6.526-3.211 9.061h2.236a71.47 71.47 0 0 1 .585-2.002h3.731c.273.767.546 1.469.767 2.002zm-2.444-7.241a78.8 78.8 0 0 0 1.079 3.432h-2.6a108.75 108.75 0 0 1 1.183-3.432h.338zm6.461.585c-.091 1.599-.416 3.302-.845 4.94h-1.248l.442 3.64h1.638V26h4.667v1.924h1.625l.442-3.64h-1.313v-4.94h-5.408zm3.419 1.716v3.224h-2.184c.299-1.131.507-2.301.572-3.224h1.612zm8.554 1.755c-.52-1.235-.988-2.366-1.547-3.471h-2.808V26h1.976v-4.329c.481 1.066 1.157 2.873 1.534 3.978h1.43a57.87 57.87 0 0 1 1.612-3.978V26h1.963v-6.656h-2.691a48.946 48.946 0 0 0-1.469 3.471zM81.189 26h1.989v-6.643h-1.989c-.624 1.17-1.534 2.756-2.262 3.64v-3.64h-1.989V26h1.989a25.962 25.962 0 0 0 2.262-3.484V26zm5.72-5.018c.234-.091.663-.156 1.014-.156.949 0 1.261.286 1.261 1.898 0 1.404-.299 1.82-1.248 1.82-.585 0-1.027-.208-1.027-.507v-3.055zm-2.002 7.514h2.002v-2.613c.364.156.806.299 1.456.299 1.651 0 2.821-.819 2.821-3.51 0-2.717-1.001-3.51-3.263-3.51-1.04 0-2.301.195-3.016.468v8.866zm13.494-6.747c0-1.976-.936-2.587-2.925-2.587-.988 0-2.093.156-2.86.351l.312 1.586c.559-.169 1.3-.273 2.067-.273 1.3 0 1.508.221 1.508 1.144a7.55 7.55 0 0 0-1.508-.169c-1.586 0-2.6.299-2.6 2.171 0 1.742.65 2.21 2.847 2.21.975 0 2.262-.195 3.159-.52v-3.913zm-1.898 2.769a3.338 3.338 0 0 1-1.105.182c-.78 0-.949-.117-.949-.793 0-.663.26-.741.975-.741.403 0 .78.013 1.079.091v1.261zm7.579-3.458V26h1.989v-6.656h-5.408c-.143 2.262-.533 4.745-1.092 6.656h2.093c.429-1.404.767-3.237.884-4.94h1.534zm7.007 0h2.132v-1.716h-6.266v1.716h2.145V26h1.989v-4.94zm8.138 3.237c-.494.13-1.365.221-1.846.221-.962 0-1.443-.195-1.469-1.261h4.069c.182-3.419-.78-4.095-2.99-4.095-1.911 0-3.133.793-3.133 3.471 0 2.73 1.391 3.549 3.263 3.549.754 0 1.742-.143 2.405-.364l-.299-1.521zm-2.093-3.627c.78 0 1.079.195 1.105 1.118h-2.314c.117-.845.377-1.118 1.209-1.118zm8.463 5.33h1.989v-6.643h-1.989c-.624 1.17-1.534 2.756-2.262 3.64v-3.64h-1.989V26h1.989a25.962 25.962 0 0 0 2.262-3.484V26zm-3.198-9.061c0 1.287.754 1.859 2.041 1.859 1.313 0 2.041-.572 2.041-1.859h-1.222c0 .494-.221.637-.624.663-.039.013-.091.013-.143.013-.533 0-.793-.117-.793-.676h-1.3zm11.648 7.228a4.137 4.137 0 0 1-1.508.299c-.975 0-1.469-.234-1.469-1.794 0-1.638.494-1.807 1.469-1.807.546 0 1.131.13 1.508.273l.416-1.69c-.52-.182-1.404-.286-2.093-.286-1.976 0-3.315.767-3.315 3.471 0 2.73 1.326 3.549 3.315 3.549.663 0 1.56-.117 2.093-.338l-.416-1.677zM142.185 26c-1.183-2.86-1.781-3.341-2.431-3.601.325-.273 1.17-1.326 2.301-3.055h-2.301c-.949 1.391-1.82 2.6-2.301 3.198v-3.198h-2.002V26h2.002v-3.003c.806.208 1.482.754 2.444 3.003h2.288zm5.161 0h1.989v-6.643h-1.989c-.624 1.17-1.534 2.756-2.262 3.64v-3.64h-1.989V26h1.989a25.962 25.962 0 0 0 2.262-3.484V26zm8.827-1.703c-.494.13-1.365.221-1.846.221-.962 0-1.443-.195-1.469-1.261h4.069c.182-3.419-.78-4.095-2.99-4.095-1.911 0-3.133.793-3.133 3.471 0 2.73 1.391 3.549 3.263 3.549.754 0 1.742-.143 2.405-.364l-.299-1.521zm-2.093-3.627c.78 0 1.079.195 1.105 1.118h-2.314c.117-.845.377-1.118 1.209-1.118zM51.159 38.219v-2.08h2.483c.468 0 .715.338.715 1.079 0 .702-.221 1.001-.663 1.001h-2.535zm0-5.499h2.47c.403 0 .585.234.585.858s-.182.858-.585.858h-2.47V32.72zm3.367 2.509c1.625-.13 1.937-.858 1.937-2.119 0-1.417-.455-2.171-2.262-2.171h-5.135V40h5.174c1.469 0 2.392-.624 2.392-2.444 0-1.417-.377-2.249-2.106-2.327zm8.84 3.068c-.494.13-1.365.221-1.846.221-.962 0-1.443-.195-1.469-1.261h4.069c.182-3.419-.78-4.095-2.99-4.095-1.911 0-3.133.793-3.133 3.471 0 2.73 1.391 3.549 3.263 3.549.754 0 1.742-.143 2.405-.364l-.299-1.521zm-2.093-3.627c.78 0 1.079.195 1.105 1.118h-2.314c.117-.845.377-1.118 1.209-1.118zm6.214.312c.234-.091.663-.156 1.014-.156.949 0 1.261.286 1.261 1.898 0 1.404-.299 1.82-1.248 1.82-.585 0-1.027-.208-1.027-.507v-3.055zm-2.002 7.514h2.002v-2.613c.364.156.806.299 1.456.299 1.651 0 2.821-.819 2.821-3.51 0-2.717-1.001-3.51-3.263-3.51-1.04 0-2.301.195-3.016.468v8.866zm11.323-9.256c-.247-.065-.507-.078-.819-.078-2.197 0-3.016.793-3.016 3.51 0 2.691.988 3.51 2.561 3.51.598 0 .988-.143 1.274-.299v2.613h2.002v-2.613a2.62 2.62 0 0 0 1.274.299c1.573 0 2.561-.819 2.561-3.51 0-2.717-.819-3.51-3.016-3.51-.312 0-.572.013-.819.078v-2.548h-2.002v2.548zm-.845 5.304c-.728 0-1.079-.416-1.079-1.82 0-1.612.312-1.898 1.105-1.898.338 0 .585.039.819.117v3.12c0 .273-.299.481-.845.481zm3.692 0c-.533 0-.832-.195-.845-.468v-3.133c.247-.078.481-.117.819-.117.793 0 1.105.286 1.105 1.898 0 1.404-.338 1.82-1.079 1.82zM88.352 40h1.989v-6.643h-1.989c-.624 1.17-1.534 2.756-2.262 3.64v-3.64h-1.989V40h1.989a25.962 25.962 0 0 0 2.262-3.484V40z" fill="#FFF"/><g fill="#F40A54"><path d="M278.7 127.233V183h8.089v-11.511h6.222V183h.622v-11.511h5.911V183h8.4v-55.767H278.7zm12.833 38.034h-7.466v-10.734s1.089-2.644 3.733-2.644 3.733 2.644 3.733 2.644v10.734zm0-16.878h-7.466v-10.733s1.089-2.645 3.733-2.645 3.733 2.645 3.733 2.645v10.733zm11.123 17.111h-7.467v-10.733s1.089-2.645 3.733-2.645c2.645 0 3.734 2.645 3.734 2.645V165.5zm0-17.033h-7.467v-10.734s1.089-2.644 3.733-2.644c2.645 0 3.734 2.644 3.734 2.644v10.734zM320.778 118.522l-10.967 8.867V183H331.9v-55.611l-11.122-8.867zm-3.5 55.456H312.3v-5.367h4.978v5.367zm0-5.834H312.3v-3.888h4.978v3.888zm0-8.633H312.3v-5.367h4.978v5.367zm0-5.911H312.3v-3.889h4.978v3.889zm0-8.633H312.3V139.6h4.978v5.367zm0-5.834H312.3v-3.889h4.978v3.89zm5.989 34.845h-4.978v-5.367h4.978v5.367zm0-5.834h-4.978v-3.888h4.978v3.888zm0-8.633h-4.978v-5.367h4.978v5.367zm0-5.911h-4.978v-3.889h4.978v3.889zm0-8.633h-4.978V139.6h4.978v5.367zm0-5.834h-4.978v-3.889h4.978v3.89zm6.144 34.845h-4.978v-5.367h4.978v5.367zm0-5.834h-4.978v-3.888h4.978v3.888zm0-8.633h-4.978v-5.367h4.978v5.367zm0-5.911h-4.978v-3.889h4.978v3.889zm0-8.633h-4.978V139.6h4.978v5.367zm0-5.834h-4.978v-3.889h4.978v3.89z"/><path d="M332.056 125.6h4.355L320.778 113 305.3 125.6h4.356l11.122-9.1z"/></g></g></symbol><symbol id="icon-buble" viewBox="0 0 16 16"><path d="M3.2 7.2c1.77 0 3.2 1.43 3.2 3.2 0 1.77-1.43 3.2-3.2 3.2-1.77 0-3.2-1.43-3.2-3.2 0-1.77 1.43-3.2 3.2-3.2zm7.6 4.8a2 2 0 1 1 0 4 2 2 0 0 1 0-4zm.4-12a4.8 4.8 0 1 1 0 9.6 4.8 4.8 0 0 1 0-9.6z"/></symbol><symbol id="icon-close" viewBox="0 0 14 14"><path d="M14 1.41L12.59 0 7 5.59 1.41 0 0 1.41 5.59 7 0 12.59 1.41 14 7 8.41 12.59 14 14 12.59 8.41 7 14 1.41z"/></symbol><symbol id="icon-down" viewBox="0 0 12 8"><path d="M1.41.58L6 5.17 10.59.58 12 2 6 8 0 2 1.41.58z"/></symbol><symbol id="icon-facebook" viewBox="0 0 15 32"><path d="M14.66 10.216H9.667V6.94c0-1.23.815-1.516 1.39-1.516h3.523V.019L9.727 0C4.341 0 3.115 4.032 3.115 6.612v3.604H0v5.57h3.115V31.55h6.552V15.786h4.421l.572-5.57z"/></symbol><symbol id="icon-instagram" viewBox="0 0 20 20"><path d="M5.8 0h8.4C17.4 0 20 2.6 20 5.8v8.4a5.8 5.8 0 0 1-5.8 5.8H5.8C2.6 20 0 17.4 0 14.2V5.8A5.8 5.8 0 0 1 5.8 0zm-.2 2A3.6 3.6 0 0 0 2 5.6v8.8C2 16.39 3.61 18 5.6 18h8.8a3.6 3.6 0 0 0 3.6-3.6V5.6C18 3.61 16.39 2 14.4 2H5.6zm9.65 1.5a1.25 1.25 0 1 1 0 2.5 1.25 1.25 0 0 1 0-2.5zM10 5a5 5 0 1 1 0 10 5 5 0 0 1 0-10zm0 2a3 3 0 1 0 0 6 3 3 0 0 0 0-6z"/></symbol><symbol id="icon-koi" viewBox="0 0 48 40"><path d="M46.64 30.49c-.017-.54.87-.28.866-.9-.518.526-.75.08-1.156.593-.705-.731-1.517-1.464-1.717-1.902-.352-.776-.774-1.481-1.55-1.552-.776-.071-5.422-2.564-6.84-2.962-.55-.9-1.086-2.408-2.685-3.164-.94-.445-1.349-.402-1.273 1.352-1.057-.705-5.63-2.418-8.456-3.478-5.658-2.118-11.806-2.57-15.018-4.652-1.425-.924-4.719-3.346-5.033-5.09C3.494 7.163 5.49 5.17 5.356 3.53 5.059-.07 1.876-.825.279.848c-.697.732.146 3.09.028 4.048-.388 3.13-.505 4.564.705 6.881 1.916 3.67 7.095 7.969 9.563 10.722 2.467 2.749 4.929 4.608 5.852 5.076-.912.807-1.432 1.218-.654 2.393.665.998 1.418 2.034 2.758 1.963 1.34-.072 2.181-.695 2.973-1.464.988.212 6.363 2.469 7.413 2.678-1.485.681-2.45 4.486-2.59 5.755-.142 1.268 1.097 1.262 2.413.863 1.419-.431 4.225-3.885 5.246-5.209 1.833.567 9.424.56 9.99.702-.055.675.802.854.94 1.346.22-.482-.663-.772-.401-1.373 2.135-.34 3.222-2.213 2.95-3.508-.072-.34-.408-.776-.826-1.23zm-13.568-9.51c1.006.287 1.665 1.108 2.403 2.214-.75-.31-2.154-.965-2.741-1.256-.128-.57-.04-1.066.338-.957zM.742 1.172C1.362.15 3.502.345 4.44 2.224c.486.972.492 2.044-.27 3.454-1.268 2.348-1.404 2.976.459 5.111C1.803 9.072.088 2.247.742 1.171zM.558 6.393c.592 1.964 1.575 3.293 1.426 4.008-.112.533-.009 1.44.098 2.112C.176 10.401.327 7.281.558 6.393zM17.884 31.28c-.65-.243-1.985-1.342-1.985-2.267 0-.503.18-.701.654-.938.44.206 3.184 2.024 4.016 2.402-1.2.901-2.017 1.056-2.685.803zm10.763 7.81c-1.062.246-1.565.324-1.7.135-.283-.395.552-4.224 1.97-5.36.405-.324 3.184.583 4.372.475-.405.489-3.235 4.42-4.642 4.75zm12.225-9.824c-1.349 1.694-3.157 2.068-4.075 1.775-.918-.29-1.98-.678-2.717 0-.737.681.1 2.075-1.364 2.23-3.023.324-17.184-5.813-20.422-9.898-2.364-2.98-7.713-7.567-8.744-9.193-.753-1.188-1.062-3.879-.483-3.316 1.106 1.08.711.529 2.01 1.602 1.565 1.295 4.059 3.36 11.264 4.493 1.423.223 3.416.826 5.634 1.619a4.689 4.689 0 0 0-.967-.118c-.576 0-.992.145-1.237.433-.205.239-.278.562-.216.958l.012.077.059.054c1.074.942 3.199 1.347 4.469 1.59.374.07.696.134.82.178l.537.203-.302-.564c-.575-1.077-1.033-1.863-1.918-2.348 6.736 2.514 14.922 6.376 16.102 6.906 1.025.459 2.484 2.129 1.538 3.32zm-18.11-10.002c.866.354 1.287 1.002 1.808 1.96-.116-.023-.249-.047-.394-.078-1.202-.228-3.197-.61-4.205-1.437-.023-.229.02-.408.128-.533.199-.232.603-.283.908-.283.632 0 1.34.199 1.756.371z"/></symbol><symbol id="icon-mail" viewBox="0 0 20 20"><path d="M2 8l8 5 8-5-8-5-8 5zm18 0v10a2 2 0 0 1-2 2H2a2 2 0 0 1-2-2V8c0-.73.39-1.36.97-1.71L10 .64l9.03 5.65c.58.35.97.98.97 1.71z"/></symbol><symbol id="icon-marker" viewBox="0 0 14 20"><path d="M7 9.5a2.5 2.5 0 1 1 0-5 2.5 2.5 0 0 1 0 5zM7 0a7 7 0 0 0-7 7c0 5.25 7 13 7 13s7-7.75 7-13a7 7 0 0 0-7-7z"/></symbol><symbol id="icon-menu" viewBox="0 0 24 21"><path d="M23.244 16.009H.75c-.413 0-.75.36-.75.801v3.421c0 .423.337.769.75.769h22.494c.414 0 .75-.346.75-.77v-3.42c0-.441-.336-.801-.75-.801zm0-8H.75c-.413 0-.75.36-.75.801v3.421A.76.76 0 0 0 .75 13h22.494a.76.76 0 0 0 .75-.769V8.81c0-.441-.336-.801-.75-.801zm0-8H.75C.337.009 0 .369 0 .81v3.42c0 .423.337.769.75.769h22.494a.76.76 0 0 0 .75-.769V.81c0-.441-.336-.801-.75-.801z"/></symbol><symbol id="icon-next" viewBox="0 0 15 24"><path d="M3 0L.17 2.83 9.34 12 .17 21.17 3 24l12-12L3 0z"/></symbol><symbol id="icon-ok" viewBox="0 0 19 32"><path d="M9.25 4.83a3.416 3.416 0 0 1 3.413 3.414c0 1.88-1.53 3.41-3.413 3.41a3.417 3.417 0 0 1-3.413-3.41A3.418 3.418 0 0 1 9.25 4.83zm0 11.654c4.547 0 8.243-3.696 8.243-8.24C17.493 3.698 13.797 0 9.25 0 4.705 0 1.008 3.698 1.008 8.244c0 4.544 3.697 8.24 8.242 8.24zm3.335 6.724a15.434 15.434 0 0 0 4.786-1.983 2.415 2.415 0 0 0 .757-3.33 2.413 2.413 0 0 0-3.33-.76 10.465 10.465 0 0 1-11.097 0 2.412 2.412 0 0 0-3.33.76 2.414 2.414 0 0 0 .757 3.33c1.49.935 3.108 1.6 4.786 1.983l-4.608 4.608a2.415 2.415 0 0 0 3.417 3.414l4.526-4.528 4.53 4.528c.942.943 2.47.943 3.414 0a2.413 2.413 0 0 0 0-3.414l-4.608-4.608z"/></symbol><symbol id="icon-phone" viewBox="0 0 12 20"><path d="M10 15.455H1.818V2.727H10v12.728zM5.91 19.09a1.364 1.364 0 1 1 0-2.727 1.364 1.364 0 0 1 0 2.727zM9.544 0H2.273A2.273 2.273 0 0 0 0 2.273v15.454A2.273 2.273 0 0 0 2.273 20h7.272a2.273 2.273 0 0 0 2.273-2.273V2.273A2.273 2.273 0 0 0 9.545 0z"/></symbol><symbol id="icon-prev" viewBox="0 0 15 25"><path d="M14.83 21.67L5.66 12.5l9.17-9.17L12 .5l-12 12 12 12 2.83-2.83z"/></symbol><symbol id="icon-search" viewBox="0 0 18 18"><path d="M11 0a6.5 6.5 0 0 0-6.5 6.5c0 1.61.59 3.09 1.56 4.23l-.27.27H5l-5 5 1.5 1.5 5-5v-.79l.27-.27C7.91 12.41 9.39 13 11 13a6.5 6.5 0 1 0 0-13zm0 2c2.5 0 4.5 2 4.5 4.5S13.5 11 11 11 6.5 9 6.5 6.5 8.5 2 11 2z"/></symbol><symbol id="icon-te-st" viewBox="0 0 99 40"><g><path d="M10.895 20.245a2 2 0 0 1-1.4-2.394l-1.394-.805c-.359.343-.845.554-1.381.554a1.994 1.994 0 0 1-1.42-.592l-1.369.79A2.003 2.003 0 0 1 2 20.32a2 2 0 1 1 1.347-3.479l1.418-.818a2 2 0 0 1 3.33-1.875l2.785-1.607V9.28a1.998 1.998 0 0 1-.828-.481l-1.392.87a2 2 0 1 1-3.885.027l-1.451-.838a1.996 1.996 0 0 1-.764.422v1.678a2 2 0 1 1-1.12 0V9.281A2 2 0 1 1 3.428 5.96l1.333-.833a2 2 0 1 1 .528.99l-1.331.833a2.009 2.009 0 0 1-.035.962l1.406.811c.36-.348.85-.563 1.391-.563.53 0 1.013.207 1.371.544l1.404-.877a2.005 2.005 0 0 1 1.465-2.409V3.942A2 2 0 1 1 12 3.921v1.518a2 2 0 0 1 0 3.842v3.306l2.653 1.532c.256-.26.582-.451.947-.541v-1.476a2 2 0 1 1 1.85-3.399l1.389-.868a2.01 2.01 0 0 1 .022-.888l-1.434-.828a2 2 0 1 1 .584-.956l1.42.82a2 2 0 1 1 1.93 3.378l-.001 1.518a2 2 0 1 1-1.04-.021V9.382a1.998 1.998 0 0 1-.959-.553l-1.342.84a2.004 2.004 0 0 1-1.379 2.412v1.518a2 2 0 0 1 1.366 2.462l1.41.815a2 2 0 1 1-.56.97l-1.444-.834a2 2 0 0 1-3.29-1.906l-2.722-1.572-2.74 1.581a2.004 2.004 0 0 1 .003.962l1.39.802a2 2 0 1 1 1.896 3.375v2.62l2.279-1.317a2.003 2.003 0 0 1 1.932-2.517 2 2 0 1 1-1.4 3.428l-2.811 1.624v4.783h10.34a.352.352 0 0 1 0 .703H11.985c.182 1.334 1.447 1.512 3.42 1.674 1.924.157 4.103.336 4.69 2.502a.264.264 0 0 1-.255.334.263.263 0 0 1-.254-.196c-.442-1.632-2.03-1.917-3.685-2.068.045.05.087.101.126.155.316.427.81.626 1.334.836.656.264 1.334.537 1.641 1.286a.264.264 0 1 1-.487.2c-.223-.543-.745-.753-1.35-.996a7.767 7.767 0 0 1-.682-.301c.065.246.117.496.166.74.088.44.171.858.331 1.208a.264.264 0 0 1-.48.22c-.185-.406-.278-.873-.368-1.324-.216-1.08-.403-2.012-1.693-2.154l-.01-.002c-.915-.103-1.768-.285-2.327-.776.262.613.652 1.061 1.035 1.499.158.181.318.364.467.558l.009.007c.157.204.34.377.535.562.26.245.532.504.754.852.005.007.01.012.014.02.293.466 1.156 1.418 1.703 1.727a.264.264 0 0 1-.258.46c-.308-.174-.677-.497-1.015-.844.032.325.032.694-.014 1.127a.263.263 0 0 1-.262.236l-.028-.001a.264.264 0 0 1-.234-.29c.128-1.21-.109-1.851-.471-2.324.16.822.056 1.91-.553 3.493a.264.264 0 1 1-.492-.19c1.18-3.065.378-3.983-.551-5.045-.368-.422-.761-.873-1.05-1.477.083 1.033.216 1.881.332 2.616.35 2.212.56 3.548-1.174 5.988a.262.262 0 0 1-.367.062.264.264 0 0 1-.062-.368c1.274-1.793 1.422-2.909 1.26-4.363-.107.186-.233.341-.357.494-.329.407-.64.793-.575 1.874a.264.264 0 0 1-.247.28h-.016a.264.264 0 0 1-.263-.248c-.078-1.286.331-1.791.692-2.238.36-.445.67-.829.483-2.083a28.944 28.944 0 0 1-.222-1.844c-.283.577-.751 1.206-1.528 1.862-.928.782-.676 1.636-.385 2.623.19.647.388 1.316.265 2.011a.263.263 0 1 1-.519-.091c.1-.574-.078-1.182-.251-1.77a9.547 9.547 0 0 1-.216-.822l-.067.31c-.195.912-.396 1.856-1.619 2.658a.264.264 0 0 1-.288-.441c1.04-.683 1.203-1.444 1.391-2.327.082-.383.17-.79.343-1.202l-.223.132c-.772.458-1.198.709-1.369 1.68a.263.263 0 1 1-.519-.09c.213-1.212.803-1.56 1.62-2.044.43-.255.92-.543 1.496-1.03.911-.769 1.354-1.481 1.57-2.108-.07.086-.144.169-.226.246-.784.735-2.06 1.051-3.796.945-.77.142-.857.562-.975 1.488-.107.842-.24 1.89-1.16 2.98a.261.261 0 0 1-.371.031.264.264 0 0 1-.032-.371c.82-.972.942-1.934 1.04-2.706.069-.537.136-1.055.44-1.43a5.778 5.778 0 0 0-.783.103c-.674.28-.703.634-.754 1.273-.035.428-.078.96-.364 1.55a.263.263 0 0 1-.352.121.264.264 0 0 1-.122-.353c.243-.5.28-.956.312-1.36.023-.282.046-.558.135-.813-1.014.587-1.173 1.451-1.183 1.509a.264.264 0 0 1-.52-.087c.13-.775.845-1.924 2.656-2.331l.007-.004a.26.26 0 0 1 .095-.02 7.292 7.292 0 0 1 1.929-.109c1.58.104 2.768-.173 3.437-.8.372-.35.529-.748.586-1.09H.555a.351.351 0 0 1 0-.704h10.34v-4.783l-2.82-1.629c-.22.216-.492.38-.794.472a2 2 0 1 1 1.144-2.8 1.936 1.936 0 0 1 .177 1.413l2.292 1.326v-2.63zm6.213 1.392a1.12 1.12 0 0 0-1.938-1.12l.03.018a1.062 1.062 0 0 0 .002 1.07 1.07 1.07 0 0 0 1.85 0l.056.032zm-10.122.469a1.12 1.12 0 1 0-1.281-.45l.086-.05a1.068 1.068 0 0 0 1.195.5zm5.405-3.194a1.12 1.12 0 1 0-1.912-.016l.016-.01a1.07 1.07 0 0 0 1.852 0l.044.026zM2 8.48a1.12 1.12 0 1 0 0-2.24 1.12 1.12 0 0 0 0 2.24zM2 14a1.12 1.12 0 1 0 0-2.24A1.12 1.12 0 0 0 2 14zm4.72-8.16a1.12 1.12 0 1 0 0-2.24 1.12 1.12 0 0 0 0 2.24zm4.72-2.72a1.12 1.12 0 1 0 0-2.24 1.12 1.12 0 0 0 0 2.24zm0 5.36a1.12 1.12 0 1 0 0-2.24 1.12 1.12 0 0 0 0 2.24zm-4.72 2.8a1.12 1.12 0 1 0 0-2.24 1.12 1.12 0 0 0 0 2.24zm9.36-5.52a1.12 1.12 0 1 0 0-2.24 1.12 1.12 0 0 0 0 2.24zm4.72 2.8a1.12 1.12 0 1 0 0-2.24 1.12 1.12 0 0 0 0 2.24zm0 5.36a1.12 1.12 0 1 0 0-2.24 1.12 1.12 0 0 0 0 2.24zm-4.72-2.64a1.12 1.12 0 1 0 0-2.24 1.12 1.12 0 0 0 0 2.24zm0 5.36a1.12 1.12 0 1 0 0-2.24 1.12 1.12 0 0 0 0 2.24zm4.72 2.8a1.12 1.12 0 1 0 0-2.24 1.12 1.12 0 0 0 0 2.24zM6.72 16.72a1.12 1.12 0 1 0 0-2.24 1.12 1.12 0 0 0 0 2.24zM2 19.44a1.12 1.12 0 1 0 0-2.24 1.12 1.12 0 0 0 0 2.24zM36.18 4.56v-.68H31.3v.68h2.06V11h.76V4.56h2.06zM41.93 11v-.68h-3.66V7.75h3.12v-.68h-3.12V4.56h3.66v-.68h-4.42V11h4.42zm6.47 0V3.88h-4.89V11h.76V4.56h3.37V11h.76zm6.78 0V3.88h-3.92v2.89c0 2.96-.63 3.55-1.51 3.55h-.19V11h.36C51.28 11 52 10 52 7V4.56h2.42V11h.76zm7.16 0V3.88h-.72L58 9.68v-5.8h-.76V11h.72l3.62-5.81V11h.76zm7.8 1.72v-2.4h-.85V3.88h-.76v6.44h-3.37V3.88h-.76V11h4.99v1.72h.75zm6.4-1.72l-2.61-7.12h-.64L70.67 11h.81l.57-1.61h3.11l.57 1.61h.81zm-1.6-2.27h-2.66l1.34-3.76 1.32 3.76zM36.72 20.04h-.76c-.19.87-.82 1.44-1.71 1.44-.47 0-.92-.18-1.23-.5-.45-.46-.5-.95-.5-2.44s.05-1.98.5-2.44c.31-.32.76-.5 1.23-.5.89 0 1.5.57 1.69 1.44h.78c-.24-1.34-1.19-2.12-2.47-2.12-.7 0-1.34.26-1.82.74-.67.67-.67 1.37-.67 2.88 0 1.51 0 2.21.67 2.88.48.48 1.12.74 1.82.74 1.27 0 2.24-.78 2.47-2.12zm6.19-1.99c0-.87-.05-1.77-.67-2.39-.48-.48-1.12-.74-1.82-.74s-1.34.26-1.82.74c-.61.61-.67 1.48-.67 2.33v.55c0 1.42.02 2.23.67 2.88.48.48 1.11.74 1.82.74s1.34-.26 1.82-.74c.65-.65.67-1.46.67-2.88v-.49zm-.76.84c0 .82-.01 1.59-.5 2.08-.33.33-.76.51-1.23.51s-.9-.18-1.23-.51c-.46-.46-.5-1.16-.5-1.93v-.71c0-.98 0-1.72.5-2.22.33-.33.77-.51 1.23-.51.46 0 .9.18 1.23.51.47.47.5 1.21.5 2.05v.73zm8.29 4.93v-2.4h-.85v-6.44h-.76v6.44h-3.37v-6.44h-.76v7.12h4.99v1.72h.75zm6.54-1.72v-7.12h-.72l-3.62 5.8v-5.8h-.76v7.12h.72l3.62-5.81v5.81h.76zm7.02 0l-2.61-7.12h-.64l-2.62 7.12h.81l.57-1.61h3.11l.57 1.61H64zm-1.6-2.27h-2.66l1.34-3.76 1.32 3.76zm7.46 2.27v-7.12h-3.92v2.89c0 2.96-.63 3.55-1.51 3.55h-.19v.68h.36c1.36 0 2.08-1 2.08-4v-2.44h2.42v6.44h.76zm6.93-2.09c0-1.26-.87-2.1-2.2-2.1h-1.91v-2.93h-.76v7.12h2.67c1.32 0 2.2-.84 2.2-2.09zm-.77 0c0 .89-.55 1.41-1.5 1.41h-1.84v-2.83h1.84c.95 0 1.5.52 1.5 1.42zm7.1 2.09v-7.12h-.76v3.19h-3.38v-3.19h-.76v7.12h.76v-3.25h3.38v3.25h.76zm8.64 0v-7.12H91v7.12h.76zm-1.71-2.09c0-1.26-.87-2.1-2.2-2.1h-1.91v-2.93h-.76v7.12h2.67c1.32 0 2.2-.84 2.2-2.09zm-.77 0c0 .89-.55 1.41-1.5 1.41h-1.84v-2.83h1.84c.95 0 1.5.52 1.5 1.42zm8.87 2.09l-2.2-3.65L98 14.98h-.88l-1.58 2.81-1.58-2.81h-.88l2.04 3.47-2.18 3.65h.86l1.74-2.99 1.73 2.99h.88zM36.18 27.56v-.68H31.3v.68h2.06V34h.76v-6.44h2.06zM41.93 34v-.68h-3.66v-2.57h3.12v-.68h-3.12v-2.51h3.66v-.68h-4.42V34h4.42zm5.91 0l-2.2-3.65 2.05-3.47h-.88l-1.58 2.81-1.58-2.81h-.88l2.04 3.47L42.63 34h.86l1.74-2.99L46.96 34h.88zm6.08 0v-7.12h-.76v3.19h-3.38v-3.19h-.76V34h.76v-3.25h3.38V34h.76zm6.77-4.05c0-.87-.05-1.77-.67-2.39-.48-.48-1.12-.74-1.82-.74s-1.34.26-1.82.74c-.61.61-.67 1.48-.67 2.33v.55c0 1.42.02 2.23.67 2.88.48.48 1.11.74 1.82.74s1.34-.26 1.82-.74c.65-.65.67-1.46.67-2.88v-.49zm-.76.84c0 .82-.01 1.59-.5 2.08-.33.33-.76.51-1.23.51s-.9-.18-1.23-.51c-.46-.46-.5-1.16-.5-1.93v-.71c0-.98 0-1.72.5-2.22.33-.33.77-.51 1.23-.51.46 0 .9.18 1.23.51.47.47.5 1.21.5 2.05v.73zM66.99 34v-7.12h-3.92v2.89c0 2.96-.63 3.55-1.51 3.55h-.19V34h.36c1.36 0 2.08-1 2.08-4v-2.44h2.42V34h.76zm6.77-4.05c0-.87-.05-1.77-.67-2.39-.48-.48-1.12-.74-1.82-.74s-1.34.26-1.82.74c-.61.61-.67 1.48-.67 2.33v.55c0 1.42.02 2.23.67 2.88.48.48 1.11.74 1.82.74s1.34-.26 1.82-.74c.65-.65.67-1.46.67-2.88v-.49zm-.76.84c0 .82-.01 1.59-.5 2.08-.33.33-.76.51-1.23.51s-.9-.18-1.23-.51c-.46-.46-.5-1.16-.5-1.93v-.71c0-.98 0-1.72.5-2.22.33-.33.77-.51 1.23-.51.46 0 .9.18 1.23.51.47.47.5 1.21.5 2.05v.73zm6.9-3.23v-.68h-4.28V34h.76v-6.44h3.52zM86.34 34v-7.12h-.72L82 32.68v-5.8h-.76V34h.72l3.62-5.81V34h.76zm7.16 0v-7.12h-.72l-3.62 5.8v-5.8h-.76V34h.72l3.62-5.81V34h.76zm-1.09-8.83h-.64c-.04.49-.33.74-.82.74-.49 0-.78-.25-.82-.74h-.64c.06.89.63 1.26 1.46 1.26s1.4-.37 1.46-1.26z"/></g></symbol><symbol id="icon-telegram" viewBox="0 0 32 27"><path d="M29.84.177L1.494 11.11c-1.935.777-1.923 1.856-.353 2.337l7.07 2.206 2.705 8.294c.329.907.166 1.267 1.12 1.267.735 0 1.061-.335 1.471-.735.26-.255 1.808-1.76 3.535-3.438l7.353 5.433c1.353.746 2.33.36 2.667-1.257L31.89 2.47c.494-1.981-.756-2.88-2.05-2.293zM9.32 15.147L25.255 5.092c.795-.482 1.525-.223.926.309l-13.644 12.31-.532 5.667-2.685-8.233z"/></symbol><symbol id="icon-twitter" viewBox="0 0 32 26"><path d="M31.528 3.033a12.87 12.87 0 0 1-3.715 1.018A6.48 6.48 0 0 0 30.657.472a12.948 12.948 0 0 1-4.107 1.57 6.468 6.468 0 0 0-11.021 5.9A18.366 18.366 0 0 1 2.194 1.184a6.435 6.435 0 0 0-.875 3.252A6.465 6.465 0 0 0 4.197 9.82a6.45 6.45 0 0 1-2.93-.81v.082a6.473 6.473 0 0 0 5.189 6.343 6.503 6.503 0 0 1-2.922.11 6.475 6.475 0 0 0 6.042 4.492 12.976 12.976 0 0 1-8.033 2.77c-.522 0-1.037-.031-1.543-.091a18.304 18.304 0 0 0 9.916 2.906c11.898 0 18.403-9.856 18.403-18.404 0-.28-.005-.56-.018-.838a13.1 13.1 0 0 0 3.227-3.347z"/></symbol><symbol id="icon-up" viewBox="0 0 12 8"><path d="M1.41 8L6 3.41 10.59 8 12 6.58l-6-6-6 6L1.41 8z"/></symbol><symbol id="icon-viber" viewBox="0 0 31 31"><g><path d="M28.046 22.425c-.943-.759-1.951-1.44-2.943-2.136-1.978-1.39-3.788-1.498-5.264.738-.829 1.255-1.99 1.31-3.203.76-3.345-1.518-5.928-3.855-7.44-7.255-.67-1.504-.661-2.852.905-3.916.829-.563 1.664-1.229 1.597-2.458-.087-1.603-3.98-6.96-5.516-7.526C5.546.398 4.912.413 4.266.631.66 1.843-.831 4.807.598 8.317c4.265 10.47 11.771 17.76 22.103 22.208.59.254 1.244.355 1.575.446 2.352.024 5.108-2.243 5.904-4.492.766-2.164-.854-3.023-2.134-4.054zM16.46 1.706c7.554 1.161 11.038 4.753 12 12.36.089.703-.173 1.76.83 1.78 1.047.02.795-1.021.804-1.725C30.182 6.956 23.934.314 16.679.07c-.547.079-1.68-.378-1.75.85-.048.827.906.69 1.532.787z"/><path d="M17.938 3.792c-.726-.088-1.685-.43-1.855.578-.177 1.058.892.95 1.579 1.104 4.665 1.043 6.289 2.741 7.057 7.369.112.674-.11 1.724 1.036 1.55.85-.13.543-1.03.614-1.555.037-4.443-3.77-8.487-8.43-9.046z"/><path d="M18.367 7.425c-.485.012-.961.064-1.14.582-.267.775.296.96.87 1.052 1.913.307 2.92 1.436 3.111 3.344.052.518.38.938.881.878.693-.082.756-.7.735-1.285.034-2.144-2.39-4.623-4.457-4.571z"/></g></symbol><symbol id="icon-vk" viewBox="0 0 32 21"><path d="M.005 1.527c-.219-1.336 6.241-.509 6.241-.509s3.75 9.417 5.228 9.417c1.478 0 .766-7.985.766-7.985s-1.833-.478-1.833-1.21C10.407.51 12.24 0 12.24 0h5.393c.646 0 .903 1.05.903 1.75v8.558h1.478s1.316-2.115 2.354-4.263c1.038-2.149 2.3-5.027 2.3-5.027h6.267s1.15.032 1.013.986c-.186 1.299-4.356 7.466-5.228 9.576-.657 1.59 2.76 3.744 4.215 6.045.945 1.493 1.013 3.245 1.013 3.245h-7.445l-3.723-4.327s-.766-.318-1.368.127c-.603.446-.63 1.337-.63 1.337v2.863h-5.83s-4.461-1.527-8.239-8.208C.936 5.982.224 2.863.005 1.527z"/></symbol><symbol id="icon-whatsapp" viewBox="0 0 32 32"><path d="M16.172 0C7.579 0 .614 6.965.614 15.558c0 2.939.815 5.688 2.232 8.033L.038 31.938l8.614-2.758a15.49 15.49 0 0 0 7.52 1.935c8.592 0 15.557-6.965 15.557-15.557C31.73 6.965 24.764 0 16.172 0zm0 28.637c-2.657 0-5.131-.797-7.197-2.163l-5.026 1.61 1.633-4.858a13.009 13.009 0 0 1-2.49-7.668c0-7.213 5.867-13.08 13.08-13.08 7.212 0 13.08 5.867 13.08 13.08 0 7.212-5.868 13.08-13.08 13.08zm-3.65-19.514c-.251-.608-.444-.628-.834-.647a8.936 8.936 0 0 0-.436-.012c-.502 0-1.022.147-1.335.468-.382.39-1.335 1.304-1.335 3.18 0 1.877 1.367 3.69 1.557 3.944.19.255 2.665 4.161 6.515 5.757 3.005 1.244 3.897 1.133 4.583.983.997-.217 2.25-.952 2.568-1.842.317-.89.317-1.654.222-1.813-.095-.159-.35-.254-.73-.445-.382-.19-2.258-1.113-2.607-1.24-.35-.128-.673-.089-.942.283-.37.514-.728 1.041-1.023 1.354-.232.246-.606.28-.927.144-.422-.18-1.61-.594-3.067-1.893-1.133-1.01-1.899-2.259-2.121-2.64-.223-.382-.02-.61.152-.817.195-.237.376-.407.566-.63.19-.222.297-.341.425-.596.127-.254.041-.517-.054-.708-.096-.19-.86-2.066-1.176-2.83z"/></symbol><symbol id="icon-youtube" viewBox="0 0 24 24"><path d="M10 16.5v-9l6 4.5m4-7.6c-.6-.2-4.3-.4-8-.4s-7.4.19-8 .38C2.44 4.9 2 8.4 2 12c0 3.59.44 7.1 2 7.61.6.2 4.3.39 8 .39s7.4-.19 8-.39c1.56-.51 2-4.02 2-7.61 0-3.6-.44-7.09-2-7.6z"/></symbol></svg>