<?xml version="1.0" encoding="UTF-8" standalone="no"?>
<svg width="12px" height="20px" viewBox="0 0 12 20" version="1.1" xmlns="http://www.w3.org/2000/svg" xmlns:xlink="http://www.w3.org/1999/xlink">
    <!-- Generator: Sketch 3.8.3 (29802) - http://www.bohemiancoding.com/sketch -->
    <title>Shape</title>
    <desc>Created with Sketch.</desc>
    <defs></defs>
    <g id="Page-1" stroke="none" stroke-width="1" fill="none" fill-rule="evenodd">
        <path d="M10,15.4545455 L1.81818182,15.4545455 L1.81818182,2.72727273 L10,2.72727273 L10,15.4545455 Z M5.90909091,19.0909091 C5.15597534,19.0909091 4.54545455,18.4803883 4.54545455,17.7272727 C4.54545455,16.9741572 5.15597534,16.3636364 5.90909091,16.3636364 C6.66220648,16.3636364 7.27272727,16.9741572 7.27272727,17.7272727 C7.27272727,18.4803883 6.66220648,19.0909091 5.90909091,19.0909091 L5.90909091,19.0909091 Z M9.54545455,0 L2.27272727,0 C1.01753466,2.01858732e-16 0,1.01753466 0,2.27272727 L0,17.7272727 C0,18.9824653 1.01753466,20 2.27272727,20 L9.54545455,20 C10.8006472,20 11.8181818,18.9824653 11.8181818,17.7272727 L11.8181818,2.27272727 C11.8181818,1.01753466 10.8006472,4.03717464e-16 9.54545455,4.03717464e-16 L9.54545455,0 Z" id="Shape" fill="#000000"></path>
    </g>
</svg>