<?xml version="1.0" encoding="UTF-8" standalone="no"?>
<svg width="48px" height="40px" viewBox="0 0 48 40" version="1.1" xmlns="http://www.w3.org/2000/svg" xmlns:xlink="http://www.w3.org/1999/xlink">
    <!-- Generator: Sketch 3.8.3 (29802) - http://www.bohemiancoding.com/sketch -->
    <title>Shape</title>
    <desc>Created with Sketch.</desc>
    <defs></defs>
    <g id="Page-1" stroke="none" stroke-width="1" fill="none" fill-rule="evenodd">
        <path d="M46.6391611,30.4901608 C46.6234335,29.950856 47.5092531,30.2106152 47.5057017,29.5896283 C46.9877053,30.1157422 46.7553425,29.6702957 46.3504834,30.1832188 C45.6452776,29.4516312 44.8330226,28.719029 44.6331298,28.2806852 C44.2810342,27.5054662 43.8594328,26.7997531 43.0831991,26.7287252 C42.3069654,26.6576973 37.6607249,24.1651247 36.2421959,23.766861 C35.6922369,22.8668358 35.1574981,21.3585073 33.5583553,20.6030746 C32.6177427,20.1576281 32.2093322,20.2012595 32.2849262,21.9551418 C31.2276249,21.2504434 26.6554563,19.5366412 23.8290525,18.4773105 C18.1711715,16.3586492 12.0226905,15.9071146 8.81070658,13.8254892 C7.38558213,12.9011116 4.09242344,10.4790596 3.77787123,8.73532419 C3.4942669,7.16307048 5.49065874,5.16972269 5.3557057,3.52999247 C5.05941781,-0.0690936131 1.87533771,-0.825033599 0.278731578,0.848181216 C-0.417849362,1.57976877 0.425353495,3.93789566 0.306635403,4.89575787 C-0.0814814355,8.02605969 -0.197662816,9.45980895 1.01184116,11.7773485 C2.92807293,15.4474625 8.10702284,19.7456662 10.5747357,22.4985054 C13.0419411,25.2477931 15.5035658,27.1066952 16.4274361,27.5754795 C15.5147274,28.3821537 14.9952089,28.7931009 15.7734719,29.9675983 C16.4380903,30.9660479 17.1914936,32.0015335 18.5313845,31.9305055 C19.8717828,31.8594776 20.712449,31.235954 21.5044102,30.4668231 C22.4916983,30.6788922 27.867497,32.9355506 28.9166808,33.1445756 C27.4321974,33.8264436 26.4677397,37.6310033 26.3261912,38.8998663 C26.1846427,40.168222 27.4240799,40.1616266 28.7401257,39.7633629 C30.1586547,39.3316146 32.9647648,35.8776284 33.9855375,34.5544798 C35.8190725,35.1211811 43.4104349,35.1145857 43.9751068,35.2561341 C43.9213286,35.9308994 44.7782297,36.1104985 44.9162268,36.6021132 C45.135906,36.120138 44.2531304,35.8299383 44.514919,35.2287377 C46.6503226,34.8888183 47.7365424,33.016218 47.464607,31.7209732 C47.3930717,31.3805465 47.0572111,30.9452469 46.6391611,30.4901608 Z M33.0723214,20.9805373 C34.0778738,21.2671857 34.7374187,22.0875581 35.4745871,23.1935643 C34.7242278,22.8830708 33.3209191,22.2285993 32.7339241,21.9383995 C32.6060738,21.3681468 32.6938441,20.8724734 33.0723214,20.9805373 Z M0.742442415,1.17135824 C1.36292201,0.149570906 3.50136969,0.345405024 4.4399529,2.22409346 C4.9259868,3.19565391 4.93156756,4.26766813 4.17004681,5.67807965 C2.90169113,8.02555235 2.7657234,8.65364208 4.62868422,10.7890457 C1.80329511,9.07169211 0.0879708836,2.2474312 0.742442415,1.17135824 Z M0.557769828,6.39343226 C1.14983826,8.35735419 2.13306758,9.68608361 1.98390896,10.4014362 C1.87229366,10.9341456 1.97528414,11.8417809 2.08182602,12.5129947 C0.175741097,10.4014362 0.326929094,7.28077389 0.557769828,6.39343226 Z M17.8840158,31.2790781 C17.2330956,31.0360611 15.8987855,29.9366504 15.8987855,29.0122728 C15.8987855,28.5094966 16.0783846,28.3106184 16.5527497,28.0741969 C16.9931228,28.2796706 19.7373371,30.0979853 20.5688711,30.4759553 C19.369514,31.3769951 18.5521856,31.5322419 17.8840158,31.2790781 Z M28.6472821,39.0885977 C27.5849074,39.335166 27.0821312,39.4127894 26.9471781,39.2240581 C26.6640812,38.8293458 27.4986592,35.0004336 28.9171882,33.863987 C29.3220473,33.5397952 32.1012683,34.4469232 33.2889565,34.3393667 C32.8840974,34.8279373 30.0536349,38.7583179 28.6472821,39.0885977 Z M40.8722015,29.2654366 C39.5231784,30.9589451 37.7145032,31.3333637 36.7972284,31.0396125 C35.8794462,30.7504274 34.8170715,30.3618032 34.0804105,31.0396125 C33.3432422,31.7214805 34.1793422,33.1146424 32.7156598,33.2698891 C29.6934219,33.5935735 15.531977,27.4572687 12.2936113,23.3716414 C9.93041097,20.3925276 4.58099405,15.8051388 3.55007455,14.1791068 C2.79667128,12.9914185 2.48820718,10.2999678 3.06657737,10.8626103 C4.17309086,11.9422347 3.77837857,11.3917683 5.07666745,12.4647972 C6.64181836,13.7600421 9.13591297,15.8244178 16.3411879,16.9578204 C17.764283,17.1805437 19.7566161,17.7837736 21.9752239,18.5767496 C21.6616863,18.5092731 21.3273478,18.4590462 21.0077222,18.4590462 C20.4318887,18.4590462 20.0163754,18.6041461 19.7708217,18.8918091 C19.5658554,19.1307674 19.4933055,19.4544517 19.5552012,19.8496714 L19.5668701,19.9272947 L19.6257218,19.9805657 C20.7002727,20.9227003 22.8250222,21.3275594 24.0948999,21.570069 C24.4688111,21.6405896 24.7914808,21.705022 24.914765,21.7491608 L25.4515331,21.9515904 L25.1496645,21.3879331 C24.5748457,20.3113528 24.1172229,19.5249723 23.232418,19.0399531 C29.9684014,21.553834 38.1543689,25.4162308 39.3344471,25.9458961 C40.3592785,26.4050409 41.8183948,28.0747043 40.8722015,29.2654366 Z M22.7626191,19.2631837 C23.628145,19.6168012 24.0487317,20.2646773 24.5702796,21.2230469 C24.4540982,21.1997091 24.3211745,21.1758641 24.1755673,21.1454235 C22.9736735,20.9166122 20.979311,20.5345834 19.9712219,19.7081229 C19.9483915,19.4793115 19.9915156,19.2997123 20.0985648,19.1754135 C20.2979503,18.9425434 20.7023021,18.8923165 21.0072148,18.8923165 C21.6393633,18.8923165 22.3476131,19.0906873 22.7626191,19.2631837 Z" id="Shape" fill="#2962FF"></path>
    </g>
</svg>