<?xml version="1.0" encoding="UTF-8" standalone="no"?>
<svg width="47px" height="60px" viewBox="0 0 47 60" version="1.1" xmlns="http://www.w3.org/2000/svg" xmlns:xlink="http://www.w3.org/1999/xlink">
    <!-- Generator: Sketch 39.1 (31720) - http://www.bohemiancoding.com/sketch -->
    <title>Combined Shape</title>
    <desc>Created with Sketch.</desc>
    <defs></defs>
    <g id="Page-1" stroke="none" stroke-width="1" fill="none" fill-rule="evenodd">
        <path d="M16.4064063,50.8967824 C16.4012499,50.8820975 16.3958695,50.8669259 16.3902695,50.8512758 C16.1179564,50.7099988 15.9573077,50.5563178 15.9451371,50.3935491 C15.9288874,50.1756149 15.4617068,49.6757848 15.4617068,49.6757848 C15.4617068,49.6757848 11.3639703,44.4844694 8.50573259,40.2144136 C7.11934098,38.1432156 5.90329386,36.4196509 4.71593529,34.4899202 C6.14295121,36.7683843 7.7017895,38.8088092 9.0534023,40.5340225 C6.24644772,36.501576 3.3393152,31.6499999 3.38880603,25.4781219 C3.43233279,20.0514398 6.55591192,15.2945191 9.94781224,12.0619728 C14.5356892,7.68980083 20.6686579,4.86197459 29.0285576,5.80110204 C37.1084827,10.1846213 45.7491658,14.0068352 46.6951592,25.5242507 C46.5970973,26.1160094 46.5113549,26.5608709 46.469706,26.8197322 C46.1298479,28.9314452 46.0832569,34.9109613 31.8244236,44.8860293 C28.5700913,47.4476835 24.9103466,49.5277397 21.6708819,51.5548313 C21.5853715,51.6539349 21.5265301,51.7341525 21.4874984,51.7997348 C21.6323735,51.7991126 21.7801241,51.7982158 21.9310809,51.7973663 L21.931081,51.7973663 C21.931081,51.7973663 22.4197248,53.4718465 18.7621872,53.0499897 C15.5323251,52.6774645 16.2872063,50.8349821 16.2872063,50.8349821 C16.3270976,50.8560333 16.3668276,50.8766302 16.4064063,50.8967824 Z M20.2865674,51.6348584 C19.9384543,51.6353664 19.5740515,51.5907977 19.1551739,51.5351173 C19.0566308,51.5220167 18.9591496,51.508353 18.8629153,51.4941428 C19.2921777,51.802457 19.7738671,51.8258936 20.2865674,51.6348584 Z M46.1952109,13.0868225 C45.5833472,11.1918327 44.6309947,9.34852863 43.1902028,7.73898681 C43.0874699,7.62423002 42.9856064,7.51191928 42.884619,7.40200261 C39.8038067,5.8022665 34.5335866,4.73298077 29.7738992,5.80110204 C36.4568137,6.98202805 43.1937338,8.2629145 46.1952109,13.0868225 Z M39.923723,4.60982551 C37.5784728,2.75640834 36.0238021,2.42922267 35.4214004,2.37793321 C33.162607,3.09315982 31.3182964,4.22271866 29.6248309,5.5029654 C32.2799538,3.95347672 36.726925,3.49689123 39.923723,4.60982551 Z M32.0490802,1.65662611 C32.0206569,1.62378285 31.992395,1.58987988 31.9643136,1.55488729 C30.7751778,0.0733288694 29.1856658,-0.294390971 27.9707878,0.541061805 C28.9379018,1.55322516 29.4084889,3.31022202 29.3266942,5.05576043 C29.6349999,3.78842845 30.7527,2.32693391 32.0490802,1.65662611 Z M24.6529302,0.287916523 C24.4139711,0.212970137 24.1812988,0.156291056 23.9603892,0.136652453 C19.0494053,-0.300431106 18.9546294,0.446356095 17.7238095,0.496413103 C21.9354262,0.525701014 26.5689652,2.70377773 28.5813526,5.20482875 C27.8595464,2.97819306 26.7251487,1.16414338 24.6529302,0.287916523 Z M17.4779383,0.497164469 C17.477265,0.497143005 17.4765912,0.497121352 17.4759171,0.497099509 C13.2522177,0.360254937 12.0523649,2.66321101 10.9914451,3.11801891 C8.24381671,4.29550766 1.10135694,7.8373725 0.508067843,16.9810727 C0.42578183,18.2484537 -0.790020306,23.1416187 0.861804886,26.9841541 C1.69380855,28.91951 2.47488076,30.5225318 3.24337321,31.9431539 C1.42281909,28.4957062 0.108934408,24.6283611 0.258371247,20.5588672 C0.411165383,16.3968777 3.05236046,12.0050303 5.32669423,9.82594676 C6.78562397,8.42813206 9.19397269,7.16298935 11.4384955,6.09923869 C16.5016005,3.69983601 22.6600629,4.09531531 28.5813526,5.65203372 C24.5559119,2.97312793 17.1849319,0.824756006 11.2894271,3.11787223 C12.8043044,1.28609972 15.0612218,0.528976777 17.4779383,0.497164469 Z M31.8244236,44.8860293 C29.4842774,46.523128 26.7613235,48.2678472 23.5914396,50.1207515 C23.5914396,50.1207515 22.2310456,51.0651026 21.5888571,51.3559333 C21.1305894,51.5632961 20.7212796,51.634224 20.2865674,51.6348584 C23.3312164,50.5004034 27.4694718,41.8025357 28.2163269,40.2857155 C30.0971226,36.4649435 32.2653188,31.8581372 32.6883766,27.3167714 C33.4328267,19.3255164 30.7044232,11.8594307 28.8126002,6 C31.1769763,7.70206316 33.7018938,11.0544628 35.6697431,13.9006223 C38.0148852,17.2928229 40.5059656,21.0268324 40.8871344,25.9751565 C41.579636,34.9655505 37.2695136,40.5999158 31.8244236,44.8860293 Z M18.8629153,51.4941428 C17.8073556,51.338276 16.9018008,51.1166603 16.3902695,50.8512758 C15.8530994,49.3500881 13.294235,43.4467178 12.4150849,40.4347838 C11.2168746,36.3294408 9.77314816,32.6203246 10.0299917,27.4658397 C10.3112826,21.8227111 12.9846725,15.8982871 16.1417929,12.5590074 C19.2371989,9.28472214 23.7857206,7.4049682 28.8126004,6 C28.1915794,6.7205997 27.4113544,7.29421342 27.1481011,7.61500964 C19.5597783,16.8641013 19.8419653,35.3839026 18.8215925,51.463456 C18.8353119,51.4739821 18.8490864,51.4842103 18.8629153,51.4941428 Z M20.7674537,58.4735419 C20.6413407,59.2840281 19.747827,59.8178407 18.7715767,59.6660884 L16.7096636,59.3454423 C15.7334135,59.19369 15.0439725,58.4140655 15.1700855,57.6034338 L15.5882211,54.9131982 C15.7143341,54.102712 16.6078478,53.5687537 17.584098,53.720506 L19.6460112,54.0411521 C20.6222613,54.1929044 21.3117023,54.9728291 21.1855893,55.7833154 L20.7674537,58.4735419 L20.7674537,58.4735419 Z M18.2126139,56.3639808 C19.4638944,56.5691461 20.5538368,56.274517 20.6470683,55.7059083 C20.7402999,55.1372995 19.8015157,54.5100316 18.5502352,54.3048663 C17.2989547,54.0997009 16.2090123,54.39433 16.1157808,54.9629388 C16.0225492,55.5315475 16.9613334,56.1588154 18.2126139,56.3639808 Z" id="Combined-Shape" fill="#0000FF"></path>
    </g>
</svg>