<svg width="895" height="470" xmlns="http://www.w3.org/2000/svg">
 <!-- Generator: Sketch 3.8.3 (29802) - http://www.bohemiancoding.com/sketch -->
 <title>Artboard 2 Copy</title>
 <desc>Created with Sketch.</desc>
 <defs>
  <filter id="svg_7_blur">
   <feGaussianBlur stdDeviation="0"/>
  </filter>
 </defs>
 <g>
  <title>background</title>
  <rect x="-1" y="-1" width="897" height="472" id="canvas_background" fill="#ff5656"/>
 </g>
 <g>
  <title>Layer 1</title>
  <g id="Page-1" fill="none" fill-rule="evenodd">
   <g id="Artboard-2-Copy">
    <rect x="-2" y="0" id="Rectangle-10" fill="#03152C" width="923" height="488"/>
    <text font-weight="bold" fill="#f40a54" stroke-width="0" x="59" y="239" id="svg_7" font-size="18" font-family="'Times New Roman', Times, serif" text-anchor="start" xml:space="preserve" filter="url(#svg_7_blur)">ул. Доброделова, д.7</text>
    <rect id="Rectangle-14" fill="#F5F5F5" transform="rotate(-3 -2.0000000000000004,-6.508275481317795e-12) " x="-53.184846" y="203.05342" width="499" height="6"/>
    <rect id="Rectangle-12" fill="#616C7B" x="850" y="-30.000015" width="6" height="435.000017"/>
    <rect stroke="null" id="Rectangle-15" fill="#616C7B" transform="rotate(-2 653.5294189453124,107.84182739257736) " x="455.061544" y="104.841829" width="396.935695" height="6"/>
    <path d="m-40,360l805,33.92203c0,0 121,11.69589 137,1.94931c16,-9.74658 61,-81.87134 61,-81.87134l2,33.1384c0,0 -37,69.16571 -60,80.8616c-23,11.69589 -140,-3 -140,-3l-805,-30l0,-35z" id="Path-11" fill="#1047DE"/>
    <g id="Group">
     <circle id="Oval-2" fill="#F9F9F9" cx="484.5" cy="180.5" r="12.5"/>
     <path d="m489.01529,175.43469c1.14566,1.09516 1.8533,2.61997 1.8533,4.28791c0,2.78839 -1.97122,5.14721 -4.65018,5.86322l0,0l0.48868,0.58975l4.02677,0c1.40679,-1.44898 2.26614,-3.39487 2.26614,-5.51789c0,-3.52136 -2.35873,-6.52883 -5.64416,-7.65768l-2.85578,9.09815l-2.85589,-9.09815c-3.28544,1.12885 -5.64417,4.13632 -5.64417,7.65768c0,2.12302 0.85934,4.06891 2.26614,5.51789l4.01841,0l0.49704,-0.58975l-0.00837,0c-2.67898,-0.71601 -4.6502,-3.07483 -4.6502,-5.86322c0,-1.66806 0.70764,-3.18439 1.85333,-4.28791c0.10953,-0.12637 0.32849,-0.19375 0.53921,-0.16006c0.21058,0.04214 0.41282,0.18539 0.51389,0.49704l3.1507,10.03323c0.10104,0.00849 0.2106,0.00849 0.32012,0.00849c0.10953,0 0.21061,0 0.32013,-0.00849l3.15058,-10.04172c0.08423,-0.25274 0.26114,-0.4212 0.47186,-0.48007c0.18485,-0.04217 0.38705,0 0.57245,0.15158l0,0l0,0z" id="Shape" fill="#2962FF"/>
    </g>
    <circle id="Oval-5" fill="#F40A54" cx="100.5" cy="189" r="4.5"/>
    <rect id="Rectangle-16" fill="#FFEE03" transform="rotate(-2 513.0000000000013,427.0000000000011) " x="451.021246" y="-119.755768" width="18.15" height="640.283302"/>
    <path id="svg_1" d="m136.000001,134.901582l-9.591433,-9.56592l0,-22.846366l-8.22257,0l0,14.645667l-19.185998,-19.134964l-37.000001,36.901582l8.808331,-0.209313l0,37.307712l55.991789,0l0,-37.098399l9.199882,0zm-37.000001,31.762478l-18.271335,0l0,-21.86853l18.271335,0l0,21.86853zm17.751355,-9.372227l-12.006519,0l0,-12.627514l12.006519,0l0,12.627514z" stroke-width="null" fill="#f40a54"/>
   </g>
  </g>
 </g>
</svg>