<?xml version="1.0" encoding="UTF-8" standalone="no"?>
<svg width="895px" height="470px" viewBox="0 0 895 470" version="1.1" xmlns="http://www.w3.org/2000/svg" xmlns:xlink="http://www.w3.org/1999/xlink">
    <!-- Generator: Sketch 3.8.3 (29802) - http://www.bohemiancoding.com/sketch -->
    <title>Artboard 2 Copy</title>
    <desc>Created with Sketch.</desc>
    <defs></defs>
    <g id="Page-1" stroke="none" stroke-width="1" fill="none" fill-rule="evenodd">
        <g id="Artboard-2-Copy">
            <rect id="Rectangle-10" fill="#03152C" x="0" y="0" width="923" height="488"></rect>
            <rect id="Rectangle-16" fill="#616C7B" x="507" y="408" width="6" height="68"></rect>
            <rect id="Rectangle-14" fill="#F5F5F5" transform="translate(198.315077, 206.053710) rotate(-3.000000) translate(-198.315077, -206.053710) " x="-51.1849232" y="203.05371" width="499" height="6"></rect>
            <rect id="Rectangle-12" fill="#616C7B" x="444" y="72" width="6" height="331"></rect>
            <rect id="Rectangle-12" fill="#F5F5F5" x="341" y="199" width="2" height="200"></rect>
            <rect id="Rectangle-15" fill="#616C7B" transform="translate(651.000000, 108.000000) rotate(-2.000000) translate(-651.000000, -108.000000) " x="448" y="105" width="406" height="6"></rect>
            <polygon id="Path-10" fill="#1E57F2" points="-21 92 21 89 35 57 54 56 80 77 335 82 662 -63 749 -62 354 121 68 118 35 138 -25 130"></polygon>
            <path d="M-38,360 L767,393.922027 C767,393.922027 888,405.617934 904,395.871345 C920,386.124756 965,314 965,314 L967,347.138402 C967,347.138402 930,416.304094 907,428 C884,439.695906 767,425 767,425 L-38,395 L-38,360 Z" id="Path-11" fill="#1047DE"></path>
            <path d="M561.308716,396.532219 C557.276716,396.532219 555.206716,397.882219 555.206716,402.976219 C555.206716,408.142219 557.276716,409.636219 561.308716,409.636219 C565.322716,409.636219 567.410716,408.142219 567.410716,402.976219 C567.410716,397.882219 565.322716,396.532219 561.308716,396.532219 L561.308716,396.532219 Z M561.308716,406.990219 C558.770716,406.990219 558.302716,406.486219 558.302716,403.012219 C558.302716,399.592219 558.770716,399.196219 561.308716,399.196219 C563.846716,399.196219 564.314716,399.592219 564.314716,403.012219 C564.314716,406.486219 563.846716,406.990219 561.308716,406.990219 L561.308716,406.990219 Z M571.946716,404.956219 C571.946716,403.138219 572.198716,402.652219 573.494716,402.652219 C574.718716,402.652219 575.096716,403.030219 575.096716,404.938219 C575.096716,407.242219 574.664716,407.440219 573.440716,407.440219 C572.396716,407.440219 571.946716,407.026219 571.946716,404.956219 L571.946716,404.956219 Z M571.946716,401.302219 C572.126716,399.898219 572.432716,399.178219 574.034716,399.052219 C575.528716,398.926219 576.644716,398.782219 577.418716,398.440219 L577.418716,396.064219 C576.428716,396.442219 575.258716,396.622219 573.854716,396.730219 C570.398716,396.982219 569.156716,397.882219 569.156716,403.966219 C569.156716,408.754219 570.740716,409.636219 573.350716,409.636219 C576.482716,409.636219 577.904716,408.592219 577.904716,404.884219 C577.904716,401.194219 576.518716,400.330219 574.214716,400.330219 C573.260716,400.330219 572.432716,400.654219 571.946716,401.302219 L571.946716,401.302219 Z M582.674716,407.332219 L582.674716,405.622219 L584.906716,405.622219 C585.446716,405.622219 585.734716,405.838219 585.734716,406.522219 C585.734716,407.152219 585.482716,407.332219 584.978716,407.332219 L582.674716,407.332219 Z M582.674716,402.220219 L584.888716,402.220219 C585.356716,402.220219 585.572716,402.382219 585.572716,402.958219 C585.572716,403.498219 585.356716,403.696219 584.888716,403.696219 L582.674716,403.696219 L582.674716,402.220219 Z M586.202716,404.542219 C588.038716,404.416219 588.416716,403.678219 588.416716,402.382219 C588.416716,400.942219 587.876716,400.168219 585.770716,400.168219 L579.902716,400.168219 L579.902716,409.384219 L585.824716,409.384219 C587.534716,409.384219 588.596716,408.754219 588.596716,406.900219 C588.596716,405.460219 588.146716,404.614219 586.202716,404.542219 L586.202716,404.542219 Z M594.698716,409.636219 C597.704716,409.636219 599.198716,408.502219 599.198716,404.722219 C599.198716,400.960219 597.686716,399.916219 594.698716,399.916219 C591.764716,399.916219 590.234716,400.960219 590.234716,404.722219 C590.234716,408.502219 591.728716,409.636219 594.698716,409.636219 L594.698716,409.636219 Z M594.698716,402.076219 C596.012716,402.076219 596.390716,402.364219 596.390716,404.776219 C596.390716,407.098219 596.012716,407.476219 594.698716,407.476219 C593.402716,407.476219 593.024716,407.098219 593.024716,404.776219 C593.024716,402.364219 593.402716,402.076219 594.698716,402.076219 L594.698716,402.076219 Z M602.960716,400.168219 C602.834716,402.382219 602.384716,404.740219 601.790716,407.008219 L600.062716,407.008219 L600.674716,412.048219 L602.942716,412.048219 L602.942716,409.384219 L609.404716,409.384219 L609.404716,412.048219 L611.654716,412.048219 L612.266716,407.008219 L610.448716,407.008219 L610.448716,400.168219 L602.960716,400.168219 Z M607.694716,402.544219 L607.694716,407.008219 L604.670716,407.008219 C605.084716,405.442219 605.372716,403.822219 605.462716,402.544219 L607.694716,402.544219 Z M619.214716,405.766219 L619.214716,409.384219 L621.968716,409.384219 L621.968716,400.186219 L619.214716,400.186219 L619.214716,403.408219 L616.262716,403.408219 L616.262716,400.186219 L613.508716,400.186219 L613.508716,409.384219 L616.262716,409.384219 L616.262716,405.766219 L619.214716,405.766219 Z M629.402716,407.440219 L627.116716,407.440219 L627.116716,405.406219 L629.348716,405.406219 C629.888716,405.406219 630.194716,405.712219 630.194716,406.414219 C630.194716,407.116219 629.906716,407.440219 629.402716,407.440219 L629.402716,407.440219 Z M627.116716,403.336219 L627.116716,400.186219 L624.362716,400.186219 L624.362716,409.384219 L630.194716,409.384219 C632.012716,409.384219 633.056716,408.628219 633.056716,406.378219 C633.056716,404.398219 632.012716,403.336219 630.194716,403.336219 L627.116716,403.336219 Z M636.638716,400.186219 L633.866716,400.186219 L633.866716,409.384219 L636.638716,409.384219 L636.638716,400.186219 Z M644.900716,409.384219 L647.654716,409.384219 L647.654716,400.186219 L644.900716,400.186219 C644.036716,401.806219 642.776716,404.002219 641.768716,405.226219 L641.768716,400.186219 L639.014716,400.186219 L639.014716,409.384219 L641.768716,409.384219 C642.848716,407.980219 643.964716,406.306219 644.900716,404.560219 L644.900716,409.384219 Z M640.472716,396.838219 C640.472716,398.620219 641.516716,399.412219 643.298716,399.412219 C645.116716,399.412219 646.124716,398.620219 646.124716,396.838219 L644.432716,396.838219 C644.432716,397.522219 644.126716,397.720219 643.568716,397.756219 C643.514716,397.774219 643.442716,397.774219 643.370716,397.774219 C642.632716,397.774219 642.272716,397.612219 642.272716,396.838219 L640.472716,396.838219 Z M663.998716,409.384219 C662.360716,405.424219 661.532716,404.758219 660.632716,404.398219 C661.082716,404.020219 662.252716,402.562219 663.818716,400.168219 L660.632716,400.168219 C659.318716,402.094219 658.112716,403.768219 657.446716,404.596219 L657.446716,400.168219 L654.674716,400.168219 L654.674716,409.384219 L657.446716,409.384219 L657.446716,405.226219 C658.562716,405.514219 659.498716,406.270219 660.830716,409.384219 L663.998716,409.384219 Z M673.214716,403.498219 C673.214716,400.762219 671.918716,399.916219 669.164716,399.916219 C667.796716,399.916219 666.266716,400.132219 665.204716,400.402219 L665.636716,402.598219 C666.410716,402.364219 667.436716,402.220219 668.498716,402.220219 C670.298716,402.220219 670.586716,402.526219 670.586716,403.804219 C669.884716,403.660219 669.182716,403.570219 668.498716,403.570219 C666.302716,403.570219 664.898716,403.984219 664.898716,406.576219 C664.898716,408.988219 665.798716,409.636219 668.840716,409.636219 C670.190716,409.636219 671.972716,409.366219 673.214716,408.916219 L673.214716,403.498219 Z M670.586716,407.332219 C670.154716,407.494219 669.578716,407.584219 669.056716,407.584219 C667.976716,407.584219 667.742716,407.422219 667.742716,406.486219 C667.742716,405.568219 668.102716,405.460219 669.092716,405.460219 C669.650716,405.460219 670.172716,405.478219 670.586716,405.586219 L670.586716,407.332219 Z M681.206716,405.766219 L681.206716,409.384219 L683.960716,409.384219 L683.960716,400.186219 L681.206716,400.186219 L681.206716,403.408219 L678.254716,403.408219 L678.254716,400.186219 L675.500716,400.186219 L675.500716,409.384219 L678.254716,409.384219 L678.254716,405.766219 L681.206716,405.766219 Z M694.310716,403.498219 C694.310716,400.762219 693.014716,399.916219 690.260716,399.916219 C688.892716,399.916219 687.362716,400.132219 686.300716,400.402219 L686.732716,402.598219 C687.506716,402.364219 688.532716,402.220219 689.594716,402.220219 C691.394716,402.220219 691.682716,402.526219 691.682716,403.804219 C690.980716,403.660219 690.278716,403.570219 689.594716,403.570219 C687.398716,403.570219 685.994716,403.984219 685.994716,406.576219 C685.994716,408.988219 686.894716,409.636219 689.936716,409.636219 C691.286716,409.636219 693.068716,409.366219 694.310716,408.916219 L694.310716,403.498219 Z M691.682716,407.332219 C691.250716,407.494219 690.674716,407.584219 690.152716,407.584219 C689.072716,407.584219 688.838716,407.422219 688.838716,406.486219 C688.838716,405.568219 689.198716,405.460219 690.188716,405.460219 C690.746716,405.460219 691.268716,405.478219 691.682716,405.586219 L691.682716,407.332219 Z M702.176716,402.544219 L702.176716,409.384219 L704.930716,409.384219 L704.930716,400.168219 L697.442716,400.168219 C697.244716,403.300219 696.704716,406.738219 695.930716,409.384219 L698.828716,409.384219 C699.422716,407.440219 699.890716,404.902219 700.052716,402.544219 L702.176716,402.544219 Z" id="Обводный-канал" fill="#FFFFFF" transform="translate(630.662716, 404.056219) rotate(2.000000) translate(-630.662716, -404.056219) "></path>
            <path d="M401.338112,51.8896179 C401.662112,51.7636179 402.256112,51.6736179 402.742112,51.6736179 C404.056112,51.6736179 404.488112,52.0696179 404.488112,54.3016179 C404.488112,56.2456179 404.074112,56.8216179 402.760112,56.8216179 C401.950112,56.8216179 401.338112,56.5336179 401.338112,56.1196179 L401.338112,51.8896179 Z M398.566112,62.2936179 L401.338112,62.2936179 L401.338112,58.6756179 C401.842112,58.8916179 402.454112,59.0896179 403.354112,59.0896179 C405.640112,59.0896179 407.260112,57.9556179 407.260112,54.2296179 C407.260112,50.4676179 405.874112,49.3696179 402.742112,49.3696179 C401.302112,49.3696179 399.556112,49.6396179 398.566112,50.0176179 L398.566112,62.2936179 Z M410.788112,55.8856179 C409.564112,55.8856179 409.150112,56.1016179 409.150112,57.3616179 C409.150112,58.7296179 409.564112,58.9636179 410.788112,58.9636179 C412.048112,58.9636179 412.444112,58.7296179 412.444112,57.3616179 C412.444112,56.1016179 412.048112,55.8856179 410.788112,55.8856179 L410.788112,55.8856179 Z M424.000112,46.2916179 L424.000112,47.7316179 C419.824112,47.9476179 418.726112,49.2976179 418.726112,52.5376179 C418.726112,55.7776179 419.824112,57.1456179 424.000112,57.3616179 L424.000112,58.8376179 L426.898112,58.8376179 L426.898112,57.3436179 C431.110112,57.1276179 432.352112,55.7776179 432.352112,52.5376179 C432.352112,49.3156179 431.128112,47.9476179 426.898112,47.7316179 L426.898112,46.2916179 L424.000112,46.2916179 Z M429.364112,52.5376179 C429.364112,54.3376179 429.076112,54.9316179 426.898112,55.0036179 L426.898112,50.1076179 C429.076112,50.1616179 429.364112,50.7376179 429.364112,52.5376179 L429.364112,52.5376179 Z M421.660112,52.5376179 C421.660112,50.7556179 421.984112,50.1796179 424.000112,50.1076179 L424.000112,55.0036179 C421.984112,54.9136179 421.660112,54.3016179 421.660112,52.5376179 L421.660112,52.5376179 Z M438.328112,59.0896179 C441.334112,59.0896179 442.828112,57.9556179 442.828112,54.1756179 C442.828112,50.4136179 441.316112,49.3696179 438.328112,49.3696179 C435.394112,49.3696179 433.864112,50.4136179 433.864112,54.1756179 C433.864112,57.9556179 435.358112,59.0896179 438.328112,59.0896179 L438.328112,59.0896179 Z M438.328112,51.5296179 C439.642112,51.5296179 440.020112,51.8176179 440.020112,54.2296179 C440.020112,56.5516179 439.642112,56.9296179 438.328112,56.9296179 C437.032112,56.9296179 436.654112,56.5516179 436.654112,54.2296179 C436.654112,51.8176179 437.032112,51.5296179 438.328112,51.5296179 L438.328112,51.5296179 Z M450.550112,55.2196179 L450.550112,58.8376179 L453.304112,58.8376179 L453.304112,49.6396179 L450.550112,49.6396179 L450.550112,52.8616179 L447.598112,52.8616179 L447.598112,49.6396179 L444.844112,49.6396179 L444.844112,58.8376179 L447.598112,58.8376179 L447.598112,55.2196179 L450.550112,55.2196179 Z M460.270112,51.9976179 L463.222112,51.9976179 L463.222112,49.6216179 L454.546112,49.6216179 L454.546112,51.9976179 L457.516112,51.9976179 L457.516112,58.8376179 L460.270112,58.8376179 L460.270112,51.9976179 Z M472.420112,52.9516179 C472.420112,50.2156179 471.124112,49.3696179 468.370112,49.3696179 C467.002112,49.3696179 465.472112,49.5856179 464.410112,49.8556179 L464.842112,52.0516179 C465.616112,51.8176179 466.642112,51.6736179 467.704112,51.6736179 C469.504112,51.6736179 469.792112,51.9796179 469.792112,53.2576179 C469.090112,53.1136179 468.388112,53.0236179 467.704112,53.0236179 C465.508112,53.0236179 464.104112,53.4376179 464.104112,56.0296179 C464.104112,58.4416179 465.004112,59.0896179 468.046112,59.0896179 C469.396112,59.0896179 471.178112,58.8196179 472.420112,58.3696179 L472.420112,52.9516179 Z M469.792112,56.7856179 C469.360112,56.9476179 468.784112,57.0376179 468.262112,57.0376179 C467.182112,57.0376179 466.948112,56.8756179 466.948112,55.9396179 C466.948112,55.0216179 467.308112,54.9136179 468.298112,54.9136179 C468.856112,54.9136179 469.378112,54.9316179 469.792112,55.0396179 L469.792112,56.7856179 Z M480.412112,55.2196179 L480.412112,58.8376179 L483.166112,58.8376179 L483.166112,49.6396179 L480.412112,49.6396179 L480.412112,52.8616179 L477.460112,52.8616179 L477.460112,49.6396179 L474.706112,49.6396179 L474.706112,58.8376179 L477.460112,58.8376179 L477.460112,55.2196179 L480.412112,55.2196179 Z M494.884112,58.8376179 C493.246112,54.8776179 492.418112,54.2116179 491.518112,53.8516179 C491.968112,53.4736179 493.138112,52.0156179 494.704112,49.6216179 L491.518112,49.6216179 C490.204112,51.5476179 488.998112,53.2216179 488.332112,54.0496179 L488.332112,49.6216179 L485.560112,49.6216179 L485.560112,58.8376179 L488.332112,58.8376179 L488.332112,54.6796179 C489.448112,54.9676179 490.384112,55.7236179 491.716112,58.8376179 L494.884112,58.8376179 Z M504.100112,52.9516179 C504.100112,50.2156179 502.804112,49.3696179 500.050112,49.3696179 C498.682112,49.3696179 497.152112,49.5856179 496.090112,49.8556179 L496.522112,52.0516179 C497.296112,51.8176179 498.322112,51.6736179 499.384112,51.6736179 C501.184112,51.6736179 501.472112,51.9796179 501.472112,53.2576179 C500.770112,53.1136179 500.068112,53.0236179 499.384112,53.0236179 C497.188112,53.0236179 495.784112,53.4376179 495.784112,56.0296179 C495.784112,58.4416179 496.684112,59.0896179 499.726112,59.0896179 C501.076112,59.0896179 502.858112,58.8196179 504.100112,58.3696179 L504.100112,52.9516179 Z M501.472112,56.7856179 C501.040112,56.9476179 500.464112,57.0376179 499.942112,57.0376179 C498.862112,57.0376179 498.628112,56.8756179 498.628112,55.9396179 C498.628112,55.0216179 498.988112,54.9136179 499.978112,54.9136179 C500.536112,54.9136179 501.058112,54.9316179 501.472112,55.0396179 L501.472112,56.7856179 Z" id="р.-Фонтанка" fill="#FFFFFF" transform="translate(451.882112, 54.292618) rotate(-25.000000) translate(-451.882112, -54.292618) "></path>
            <g id="Group" transform="translate(861.000000, 64.000000)">
                <circle id="Oval-2" fill="#F9F9F9" cx="12.5" cy="12.5" r="12.5"></circle>
                <path d="M17.0152837,7.43468784 C18.1609616,8.52983553 18.8686022,10.0546532 18.8686022,11.7225855 C18.8686022,14.510985 16.8973798,16.8698231 14.2184082,17.5858311 L14.2184082,17.5858311 L14.7070845,18.1755678 L18.7338549,18.1755678 C20.1406601,16.7265998 21,14.7806969 21,12.6576665 C21,9.13630698 18.6412705,6.12883451 15.3558274,5 L12.5000543,14.0981584 L9.64417256,5 C6.35872949,6.12883451 4,9.13630698 4,12.6576665 C4,14.7806969 4.85933994,16.7265998 6.26614506,18.1755678 L10.2845482,18.1755678 L10.7815918,17.5858311 L10.7732244,17.5858311 C8.09425279,16.8698231 6.12303041,14.510985 6.12303041,11.7225855 C6.12303041,10.0545445 6.83067099,8.5382029 7.97634891,7.43468784 C8.08588541,7.30830792 8.30484975,7.24093428 8.51555539,7.2746211 C8.72615235,7.31678396 8.92838195,7.46000729 9.02944241,7.77166472 L12.1801382,17.8049041 C12.2811987,17.8133801 12.3907352,17.8133801 12.5002717,17.8133801 C12.6098082,17.8133801 12.7108686,17.8133801 12.8204051,17.8049041 L15.9709923,7.76318868 C16.0552093,7.51042885 16.2321195,7.34199475 16.4428251,7.28309714 C16.6276679,7.24093428 16.8298975,7.28309714 17.0152837,7.43468784 L17.0152837,7.43468784 L17.0152837,7.43468784 Z" id="Shape" fill="#2962FF"></path>
            </g>
            <path d="M717.48,74.0673825 L717.48,66.8393825 L720.496,66.8393825 L720.496,65.0063825 L712.345,65.0063825 L712.345,66.8393825 L715.374,66.8393825 L715.374,74.0673825 L717.48,74.0673825 Z M725.046,72.3643825 C724.552,72.4943825 723.681,72.5853825 723.2,72.5853825 C722.238,72.5853825 721.757,72.3903825 721.731,71.3243825 L725.8,71.3243825 C725.982,67.9053825 725.02,67.2293825 722.81,67.2293825 C720.899,67.2293825 719.677,68.0223825 719.677,70.7003825 C719.677,73.4303825 721.068,74.2493825 722.94,74.2493825 C723.694,74.2493825 724.682,74.1063825 725.345,73.8853825 L725.046,72.3643825 Z M722.953,68.7373825 C723.733,68.7373825 724.032,68.9323825 724.058,69.8553825 L721.744,69.8553825 C721.861,69.0103825 722.121,68.7373825 722.953,68.7373825 L722.953,68.7373825 Z M733.184,74.0673825 C732.625,73.1833825 731.767,71.9223825 730.909,70.7003825 C731.78,69.4783825 732.651,68.2303825 733.171,67.4243825 L731,67.4243825 C730.727,67.8533825 730.337,68.4903825 729.843,69.1793825 C729.362,68.5033825 728.894,67.8533825 728.543,67.4243825 L726.255,67.4243825 C726.879,68.1783825 727.841,69.4523825 728.764,70.7523825 C727.802,72.0653825 726.814,73.3783825 726.229,74.0673825 L728.4,74.0673825 C728.764,73.6253825 729.245,72.9883825 729.791,72.2473825 C730.272,72.9363825 730.701,73.5733825 730.987,74.0673825 L733.184,74.0673825 Z M738.046,71.4543825 L738.046,74.0673825 L740.035,74.0673825 L740.035,67.4243825 L738.046,67.4243825 L738.046,69.7513825 L735.914,69.7513825 L735.914,67.4243825 L733.925,67.4243825 L733.925,74.0673825 L735.914,74.0673825 L735.914,71.4543825 L738.046,71.4543825 Z M744.728,74.2493825 C746.899,74.2493825 747.978,73.4303825 747.978,70.7003825 C747.978,67.9833825 746.886,67.2293825 744.728,67.2293825 C742.609,67.2293825 741.504,67.9833825 741.504,70.7003825 C741.504,73.4303825 742.583,74.2493825 744.728,74.2493825 L744.728,74.2493825 Z M744.728,68.7893825 C745.677,68.7893825 745.95,68.9973825 745.95,70.7393825 C745.95,72.4163825 745.677,72.6893825 744.728,72.6893825 C743.792,72.6893825 743.519,72.4163825 743.519,70.7393825 C743.519,68.9973825 743.792,68.7893825 744.728,68.7893825 L744.728,68.7893825 Z M753.464,69.1273825 L753.464,74.0673825 L755.453,74.0673825 L755.453,67.4113825 L750.045,67.4113825 C749.902,69.6733825 749.512,72.1563825 748.953,74.0673825 L751.046,74.0673825 C751.475,72.6633825 751.813,70.8303825 751.93,69.1273825 L753.464,69.1273825 Z M760.133,74.2493825 C762.304,74.2493825 763.383,73.4303825 763.383,70.7003825 C763.383,67.9833825 762.291,67.2293825 760.133,67.2293825 C758.014,67.2293825 756.909,67.9833825 756.909,70.7003825 C756.909,73.4303825 757.988,74.2493825 760.133,74.2493825 L760.133,74.2493825 Z M760.133,68.7893825 C761.082,68.7893825 761.355,68.9973825 761.355,70.7393825 C761.355,72.4163825 761.082,72.6893825 760.133,72.6893825 C759.197,72.6893825 758.924,72.4163825 758.924,70.7393825 C758.924,68.9973825 759.197,68.7893825 760.133,68.7893825 L760.133,68.7893825 Z M766.841,69.1273825 L769.649,69.1273825 L769.649,67.4113825 L764.839,67.4113825 L764.839,74.0673825 L766.841,74.0673825 L766.841,69.1273825 Z M774.771,74.0673825 L776.76,74.0673825 L776.76,67.4243825 L774.771,67.4243825 C774.147,68.5943825 773.237,70.1803825 772.509,71.0643825 L772.509,67.4243825 L770.52,67.4243825 L770.52,74.0673825 L772.509,74.0673825 C773.289,73.0533825 774.095,71.8443825 774.771,70.5833825 L774.771,74.0673825 Z M778.073,69.1663825 C778.073,71.6753825 778.996,72.1303825 780.426,72.1303825 C781.024,72.1303825 781.726,71.9353825 782.194,71.7143825 L782.194,74.0673825 L784.196,74.0673825 L784.196,67.4113825 L782.194,67.4113825 L782.194,69.9463825 C782.194,70.2193825 781.726,70.3623825 781.206,70.3623825 C780.543,70.3623825 780.075,70.1543825 780.075,69.0363825 L780.075,67.4113825 L778.073,67.4113825 L778.073,69.1663825 Z M791.021,72.3643825 C790.527,72.4943825 789.656,72.5853825 789.175,72.5853825 C788.213,72.5853825 787.732,72.3903825 787.706,71.3243825 L791.775,71.3243825 C791.957,67.9053825 790.995,67.2293825 788.785,67.2293825 C786.874,67.2293825 785.652,68.0223825 785.652,70.7003825 C785.652,73.4303825 787.043,74.2493825 788.915,74.2493825 C789.669,74.2493825 790.657,74.1063825 791.32,73.8853825 L791.021,72.3643825 Z M788.928,68.7373825 C789.708,68.7373825 790.007,68.9323825 790.033,69.8553825 L787.719,69.8553825 C787.836,69.0103825 788.096,68.7373825 788.928,68.7373825 L788.928,68.7373825 Z M797.872,72.2343825 C797.495,72.3903825 796.936,72.5333825 796.364,72.5333825 C795.389,72.5333825 794.895,72.2993825 794.895,70.7393825 C794.895,69.1013825 795.389,68.9323825 796.364,68.9323825 C796.91,68.9323825 797.495,69.0623825 797.872,69.2053825 L798.288,67.5153825 C797.768,67.3333825 796.884,67.2293825 796.195,67.2293825 C794.219,67.2293825 792.88,67.9963825 792.88,70.7003825 C792.88,73.4303825 794.206,74.2493825 796.195,74.2493825 C796.858,74.2493825 797.755,74.1323825 798.288,73.9113825 L797.872,72.2343825 Z M806.01,74.0673825 C804.827,71.2073825 804.229,70.7263825 803.579,70.4663825 C803.904,70.1933825 804.749,69.1403825 805.88,67.4113825 L803.579,67.4113825 C802.63,68.8023825 801.759,70.0113825 801.278,70.6093825 L801.278,67.4113825 L799.276,67.4113825 L799.276,74.0673825 L801.278,74.0673825 L801.278,71.0643825 C802.084,71.2723825 802.76,71.8183825 803.722,74.0673825 L806.01,74.0673825 Z M811.171,74.0673825 L813.16,74.0673825 L813.16,67.4243825 L811.171,67.4243825 C810.547,68.5943825 809.637,70.1803825 808.909,71.0643825 L808.909,67.4243825 L806.92,67.4243825 L806.92,74.0673825 L808.909,74.0673825 C809.689,73.0533825 810.495,71.8443825 811.171,70.5833825 L811.171,74.0673825 Z M819.14,74.0673825 L821.129,74.0673825 L821.129,67.4243825 L819.14,67.4243825 C818.516,68.5943825 817.606,70.1803825 816.878,71.0643825 L816.878,67.4243825 L814.889,67.4243825 L814.889,74.0673825 L816.878,74.0673825 C817.658,73.0533825 818.464,71.8443825 819.14,70.5833825 L819.14,74.0673825 Z M815.942,65.0063825 C815.942,66.2933825 816.696,66.8653825 817.983,66.8653825 C819.296,66.8653825 820.024,66.2933825 820.024,65.0063825 L818.802,65.0063825 C818.802,65.5003825 818.581,65.6433825 818.178,65.6693825 C818.139,65.6823825 818.087,65.6823825 818.035,65.6823825 C817.502,65.6823825 817.242,65.5653825 817.242,65.0063825 L815.942,65.0063825 Z M752.294,88.0673825 L754.283,88.0673825 L754.283,81.4243825 L752.294,81.4243825 C751.67,82.5943825 750.76,84.1803825 750.032,85.0643825 L750.032,81.4243825 L748.043,81.4243825 L748.043,88.0673825 L750.032,88.0673825 C750.812,87.0533825 751.618,85.8443825 752.294,84.5833825 L752.294,88.0673825 Z M760.133,85.4543825 L760.133,88.0673825 L762.122,88.0673825 L762.122,81.4243825 L760.133,81.4243825 L760.133,83.7513825 L758.001,83.7513825 L758.001,81.4243825 L756.012,81.4243825 L756.012,88.0673825 L758.001,88.0673825 L758.001,85.4543825 L760.133,85.4543825 Z M768.583,86.2343825 C768.206,86.3903825 767.647,86.5333825 767.075,86.5333825 C766.1,86.5333825 765.606,86.2993825 765.606,84.7393825 C765.606,83.1013825 766.1,82.9323825 767.075,82.9323825 C767.621,82.9323825 768.206,83.0623825 768.583,83.2053825 L768.999,81.5153825 C768.479,81.3333825 767.595,81.2293825 766.906,81.2293825 C764.93,81.2293825 763.591,81.9963825 763.591,84.7003825 C763.591,87.4303825 764.917,88.2493825 766.906,88.2493825 C767.569,88.2493825 768.466,88.1323825 768.999,87.9113825 L768.583,86.2343825 Z M773.289,83.1273825 L775.421,83.1273825 L775.421,81.4113825 L769.155,81.4113825 L769.155,83.1273825 L771.3,83.1273825 L771.3,88.0673825 L773.289,88.0673825 L773.289,83.1273825 Z M780.569,88.0673825 L782.558,88.0673825 L782.558,81.4243825 L780.569,81.4243825 C779.945,82.5943825 779.035,84.1803825 778.307,85.0643825 L778.307,81.4243825 L776.318,81.4243825 L776.318,88.0673825 L778.307,88.0673825 C779.087,87.0533825 779.893,85.8443825 780.569,84.5833825 L780.569,88.0673825 Z M787.589,83.1273825 L789.721,83.1273825 L789.721,81.4113825 L783.455,81.4113825 L783.455,83.1273825 L785.6,83.1273825 L785.6,88.0673825 L787.589,88.0673825 L787.589,83.1273825 Z M791.905,88.3923825 C791.58,89.1073825 791.177,89.9393825 790.813,90.5633825 L793.01,90.5633825 C793.335,89.9263825 793.66,89.1723825 793.959,88.4703825 C794.947,86.1823825 795.831,83.7253825 796.494,81.4243825 L794.505,81.4243825 C794.141,82.9453825 793.621,84.5313825 793.088,86.0523825 C792.672,84.4663825 792.165,82.8153825 791.632,81.4243825 L789.617,81.4243825 C790.397,83.4913825 791.255,86.0393825 791.905,88.3923825 L791.905,88.3923825 Z M800.576,83.1273825 L802.708,83.1273825 L802.708,81.4113825 L796.442,81.4113825 L796.442,83.1273825 L798.587,83.1273825 L798.587,88.0673825 L800.576,88.0673825 L800.576,83.1273825 Z M806.439,85.3243825 L809.858,85.3243825 L809.858,83.4133825 L806.439,83.4133825 L806.439,85.3243825 Z M814.616,79.0063825 L814.616,88.0673825 L816.709,88.0673825 L816.709,79.0063825 L814.616,79.0063825 Z M818.841,79.0063825 L818.841,88.0673825 L820.934,88.0673825 L820.934,79.0063825 L818.841,79.0063825 Z" id="Технологический" fill="#FFFFFF" transform="translate(767.172500, 77.784882) rotate(-2.000000) translate(-767.172500, -77.784882) "></path>
            <path d="M395.187,449.219 L395.187,447.139 L397.67,447.139 C398.138,447.139 398.385,447.477 398.385,448.218 C398.385,448.92 398.164,449.219 397.722,449.219 L395.187,449.219 Z M399.997,441.939 L393.094,441.939 L393.094,451 L398.268,451 C399.737,451 400.66,450.376 400.66,448.231 C400.66,446.372 399.815,445.436 398.229,445.436 L395.187,445.436 L395.187,443.772 L399.997,443.772 L399.997,441.939 Z M408.031,446.749 C408.031,444.773 407.095,444.162 405.106,444.162 C404.118,444.162 403.013,444.318 402.246,444.513 L402.558,446.099 C403.117,445.93 403.858,445.826 404.625,445.826 C405.925,445.826 406.133,446.047 406.133,446.97 C405.626,446.866 405.119,446.801 404.625,446.801 C403.039,446.801 402.025,447.1 402.025,448.972 C402.025,450.714 402.675,451.182 404.872,451.182 C405.847,451.182 407.134,450.987 408.031,450.662 L408.031,446.749 Z M406.133,449.518 C405.821,449.635 405.405,449.7 405.028,449.7 C404.248,449.7 404.079,449.583 404.079,448.907 C404.079,448.244 404.339,448.166 405.054,448.166 C405.457,448.166 405.834,448.179 406.133,448.257 L406.133,449.518 Z M413.712,446.06 L413.712,451 L415.701,451 L415.701,444.344 L410.293,444.344 C410.15,446.606 409.76,449.089 409.201,451 L411.294,451 C411.723,449.596 412.061,447.763 412.178,446.06 L413.712,446.06 Z M420.719,446.06 L422.851,446.06 L422.851,444.344 L416.585,444.344 L416.585,446.06 L418.73,446.06 L418.73,451 L420.719,451 L420.719,446.06 Z M427.999,451 L429.988,451 L429.988,444.357 L427.999,444.357 C427.375,445.527 426.465,447.113 425.737,447.997 L425.737,444.357 L423.748,444.357 L423.748,451 L425.737,451 C426.517,449.986 427.323,448.777 427.999,447.516 L427.999,451 Z M435.968,451 L437.957,451 L437.957,444.357 L435.968,444.357 C435.344,445.527 434.434,447.113 433.706,447.997 L433.706,444.357 L431.717,444.357 L431.717,451 L433.706,451 C434.486,449.986 435.292,448.777 435.968,447.516 L435.968,451 Z M432.77,441.939 C432.77,443.226 433.524,443.798 434.811,443.798 C436.124,443.798 436.852,443.226 436.852,441.939 L435.63,441.939 C435.63,442.433 435.409,442.576 435.006,442.602 C434.967,442.615 434.915,442.615 434.863,442.615 C434.33,442.615 434.07,442.498 434.07,441.939 L432.77,441.939 Z M444.418,449.167 C444.041,449.323 443.482,449.466 442.91,449.466 C441.935,449.466 441.441,449.232 441.441,447.672 C441.441,446.034 441.935,445.865 442.91,445.865 C443.456,445.865 444.041,445.995 444.418,446.138 L444.834,444.448 C444.314,444.266 443.43,444.162 442.741,444.162 C440.765,444.162 439.426,444.929 439.426,447.633 C439.426,450.363 440.752,451.182 442.741,451.182 C443.404,451.182 444.301,451.065 444.834,450.844 L444.418,449.167 Z M452.556,451 C451.373,448.14 450.775,447.659 450.125,447.399 C450.45,447.126 451.295,446.073 452.426,444.344 L450.125,444.344 C449.176,445.735 448.305,446.944 447.824,447.542 L447.824,444.344 L445.822,444.344 L445.822,451 L447.824,451 L447.824,447.997 C448.63,448.205 449.306,448.751 450.268,451 L452.556,451 Z M459.212,446.749 C459.212,444.773 458.276,444.162 456.287,444.162 C455.299,444.162 454.194,444.318 453.427,444.513 L453.739,446.099 C454.298,445.93 455.039,445.826 455.806,445.826 C457.106,445.826 457.314,446.047 457.314,446.97 C456.807,446.866 456.3,446.801 455.806,446.801 C454.22,446.801 453.206,447.1 453.206,448.972 C453.206,450.714 453.856,451.182 456.053,451.182 C457.028,451.182 458.315,450.987 459.212,450.662 L459.212,446.749 Z M457.314,449.518 C457.002,449.635 456.586,449.7 456.209,449.7 C455.429,449.7 455.26,449.583 455.26,448.907 C455.26,448.244 455.52,448.166 456.235,448.166 C456.638,448.166 457.015,448.179 457.314,448.257 L457.314,449.518 Z M465.14,447.308 L463.541,447.308 C463.164,447.308 462.917,447.113 462.917,446.606 C462.917,446.099 463.138,445.917 463.528,445.917 L465.14,445.917 L465.14,447.308 Z M462.631,448.179 C461.565,448.322 461.084,448.803 460.265,451 L462.54,451 C463.125,449.206 463.476,448.842 464.256,448.842 L465.14,448.842 L465.14,451 L467.142,451 L467.142,444.344 L462.878,444.344 C461.305,444.344 460.759,445.202 460.759,446.294 C460.759,447.256 461.214,448.101 462.631,448.179 L462.631,448.179 Z" id="Балтийская" fill="#FFFFFF"></path>
            <g id="Group" transform="translate(475.000000, 434.000000)">
                <circle id="Oval-2" fill="#F9F9F9" cx="12.5" cy="12.5" r="12.5"></circle>
                <path d="M17.0152837,7.43468784 C18.1609616,8.52983553 18.8686022,10.0546532 18.8686022,11.7225855 C18.8686022,14.510985 16.8973798,16.8698231 14.2184082,17.5858311 L14.2184082,17.5858311 L14.7070845,18.1755678 L18.7338549,18.1755678 C20.1406601,16.7265998 21,14.7806969 21,12.6576665 C21,9.13630698 18.6412705,6.12883451 15.3558274,5 L12.5000543,14.0981584 L9.64417256,5 C6.35872949,6.12883451 4,9.13630698 4,12.6576665 C4,14.7806969 4.85933994,16.7265998 6.26614506,18.1755678 L10.2845482,18.1755678 L10.7815918,17.5858311 L10.7732244,17.5858311 C8.09425279,16.8698231 6.12303041,14.510985 6.12303041,11.7225855 C6.12303041,10.0545445 6.83067099,8.5382029 7.97634891,7.43468784 C8.08588541,7.30830792 8.30484975,7.24093428 8.51555539,7.2746211 C8.72615235,7.31678396 8.92838195,7.46000729 9.02944241,7.77166472 L12.1801382,17.8049041 C12.2811987,17.8133801 12.3907352,17.8133801 12.5002717,17.8133801 C12.6098082,17.8133801 12.7108686,17.8133801 12.8204051,17.8049041 L15.9709923,7.76318868 C16.0552093,7.51042885 16.2321195,7.34199475 16.4428251,7.28309714 C16.6276679,7.24093428 16.8298975,7.28309714 17.0152837,7.43468784 L17.0152837,7.43468784 L17.0152837,7.43468784 Z" id="Shape" fill="#2962FF"></path>
            </g>
            <circle id="Oval-5" fill="#F40A54" cx="330.5" cy="212.5" r="4.5"></circle>
            <path d="M62.374,191.7 L62.374,187.938 L65.506,187.938 C66.298,187.938 66.73,188.496 66.73,189.864 C66.73,191.178 66.226,191.7 65.47,191.7 L62.374,191.7 Z M62.374,198 L62.374,194.094 L66.496,194.094 C68.836,194.094 69.916,192.132 69.916,189.864 C69.916,187.29 69.052,185.454 66.478,185.454 L59.476,185.454 L59.476,198 L62.374,198 Z M77.386,198 L80.14,198 L80.14,188.802 L77.386,188.802 C76.522,190.422 75.262,192.618 74.254,193.842 L74.254,188.802 L71.5,188.802 L71.5,198 L74.254,198 C75.334,196.596 76.45,194.922 77.386,193.176 L77.386,198 Z M84.55,198 C85.774,195.048 86.764,194.13 87.7,193.842 L87.7,198 L90.472,198 L90.472,193.842 C91.408,194.13 92.38,195.048 93.622,198 L96.754,198 C95.224,194.04 94.288,193.392 93.442,193.014 C93.856,192.636 95.134,191.178 96.574,188.784 L93.424,188.784 C92.272,190.656 91.12,192.294 90.472,193.158 L90.472,188.784 L87.7,188.784 L87.7,193.158 C87.034,192.294 85.9,190.656 84.73,188.784 L81.58,188.784 C83.038,191.178 84.298,192.636 84.712,193.014 C83.866,193.392 82.948,194.04 81.418,198 L84.55,198 Z M104.566,195.462 C104.044,195.678 103.27,195.876 102.478,195.876 C101.128,195.876 100.444,195.552 100.444,193.392 C100.444,191.124 101.128,190.89 102.478,190.89 C103.234,190.89 104.044,191.07 104.566,191.268 L105.142,188.928 C104.422,188.676 103.198,188.532 102.244,188.532 C99.508,188.532 97.654,189.594 97.654,193.338 C97.654,197.118 99.49,198.252 102.244,198.252 C103.162,198.252 104.404,198.09 105.142,197.784 L104.566,195.462 Z M115.834,198 C114.196,194.04 113.368,193.374 112.468,193.014 C112.918,192.636 114.088,191.178 115.654,188.784 L112.468,188.784 C111.154,190.71 109.948,192.384 109.282,193.212 L109.282,188.784 L106.51,188.784 L106.51,198 L109.282,198 L109.282,193.842 C110.398,194.13 111.334,194.886 112.666,198 L115.834,198 Z M122.98,198 L125.734,198 L125.734,188.802 L122.98,188.802 C122.116,190.422 120.856,192.618 119.848,193.842 L119.848,188.802 L117.094,188.802 L117.094,198 L119.848,198 C120.928,196.596 122.044,194.922 122.98,193.176 L122.98,198 Z M134.014,198 L136.768,198 L136.768,188.802 L134.014,188.802 C133.15,190.422 131.89,192.618 130.882,193.842 L130.882,188.802 L128.128,188.802 L128.128,198 L130.882,198 C131.962,196.596 133.078,194.922 134.014,193.176 L134.014,198 Z M129.586,185.454 C129.586,187.236 130.63,188.028 132.412,188.028 C134.23,188.028 135.238,187.236 135.238,185.454 L133.546,185.454 C133.546,186.138 133.24,186.336 132.682,186.372 C132.628,186.39 132.556,186.39 132.484,186.39 C131.746,186.39 131.386,186.228 131.386,185.454 L129.586,185.454 Z M146.56,191.16 L149.494,191.16 L149.494,198 L152.266,198 L152.266,188.784 L143.788,188.784 L143.788,198 L146.56,198 L146.56,191.16 Z M157.414,191.052 C157.738,190.926 158.332,190.836 158.818,190.836 C160.132,190.836 160.564,191.232 160.564,193.464 C160.564,195.408 160.15,195.984 158.836,195.984 C158.026,195.984 157.414,195.696 157.414,195.282 L157.414,191.052 Z M154.642,201.456 L157.414,201.456 L157.414,197.838 C157.918,198.054 158.53,198.252 159.43,198.252 C161.716,198.252 163.336,197.118 163.336,193.392 C163.336,189.63 161.95,188.532 158.818,188.532 C157.378,188.532 155.632,188.802 154.642,189.18 L154.642,201.456 Z M166.864,195.048 C165.64,195.048 165.226,195.264 165.226,196.524 C165.226,197.892 165.64,198.126 166.864,198.126 C168.124,198.126 168.52,197.892 168.52,196.524 C168.52,195.264 168.124,195.048 166.864,195.048 L166.864,195.048 Z" id="Рижский-пр." fill="#FFFFFF" transform="translate(114.520000, 193.455000) rotate(-3.000000) translate(-114.520000, -193.455000) "></path>
            <rect id="Rectangle-16" fill="#FFEE03" transform="translate(848.096124, 215.385440) rotate(-2.000000) translate(-848.096124, -215.385440) " x="839.021124" y="-104.75621" width="18.1499996" height="640.283302"></rect>
            <path d="M189.582,224.454 L180.906,224.454 C180.744,228.144 180.096,231.384 179.142,234.336 L177.126,234.336 L177.522,239.772 L180.114,239.772 L180.114,237 L188.826,237 L188.826,239.772 L191.4,239.772 L191.796,234.336 L189.582,234.336 L189.582,224.454 Z M186.702,234.336 L182.274,234.336 C182.994,231.906 183.354,229.386 183.57,226.992 L186.702,226.992 L186.702,234.336 Z M195.756,230.052 C196.08,229.926 196.674,229.836 197.16,229.836 C198.474,229.836 198.906,230.232 198.906,232.464 C198.906,234.408 198.492,234.984 197.178,234.984 C196.368,234.984 195.756,234.696 195.756,234.282 L195.756,230.052 Z M192.984,240.456 L195.756,240.456 L195.756,236.838 C196.26,237.054 196.872,237.252 197.772,237.252 C200.058,237.252 201.678,236.118 201.678,232.392 C201.678,228.63 200.292,227.532 197.16,227.532 C195.72,227.532 193.974,227.802 192.984,228.18 L192.984,240.456 Z M207.816,237.252 C210.822,237.252 212.316,236.118 212.316,232.338 C212.316,228.576 210.804,227.532 207.816,227.532 C204.882,227.532 203.352,228.576 203.352,232.338 C203.352,236.118 204.846,237.252 207.816,237.252 L207.816,237.252 Z M207.816,229.692 C209.13,229.692 209.508,229.98 209.508,232.392 C209.508,234.714 209.13,235.092 207.816,235.092 C206.52,235.092 206.142,234.714 206.142,232.392 C206.142,229.98 206.52,229.692 207.816,229.692 L207.816,229.692 Z M217.104,234.948 L217.104,233.238 L219.336,233.238 C219.876,233.238 220.164,233.454 220.164,234.138 C220.164,234.768 219.912,234.948 219.408,234.948 L217.104,234.948 Z M217.104,229.836 L219.318,229.836 C219.786,229.836 220.002,229.998 220.002,230.574 C220.002,231.114 219.786,231.312 219.318,231.312 L217.104,231.312 L217.104,229.836 Z M220.632,232.158 C222.468,232.032 222.846,231.294 222.846,229.998 C222.846,228.558 222.306,227.784 220.2,227.784 L214.332,227.784 L214.332,237 L220.254,237 C221.964,237 223.026,236.37 223.026,234.516 C223.026,233.076 222.576,232.23 220.632,232.158 L220.632,232.158 Z M230.946,231.888 L228.732,231.888 C228.21,231.888 227.868,231.618 227.868,230.916 C227.868,230.214 228.174,229.962 228.714,229.962 L230.946,229.962 L230.946,231.888 Z M227.472,233.094 C225.996,233.292 225.33,233.958 224.196,237 L227.346,237 C228.156,234.516 228.642,234.012 229.722,234.012 L230.946,234.012 L230.946,237 L233.718,237 L233.718,227.784 L227.814,227.784 C225.636,227.784 224.88,228.972 224.88,230.484 C224.88,231.816 225.51,232.986 227.472,233.094 L227.472,233.094 Z M241.8,233.382 L241.8,237 L244.554,237 L244.554,227.802 L241.8,227.802 L241.8,231.024 L238.848,231.024 L238.848,227.802 L236.094,227.802 L236.094,237 L238.848,237 L238.848,233.382 L241.8,233.382 Z M254.904,231.114 C254.904,228.378 253.608,227.532 250.854,227.532 C249.486,227.532 247.956,227.748 246.894,228.018 L247.326,230.214 C248.1,229.98 249.126,229.836 250.188,229.836 C251.988,229.836 252.276,230.142 252.276,231.42 C251.574,231.276 250.872,231.186 250.188,231.186 C247.992,231.186 246.588,231.6 246.588,234.192 C246.588,236.604 247.488,237.252 250.53,237.252 C251.88,237.252 253.662,236.982 254.904,236.532 L254.904,231.114 Z M252.276,234.948 C251.844,235.11 251.268,235.2 250.746,235.2 C249.666,235.2 249.432,235.038 249.432,234.102 C249.432,233.184 249.792,233.076 250.782,233.076 C251.34,233.076 251.862,233.094 252.276,233.202 L252.276,234.948 Z M263.112,231.888 L260.898,231.888 C260.376,231.888 260.034,231.618 260.034,230.916 C260.034,230.214 260.34,229.962 260.88,229.962 L263.112,229.962 L263.112,231.888 Z M259.638,233.094 C258.162,233.292 257.496,233.958 256.362,237 L259.512,237 C260.322,234.516 260.808,234.012 261.888,234.012 L263.112,234.012 L263.112,237 L265.884,237 L265.884,227.784 L259.98,227.784 C257.802,227.784 257.046,228.972 257.046,230.484 C257.046,231.816 257.676,232.986 259.638,233.094 L259.638,233.094 Z M274.668,237.45 C274.218,238.44 273.66,239.592 273.156,240.456 L276.198,240.456 C276.648,239.574 277.098,238.53 277.512,237.558 C278.88,234.39 280.104,230.988 281.022,227.802 L278.268,227.802 C277.764,229.908 277.044,232.104 276.306,234.21 C275.73,232.014 275.028,229.728 274.29,227.802 L271.5,227.802 C272.58,230.664 273.768,234.192 274.668,237.45 L274.668,237.45 Z M287.682,230.16 L287.682,237 L290.436,237 L290.436,227.784 L282.948,227.784 C282.75,230.916 282.21,234.354 281.436,237 L284.334,237 C284.928,235.056 285.396,232.518 285.558,230.16 L287.682,230.16 Z M294.306,234.048 C293.082,234.048 292.668,234.264 292.668,235.524 C292.668,236.892 293.082,237.126 294.306,237.126 C295.566,237.126 295.962,236.892 295.962,235.524 C295.962,234.264 295.566,234.048 294.306,234.048 L294.306,234.048 Z M301.65,235.11 L298.482,235.11 L297.06,239.862 L299.526,239.862 L301.65,235.11 Z M309.948,227.784 C309.822,229.998 309.372,232.356 308.778,234.624 L307.05,234.624 L307.662,239.664 L309.93,239.664 L309.93,237 L316.392,237 L316.392,239.664 L318.642,239.664 L319.254,234.624 L317.436,234.624 L317.436,227.784 L309.948,227.784 Z M314.682,230.16 L314.682,234.624 L311.658,234.624 C312.072,233.058 312.36,231.438 312.45,230.16 L314.682,230.16 Z M321.99,234.048 C320.766,234.048 320.352,234.264 320.352,235.524 C320.352,236.892 320.766,237.126 321.99,237.126 C323.25,237.126 323.646,236.892 323.646,235.524 C323.646,234.264 323.25,234.048 321.99,234.048 L321.99,234.048 Z M332.43,237 L332.43,223.878 L326.004,226.272 L326.76,228.72 L329.568,227.586 L329.568,237 L332.43,237 Z" id="Дровяная-ул.,-д.1" fill="#F40A54"></path>
            <g id="Group-2" transform="translate(31.000000, 38.000000)">
                <circle id="Oval-2" fill="#F9F9F9" cx="12.5" cy="12.5" r="12.5"></circle>
                <path d="M4,17.0720721 C4,19.2342342 7.44144144,21 11.6756757,21 C14.1441441,21 16.3423423,20.4054054 17.7297297,19.4864865 L19.6756757,19.4864865 L20.8648649,18.2972973 L19.027027,18.2252252 C19.2252252,17.8828829 19.3333333,17.5405405 19.3513514,17.1621622 L19.8918919,17.1621622 C19.8378378,17.2522523 19.8198198,17.3963964 19.8198198,17.5765766 C19.8198198,17.8468468 19.8918919,18.045045 19.963964,18.045045 C20.0540541,18.045045 20.1081081,17.8288288 20.1081081,17.5765766 C20.1081081,17.3963964 20.0720721,17.2522523 20.036036,17.1621622 L20.1981982,17.1621622 L20.1981982,17.0900901 L20,17.0900901 C20.0720721,17.036036 20.1081081,16.8558559 20.1081081,16.6396396 C20.1081081,16.3693694 20.036036,16.1711712 19.963964,16.1711712 C19.8738739,16.1711712 19.8198198,16.3873874 19.8198198,16.6396396 C19.8198198,16.8558559 19.8738739,17.0540541 19.9279279,17.0900901 L19.3513514,17.0900901 L19.3513514,17.0900901 C19.3513514,16.7297297 19.2612613,16.3873874 19.0810811,16.0630631 L20.8648649,15.990991 L19.6756757,14.8018018 L17.9099099,14.8018018 C17.009009,14.1711712 15.7477477,13.6666667 14.2882883,13.3963964 L14.2882883,11.0720721 C14.2882883,10.7657658 14.036036,10.5135135 13.7297297,10.5135135 L13.6936937,10.5135135 L13.6936937,6.06306306 C13.6936937,6.00900901 13.6756757,5.95495495 13.6576577,5.91891892 L13.6576577,5.55855856 C13.6576577,5.25225225 13.4054054,5 13.0990991,5 L10.7387387,5 C10.4324324,5 10.1801802,5.25225225 10.1801802,5.55855856 L10.1801802,6.02702703 C10.1801802,6.33333333 10.4324324,6.58558559 10.7387387,6.58558559 L12.8288288,6.58558559 L12.8288288,10.5135135 L12.3783784,10.5135135 L12.3783784,9.41441441 C12.3783784,9.25225225 12.2522523,9.12612613 12.0900901,9.12612613 C11.9279279,9.12612613 11.8018018,9.25225225 11.8018018,9.41441441 L11.8018018,10.5135135 L10.8648649,10.5135135 C10.5585586,10.5135135 10.3063063,10.7657658 10.3063063,11.0720721 L10.3063063,13.2162162 C6.72072072,13.5585586 4,15.1441441 4,17.0720721 L4,17.0720721 Z M11.0990991,5.97297297 C11.0990991,6.17117117 10.9369369,6.33333333 10.7387387,6.33333333 C10.5405405,6.33333333 10.3783784,6.17117117 10.3783784,5.97297297 L10.3783784,5.57657658 C10.3783784,5.37837838 10.5405405,5.21621622 10.7387387,5.21621622 C10.9369369,5.21621622 11.0990991,5.37837838 11.0990991,5.57657658 L11.0990991,5.97297297 L11.0990991,5.97297297 Z M15.045045,14.2972973 C15.027027,14.3333333 14.990991,14.3693694 14.954955,14.3693694 L14.9369369,14.3693694 C14.9009009,14.3693694 14.8828829,14.3513514 14.8468468,14.3513514 C14.7927928,14.3333333 14.7747748,14.2792793 14.7747748,14.2432432 C14.7927928,14.1891892 14.8468468,14.1711712 14.8828829,14.1711712 C14.9189189,14.1711712 14.9369369,14.1891892 14.972973,14.1891892 C15.027027,14.1891892 15.0630631,14.2432432 15.045045,14.2972973 L15.045045,14.2972973 Z M15.6576577,14.4954955 C15.6396396,14.5315315 15.6036036,14.5495495 15.5675676,14.5495495 L15.5315315,14.5495495 C15.4954955,14.5315315 15.4774775,14.5315315 15.4414414,14.5135135 C15.3873874,14.4954955 15.3693694,14.4414414 15.3873874,14.3873874 C15.4054054,14.3333333 15.4594595,14.3153153 15.5135135,14.3333333 C15.5495495,14.3513514 15.5675676,14.3513514 15.6036036,14.3693694 C15.6576577,14.3873874 15.6756757,14.4414414 15.6576577,14.4954955 L15.6576577,14.4954955 Z M16.2702703,14.7297297 C16.2522523,14.7657658 16.2162162,14.8018018 16.1801802,14.8018018 L16.1441441,14.8018018 L16.1441441,14.8018018 C16.1081081,14.7837838 16.0900901,14.7837838 16.0540541,14.7657658 C16,14.7477477 15.981982,14.6936937 16,14.6396396 C16.018018,14.5855856 16.0720721,14.5675676 16.1261261,14.5855856 C16.1621622,14.6036036 16.1801802,14.6036036 16.2162162,14.6216216 C16.2702703,14.6396396 16.2882883,14.6936937 16.2702703,14.7297297 L16.2702703,14.7297297 Z M16.8648649,15.018018 C16.8468468,15.0540541 16.8108108,15.0720721 16.7747748,15.0720721 C16.7567568,15.0720721 16.7387387,15.0720721 16.7387387,15.0540541 L16.7387387,15.0540541 C16.7027027,15.036036 16.6846847,15.018018 16.6486486,15.018018 C16.5945946,15 16.5765766,14.9459459 16.6126126,14.8918919 C16.6306306,14.8378378 16.6846847,14.8198198 16.7387387,14.8558559 C16.7747748,14.8738739 16.7927928,14.8918919 16.8288288,14.8918919 C16.8648649,14.9099099 16.8828829,14.981982 16.8648649,15.018018 L16.8648649,15.018018 Z M17.4054054,14.9459459 L17.3693694,14.9459459 C17.3333333,14.9459459 17.2972973,14.9279279 17.2792793,14.8738739 L17.2792793,14.8738739 L17.2792793,14.8558559 C17.2612613,14.8018018 17.2792793,14.7477477 17.3333333,14.7297297 C17.3873874,14.7117117 17.4414414,14.7297297 17.4594595,14.7837838 C17.4594595,14.7837838 17.4594595,14.7837838 17.4594595,14.8018018 C17.4774775,14.8738739 17.4594595,14.9279279 17.4054054,14.9459459 L17.4054054,14.9459459 Z M17.5675676,15.5765766 L17.5675676,15.5765766 C17.5135135,15.5765766 17.4594595,15.5405405 17.4594595,15.5045045 C17.4594595,15.4684685 17.4414414,15.4504505 17.4414414,15.4144144 C17.4234234,15.3603604 17.4594595,15.3063063 17.5135135,15.3063063 C17.5675676,15.2882883 17.6216216,15.3243243 17.6216216,15.3783784 C17.6216216,15.4144144 17.6396396,15.4324324 17.6396396,15.4684685 C17.6576577,15.5225225 17.6216216,15.5765766 17.5675676,15.5765766 L17.5675676,15.5765766 Z M17.5495495,18.5495495 C17.6036036,18.5675676 17.6216216,18.6216216 17.6216216,18.6576577 C17.6216216,18.6936937 17.6036036,18.7117117 17.6036036,18.7477477 C17.5855856,18.7837838 17.5495495,18.8198198 17.5135135,18.8198198 L17.4954955,18.8198198 C17.4414414,18.8018018 17.4234234,18.7477477 17.4234234,18.7117117 C17.4234234,18.6756757 17.4414414,18.6576577 17.4414414,18.6216216 C17.4414414,18.5675676 17.4954955,18.5315315 17.5495495,18.5495495 L17.5495495,18.5495495 Z M17.7477477,16.027027 C17.7477477,16.0630631 17.7477477,16.0810811 17.7657658,16.1171171 C17.7657658,16.1711712 17.7297297,16.2072072 17.6936937,16.2252252 C17.6936937,16.2252252 17.6936937,16.2252252 17.6756757,16.2252252 C17.6216216,16.2252252 17.5855856,16.1891892 17.5855856,16.1531532 C17.5855856,16.1171171 17.5855856,16.0990991 17.5675676,16.0630631 C17.5675676,16.009009 17.6036036,15.972973 17.6396396,15.954955 C17.6936937,15.9369369 17.7297297,15.972973 17.7477477,16.027027 L17.7477477,16.027027 Z M17.7117117,16.6036036 C17.7657658,16.6036036 17.8018018,16.6396396 17.8198198,16.6936937 L17.8198198,16.7837838 C17.8198198,16.8378378 17.7837838,16.8738739 17.7297297,16.8738739 L17.7297297,16.8738739 C17.6756757,16.8738739 17.6396396,16.8378378 17.6396396,16.7837838 L17.6396396,16.6936937 C17.6216216,16.6396396 17.6576577,16.6036036 17.7117117,16.6036036 L17.7117117,16.6036036 Z M18.2702703,15.9189189 C18.3063063,15.8828829 18.3603604,15.8828829 18.3963964,15.9009009 C18.4504505,15.9369369 18.4684685,15.972973 18.4684685,15.972973 C18.5045045,16.009009 18.5045045,16.0630631 18.4684685,16.0990991 C18.4504505,16.1171171 18.4324324,16.1351351 18.3963964,16.1351351 C18.3783784,16.1351351 18.3423423,16.1351351 18.3243243,16.1171171 C18.3243243,16.1171171 18.3063063,16.0990991 18.2522523,16.0630631 C18.2522523,16.027027 18.2342342,15.972973 18.2702703,15.9189189 L18.2702703,15.9189189 Z M17.981982,18.5495495 C18,18.5315315 18.036036,18.5135135 18.0540541,18.4954955 C18.0900901,18.4594595 18.1621622,18.4774775 18.1801802,18.5135135 C18.2162162,18.5495495 18.1981982,18.6216216 18.1621622,18.6396396 C18.1441441,18.6576577 18.1081081,18.6756757 18.0900901,18.6936937 C18.0720721,18.7117117 18.0540541,18.7117117 18.036036,18.7117117 C18,18.7117117 17.981982,18.6936937 17.963964,18.6756757 C17.9279279,18.6396396 17.9459459,18.5855856 17.981982,18.5495495 L17.981982,18.5495495 Z M17.8558559,15.7207207 C17.8378378,15.7027027 17.8018018,15.6846847 17.7837838,15.6666667 C17.7477477,15.6306306 17.7297297,15.5765766 17.7657658,15.5405405 C17.8018018,15.5045045 17.8558559,15.4864865 17.8918919,15.5225225 C17.9099099,15.5405405 17.9459459,15.5585586 17.963964,15.5765766 C18,15.6126126 18.018018,15.6666667 17.981982,15.7027027 C17.963964,15.7207207 17.9279279,15.7387387 17.9099099,15.7387387 C17.8738739,15.7387387 17.8558559,15.7387387 17.8558559,15.7207207 L17.8558559,15.7207207 Z M17.7297297,17.5405405 C17.7117117,17.5405405 17.7117117,17.5225225 17.7297297,17.5405405 C17.6756757,17.5405405 17.6396396,17.4864865 17.6396396,17.4324324 L17.6396396,17.3423423 C17.6396396,17.2882883 17.6936937,17.2522523 17.7297297,17.2522523 C17.7837838,17.2522523 17.8198198,17.3063063 17.8198198,17.3423423 L17.8198198,17.4324324 C17.8198198,17.4864865 17.7657658,17.5405405 17.7297297,17.5405405 L17.7297297,17.5405405 Z M17.6396396,18.1711712 C17.6396396,18.1711712 17.6216216,18.1711712 17.6396396,18.1711712 C17.5675676,18.1531532 17.5315315,18.1171171 17.5495495,18.0630631 L17.5495495,18.0630631 C17.5495495,18.027027 17.5675676,18.009009 17.5675676,17.972973 C17.5675676,17.9189189 17.6216216,17.8828829 17.6756757,17.9009009 C17.7297297,17.9009009 17.7657658,17.954955 17.7477477,18.009009 C17.7477477,18.045045 17.7297297,18.0630631 17.7297297,18.0990991 C17.7297297,18.1531532 17.6756757,18.1711712 17.6396396,18.1711712 L17.6396396,18.1711712 Z M17.4054054,19.036036 C17.3873874,19 17.3873874,18.9279279 17.4414414,18.9099099 L17.4414414,18.9099099 C17.4774775,18.8918919 17.4954955,18.8738739 17.5135135,18.8558559 C17.5495495,18.8198198 17.6216216,18.8378378 17.6396396,18.8918919 C17.6576577,18.9279279 17.6576577,19 17.6036036,19.018018 C17.5855856,19.036036 17.5495495,19.0540541 17.5315315,19.0720721 C17.5135135,19.0720721 17.4954955,19.0900901 17.4774775,19.0900901 C17.4594595,19.0900901 17.4234234,19.0720721 17.4054054,19.036036 L17.4054054,19.036036 Z M17.2072072,19.3063063 C17.2072072,19.3063063 17.2252252,19.2702703 17.2432432,19.2162162 C17.2612613,19.1621622 17.3153153,19.1441441 17.3693694,19.1621622 C17.4234234,19.1801802 17.4414414,19.2342342 17.4234234,19.2882883 C17.4054054,19.3423423 17.3873874,19.3783784 17.3873874,19.3783784 C17.3693694,19.4144144 17.3333333,19.4324324 17.2972973,19.4324324 L17.2612613,19.4324324 C17.2072072,19.4144144 17.1891892,19.3603604 17.2072072,19.3063063 L17.2072072,19.3063063 Z M17.1891892,15.1981982 C17.2072072,15.1621622 17.2792793,15.1441441 17.3153153,15.1621622 C17.3513514,15.1801802 17.3693694,15.1981982 17.3873874,15.2162162 C17.4234234,15.2342342 17.4414414,15.3063063 17.4234234,15.3423423 C17.4054054,15.3783784 17.3693694,15.3963964 17.3513514,15.3963964 C17.3333333,15.3963964 17.3153153,15.3963964 17.2972973,15.3783784 C17.2792793,15.3603604 17.2432432,15.3423423 17.2252252,15.3243243 C17.1711712,15.3063063 17.1711712,15.2522523 17.1891892,15.1981982 L17.1891892,15.1981982 Z M16.8828829,19.2162162 C16.9189189,19.1981982 16.9369369,19.1801802 16.972973,19.1801802 C17.027027,19.1621622 17.0810811,19.1801802 17.0990991,19.2162162 C17.1171171,19.2702703 17.0990991,19.3243243 17.0630631,19.3423423 C17.027027,19.3603604 17.009009,19.3783784 16.972973,19.3783784 C16.954955,19.3783784 16.9369369,19.3963964 16.9369369,19.3963964 C16.9009009,19.3963964 16.8648649,19.3783784 16.8468468,19.3423423 C16.8108108,19.2882883 16.8288288,19.2342342 16.8828829,19.2162162 L16.8828829,19.2162162 Z M16.2882883,19.4864865 C16.3243243,19.4684685 16.3423423,19.4684685 16.3783784,19.4504505 C16.4324324,19.4324324 16.4864865,19.4504505 16.5045045,19.5045045 C16.5225225,19.5585586 16.5045045,19.6126126 16.4504505,19.6306306 C16.4144144,19.6486486 16.3963964,19.6486486 16.3603604,19.6666667 L16.3243243,19.6666667 C16.2882883,19.6666667 16.2522523,19.6486486 16.2342342,19.6126126 C16.2162162,19.5585586 16.2342342,19.5045045 16.2882883,19.4864865 L16.2882883,19.4864865 Z M15.6756757,19.7027027 C15.7117117,19.6846847 15.7297297,19.6846847 15.7657658,19.6666667 C15.8198198,19.6486486 15.8738739,19.6846847 15.8918919,19.7207207 C15.9099099,19.7747748 15.8738739,19.8288288 15.8378378,19.8468468 C15.8018018,19.8648649 15.7837838,19.8648649 15.7477477,19.8828829 L15.7117117,19.8828829 C15.6756757,19.8828829 15.6396396,19.8648649 15.6216216,19.8108108 C15.6036036,19.7747748 15.6396396,19.7207207 15.6756757,19.7027027 L15.6756757,19.7027027 Z M15.0630631,19.8828829 L15.0630631,19.8828829 C15.0990991,19.8828829 15.1171171,19.8648649 15.1531532,19.8648649 C15.2072072,19.8468468 15.2612613,19.8828829 15.2612613,19.9369369 C15.2792793,19.990991 15.2432432,20.045045 15.1891892,20.045045 C15.1531532,20.045045 15.1351351,20.0630631 15.0990991,20.0630631 L15.0810811,20.0630631 C15.045045,20.0630631 15.009009,20.027027 14.990991,19.990991 C14.972973,19.954955 15.009009,19.9009009 15.0630631,19.8828829 L15.0630631,19.8828829 Z M14.6486486,16.6396396 C14.6486486,15.990991 15.1891892,15.4504505 15.8378378,15.4504505 C16.4864865,15.4504505 17.027027,15.990991 17.027027,16.6396396 C17.027027,17.2882883 16.4864865,17.8288288 15.8378378,17.8288288 C15.1711712,17.8288288 14.6486486,17.3063063 14.6486486,16.6396396 L14.6486486,16.6396396 Z M14.4324324,20.045045 C14.4684685,20.045045 14.4864865,20.027027 14.5225225,20.027027 C14.5765766,20.009009 14.6306306,20.045045 14.6306306,20.0990991 C14.6486486,20.1531532 14.6126126,20.2072072 14.5585586,20.2072072 C14.5225225,20.2072072 14.5045045,20.2252252 14.4684685,20.2252252 L14.4504505,20.2252252 C14.4144144,20.2252252 14.3603604,20.1891892 14.3603604,20.1531532 C14.3423423,20.0990991 14.3783784,20.045045 14.4324324,20.045045 L14.4324324,20.045045 Z M14.1441441,14.0630631 C14.1621622,14.009009 14.1981982,13.972973 14.2522523,13.990991 C14.2882883,13.990991 14.3063063,14.009009 14.3423423,14.009009 C14.3963964,14.027027 14.4324324,14.0630631 14.4144144,14.1171171 C14.3963964,14.1531532 14.3603604,14.1891892 14.3243243,14.1891892 L14.3063063,14.1891892 L14.3063063,14.1891892 C14.2702703,14.1891892 14.2522523,14.1711712 14.2162162,14.1711712 C14.1621622,14.1711712 14.1261261,14.1171171 14.1441441,14.0630631 L14.1441441,14.0630631 Z M5.71171171,14.9459459 L5.67567568,14.9459459 C5.63963964,14.9459459 5.6036036,14.9279279 5.58558559,14.8738739 L5.58558559,14.8558559 C5.56756757,14.8018018 5.58558559,14.7477477 5.63963964,14.7297297 C5.69369369,14.7117117 5.74774775,14.7297297 5.76576577,14.7837838 C5.76576577,14.7837838 5.76576577,14.7837838 5.78378378,14.8018018 C5.78378378,14.8738739 5.76576577,14.9279279 5.71171171,14.9459459 L5.71171171,14.9459459 Z M7.2972973,14.8198198 C7.26126126,14.8378378 7.24324324,14.8378378 7.20720721,14.8558559 L7.17117117,14.8558559 C7.13513514,14.8558559 7.0990991,14.8378378 7.08108108,14.8018018 C7.06306306,14.7477477 7.08108108,14.6936937 7.13513514,14.6756757 C7.17117117,14.6576577 7.18918919,14.6576577 7.22522523,14.6396396 C7.27927928,14.6216216 7.33333333,14.6396396 7.35135135,14.6936937 C7.36936937,14.7477477 7.35135135,14.8018018 7.2972973,14.8198198 L7.2972973,14.8198198 Z M7.90990991,14.6036036 C7.87387387,14.6216216 7.85585586,14.6216216 7.81981982,14.6396396 L7.78378378,14.6396396 C7.74774775,14.6396396 7.71171171,14.6216216 7.69369369,14.5855856 C7.67567568,14.5315315 7.71171171,14.4774775 7.74774775,14.4594595 C7.78378378,14.4414414 7.8018018,14.4414414 7.83783784,14.4234234 C7.89189189,14.4054054 7.94594595,14.4414414 7.96396396,14.4774775 C7.98198198,14.5315315 7.94594595,14.5855856 7.90990991,14.6036036 L7.90990991,14.6036036 Z M8.52252252,14.4234234 C8.48648649,14.4234234 8.46846847,14.4414414 8.43243243,14.4414414 L8.41441441,14.4414414 C8.37837838,14.4414414 8.34234234,14.4054054 8.32432432,14.3693694 C8.30630631,14.3153153 8.34234234,14.2612613 8.3963964,14.2612613 C8.43243243,14.2612613 8.45045045,14.2432432 8.48648649,14.2432432 C8.54054054,14.2252252 8.59459459,14.2612613 8.59459459,14.3153153 C8.59459459,14.3513514 8.57657658,14.4054054 8.52252252,14.4234234 L8.52252252,14.4234234 Z M9.15315315,14.2612613 C9.11711712,14.2612613 9.0990991,14.2792793 9.06306306,14.2792793 L9.04504505,14.2792793 C9.00900901,14.2792793 8.95495495,14.2432432 8.95495495,14.2072072 C8.93693694,14.1531532 8.97297297,14.0990991 9.02702703,14.0990991 C9.06306306,14.0990991 9.08108108,14.0810811 9.11711712,14.0810811 C9.17117117,14.0630631 9.22522523,14.0990991 9.22522523,14.1531532 C9.24324324,14.2072072 9.20720721,14.2612613 9.15315315,14.2612613 L9.15315315,14.2612613 Z M9.53153153,13.7207207 L9.4954955,13.7207207 C9.45945946,13.7207207 9.42342342,13.7027027 9.40540541,13.6486486 L9.40540541,13.6486486 C9.38738739,13.5945946 9.38738739,13.5765766 9.38738739,13.5765766 C9.36936937,13.5225225 9.38738739,13.4684685 9.44144144,13.4504505 C9.4954955,13.4324324 9.54954955,13.4504505 9.56756757,13.5045045 C9.56756757,13.5045045 9.58558559,13.5225225 9.58558559,13.5765766 C9.6036036,13.6486486 9.58558559,13.7027027 9.53153153,13.7207207 L9.53153153,13.7207207 Z M9.87387387,14.045045 C9.87387387,14.0990991 9.85585586,14.1351351 9.8018018,14.1531532 L9.8018018,14.1531532 L9.76576577,14.1531532 C9.76576577,14.1891892 9.78378378,14.2072072 9.78378378,14.2432432 C9.8018018,14.2972973 9.76576577,14.3513514 9.71171171,14.3513514 L9.69369369,14.3513514 C9.65765766,14.3513514 9.62162162,14.3153153 9.6036036,14.2792793 C9.6036036,14.2432432 9.58558559,14.2252252 9.58558559,14.1891892 C9.58558559,14.1531532 9.58558559,14.1171171 9.6036036,14.0990991 L9.6036036,14.0810811 C9.6036036,14.027027 9.62162162,13.972973 9.67567568,13.972973 C9.71171171,13.972973 9.72972973,13.954955 9.76576577,13.954955 C9.81981982,13.954955 9.85585586,13.990991 9.87387387,14.045045 L9.87387387,14.045045 Z M9.90990991,14.8738739 C9.92792793,14.9279279 9.89189189,14.981982 9.83783784,14.981982 L9.81981982,14.981982 C9.78378378,14.981982 9.72972973,14.9459459 9.72972973,14.9099099 L9.72972973,14.9099099 C9.72972973,14.8738739 9.71171171,14.8558559 9.71171171,14.8198198 C9.69369369,14.7657658 9.72972973,14.7117117 9.78378378,14.7117117 C9.83783784,14.6936937 9.89189189,14.7297297 9.89189189,14.7837838 C9.90990991,14.8198198 9.90990991,14.8558559 9.90990991,14.8738739 L9.90990991,14.8738739 Z M9.8018018,18.6936937 C9.81981982,18.6396396 9.85585586,18.6036036 9.90990991,18.6216216 C9.96396396,18.6396396 10,18.6756757 9.98198198,18.7297297 C9.98198198,18.7657658 9.96396396,18.7837838 9.96396396,18.8198198 C9.96396396,18.8558559 9.90990991,18.8918919 9.87387387,18.8918919 L9.85585586,18.8918919 C9.8018018,18.8738739 9.76576577,18.8378378 9.78378378,18.7837838 C9.8018018,18.7477477 9.8018018,18.7117117 9.8018018,18.6936937 L9.8018018,18.6936937 Z M10.018018,15.5225225 C10.018018,15.5765766 9.98198198,15.6126126 9.94594595,15.6306306 C9.94594595,15.6306306 9.94594595,15.6306306 9.92792793,15.6306306 C9.87387387,15.6306306 9.83783784,15.5945946 9.83783784,15.5585586 L9.83783784,15.5585586 C9.83783784,15.5225225 9.83783784,15.5045045 9.81981982,15.4684685 C9.81981982,15.4144144 9.85585586,15.3783784 9.89189189,15.3603604 C9.94594595,15.3603604 9.98198198,15.3963964 10,15.4324324 C10.018018,15.4684685 10.018018,15.5045045 10.018018,15.5225225 L10.018018,15.5225225 Z M10.0900901,16.1891892 C10.0900901,16.2432432 10.0540541,16.2792793 10,16.2972973 L10,16.2972973 C9.94594595,16.2972973 9.90990991,16.2612613 9.90990991,16.2072072 L9.90990991,16.1171171 C9.90990991,16.0630631 9.94594595,16.027027 10,16.009009 C10.0540541,16.009009 10.0900901,16.045045 10.1081081,16.0990991 C10.0900901,16.1171171 10.0900901,16.1531532 10.0900901,16.1891892 L10.0900901,16.1891892 Z M10.1441441,16.8378378 C10.1441441,16.8918919 10.1081081,16.9279279 10.0540541,16.9279279 L10.0540541,16.9279279 C10,16.9279279 9.96396396,16.8918919 9.96396396,16.8378378 L9.96396396,16.7477477 C9.96396396,16.6936937 10,16.6576577 10.0540541,16.6576577 C10.1081081,16.6576577 10.1441441,16.6936937 10.1441441,16.7477477 C10.1261261,16.7837838 10.1261261,16.8198198 10.1441441,16.8378378 L10.1441441,16.8378378 Z M10.7747748,11.2882883 L10.7747748,11.2882883 C10.7387387,11.3063063 10.7027027,11.3063063 10.6846847,11.3063063 L10.6486486,11.3063063 C10.6126126,11.3063063 10.5765766,11.2882883 10.5585586,11.2342342 C10.5405405,11.1801802 10.5765766,11.1261261 10.6126126,11.1261261 C10.6306306,11.1261261 10.6666667,11.1081081 10.7027027,11.0900901 C10.7567568,11.0720721 10.8108108,11.1081081 10.8108108,11.1621622 C10.8468468,11.2342342 10.8108108,11.2882883 10.7747748,11.2882883 L10.7747748,11.2882883 Z M11.1711712,13.9009009 C11.1711712,13.954955 11.1351351,13.990991 11.0810811,14.009009 L10.990991,14.009009 L10.990991,14.009009 C10.9369369,14.009009 10.9009009,13.972973 10.9009009,13.9189189 C10.9009009,13.8648649 10.9369369,13.8288288 10.990991,13.8108108 L11.0810811,13.8108108 C11.1171171,13.8108108 11.1711712,13.8468468 11.1711712,13.9009009 L11.1711712,13.9009009 Z M11.4774775,11.0540541 C11.4774775,11.1081081 11.4594595,11.1441441 11.4054054,11.1621622 C11.3693694,11.1621622 11.3513514,11.1801802 11.3153153,11.1801802 L11.2972973,11.1801802 C11.2612613,11.1801802 11.2072072,11.1441441 11.2072072,11.1081081 C11.2072072,11.0540541 11.2252252,11 11.2792793,11 C11.3153153,11 11.3333333,10.981982 11.3693694,10.981982 C11.4234234,10.963964 11.4594595,11 11.4774775,11.0540541 L11.4774775,11.0540541 Z M11.8198198,13.8648649 C11.8198198,13.9189189 11.7837838,13.954955 11.7297297,13.954955 L11.6396396,13.954955 L11.6396396,13.954955 C11.5855856,13.954955 11.5495495,13.9189189 11.5495495,13.8648649 C11.5495495,13.8108108 11.5855856,13.7747748 11.6396396,13.7747748 L11.7297297,13.7747748 C11.7657658,13.7747748 11.8198198,13.8288288 11.8198198,13.8648649 L11.8198198,13.8648649 Z M12.1261261,10.981982 C12.1261261,11.036036 12.0900901,11.0720721 12.036036,11.0720721 L11.9459459,11.0720721 L11.9459459,11.0720721 C11.8918919,11.0720721 11.8558559,11.036036 11.8558559,10.981982 C11.8558559,10.9279279 11.8918919,10.8918919 11.9459459,10.8738739 L12.036036,10.8738739 C12.0720721,10.8918919 12.1261261,10.9459459 12.1261261,10.981982 L12.1261261,10.981982 Z M12.4684685,13.8828829 C12.4684685,13.9369369 12.4324324,13.972973 12.3783784,13.972973 L12.3783784,13.972973 L12.2882883,13.972973 C12.2342342,13.972973 12.1981982,13.9369369 12.1981982,13.8828829 C12.1981982,13.8288288 12.2342342,13.7927928 12.2882883,13.7927928 L12.3783784,13.7927928 C12.4324324,13.7747748 12.4684685,13.8288288 12.4684685,13.8828829 L12.4684685,13.8828829 Z M12.7747748,11.018018 C12.7747748,11.0720721 12.7207207,11.1081081 12.6846847,11.1081081 C12.6846847,11.1081081 12.6846847,11.1081081 12.6666667,11.1081081 L12.5765766,11.1081081 C12.5225225,11.1081081 12.4864865,11.0540541 12.4864865,11 C12.4864865,10.9459459 12.5405405,10.9099099 12.5945946,10.9099099 L12.6846847,10.9099099 C12.7387387,10.9279279 12.7747748,10.963964 12.7747748,11.018018 L12.7747748,11.018018 Z M13.1171171,13.9189189 C13.1171171,13.972973 13.0810811,14.009009 13.027027,14.009009 L13.027027,14.009009 L13.027027,14.009009 L12.9369369,14.009009 C12.8828829,14.009009 12.8468468,13.954955 12.8468468,13.9009009 C12.8468468,13.8468468 12.9009009,13.8108108 12.954955,13.8108108 L13.045045,13.8108108 C13.0990991,13.8288288 13.1351351,13.8648649 13.1171171,13.9189189 L13.1171171,13.9189189 Z M13.1531532,13.6666667 C13.1351351,13.6126126 13.1351351,13.5945946 13.1351351,13.5945946 C13.1171171,13.5405405 13.1351351,13.4864865 13.1891892,13.4684685 C13.2432432,13.4504505 13.2972973,13.4684685 13.3153153,13.5225225 C13.3153153,13.5225225 13.3333333,13.5405405 13.3333333,13.5945946 C13.3513514,13.6486486 13.3153153,13.7027027 13.2792793,13.7207207 L13.2432432,13.7207207 C13.2072072,13.7207207 13.1711712,13.7027027 13.1531532,13.6666667 L13.1531532,13.6666667 L13.1531532,13.6666667 Z M13.4234234,11.1441441 C13.4054054,11.1801802 13.3693694,11.2162162 13.3333333,11.2162162 L13.3153153,11.2162162 L13.3153153,11.2162162 C13.2792793,11.2162162 13.2612613,11.1981982 13.2252252,11.1981982 C13.1711712,11.1801802 13.1351351,11.1441441 13.1531532,11.0900901 C13.1711712,11.036036 13.2072072,11 13.2612613,11.018018 C13.2972973,11.018018 13.3153153,11.036036 13.3513514,11.036036 C13.4054054,11.036036 13.4234234,11.0900901 13.4234234,11.1441441 L13.4234234,11.1441441 Z M13.5135135,14.2432432 C13.5315315,14.2972973 13.4954955,14.3513514 13.4414414,14.3513514 L13.4234234,14.3513514 C13.3873874,14.3513514 13.3513514,14.3153153 13.3333333,14.2792793 C13.3333333,14.2432432 13.3153153,14.2252252 13.3153153,14.1891892 C13.2972973,14.1351351 13.3333333,14.0810811 13.3873874,14.0810811 C13.4414414,14.0630631 13.4954955,14.0990991 13.4954955,14.1531532 C13.4954955,14.1711712 13.4954955,14.2072072 13.5135135,14.2432432 L13.5135135,14.2432432 Z M13.5675676,15.5585586 L13.5675676,15.5585586 C13.5675676,15.5225225 13.5675676,15.5045045 13.5495495,15.4684685 C13.5495495,15.4144144 13.5855856,15.3783784 13.6216216,15.3603604 C13.6756757,15.3603604 13.7117117,15.3963964 13.7297297,15.4324324 C13.7297297,15.4684685 13.7477477,15.4864865 13.7477477,15.5225225 C13.7477477,15.5765766 13.7117117,15.6126126 13.6756757,15.6306306 C13.6756757,15.6306306 13.6756757,15.6306306 13.6576577,15.6306306 C13.6216216,15.6306306 13.5855856,15.5945946 13.5675676,15.5585586 L13.5675676,15.5585586 Z M13.8738739,16.7477477 L13.8738739,16.8378378 C13.8738739,16.8918919 13.8378378,16.9279279 13.7837838,16.9279279 L13.7837838,16.9279279 C13.7297297,16.9279279 13.6936937,16.8918919 13.6936937,16.8378378 L13.6936937,16.7477477 C13.6936937,16.6936937 13.7297297,16.6576577 13.7837838,16.6576577 C13.8198198,16.6576577 13.8558559,16.6936937 13.8738739,16.7477477 L13.8738739,16.7477477 Z M13.7477477,16.2792793 L13.7477477,16.2792793 C13.6936937,16.2792793 13.6576577,16.2432432 13.6396396,16.1891892 L13.6396396,16.0990991 C13.6396396,16.045045 13.6756757,16.009009 13.7297297,15.990991 C13.7837838,15.990991 13.8198198,16.027027 13.8378378,16.0810811 L13.8378378,16.1711712 C13.8378378,16.2432432 13.8018018,16.2792793 13.7477477,16.2792793 L13.7477477,16.2792793 Z M13.8738739,17.4144144 L13.8738739,17.5045045 C13.8738739,17.5585586 13.8378378,17.5945946 13.7837838,17.5945946 L13.7837838,17.5945946 C13.7297297,17.5945946 13.6936937,17.5405405 13.6936937,17.5045045 L13.6936937,17.4144144 C13.6936937,17.3603604 13.7297297,17.3243243 13.7837838,17.3243243 C13.8378378,17.3063063 13.8738739,17.3603604 13.8738739,17.4144144 L13.8738739,17.4144144 Z M13.8198198,18.0630631 C13.8198198,18.0990991 13.8198198,18.1171171 13.8018018,18.1531532 C13.8018018,18.2072072 13.7477477,18.2432432 13.7117117,18.2432432 C13.7117117,18.2432432 13.7117117,18.2432432 13.6936937,18.2432432 C13.6396396,18.2432432 13.6036036,18.1891892 13.6036036,18.1351351 L13.6036036,18.1351351 C13.6036036,18.0990991 13.6036036,18.0810811 13.6216216,18.045045 C13.6216216,17.990991 13.6756757,17.954955 13.7297297,17.954955 C13.8018018,17.972973 13.8378378,18.009009 13.8198198,18.0630631 L13.8198198,18.0630631 Z M13.5495495,15 C13.5135135,15 13.4594595,14.963964 13.4594595,14.9279279 C13.4594595,14.8918919 13.4414414,14.8738739 13.4414414,14.8378378 C13.4234234,14.7837838 13.4594595,14.7297297 13.5135135,14.7297297 C13.5675676,14.7117117 13.6216216,14.7477477 13.6216216,14.8018018 C13.6216216,14.8378378 13.6396396,14.8558559 13.6396396,14.8918919 C13.6576577,14.9279279 13.6216216,14.981982 13.5495495,15 L13.5495495,15 L13.5495495,15 Z M13.7657658,14.009009 C13.7657658,14.0630631 13.7117117,14.0810811 13.6756757,14.0810811 L13.6576577,14.0810811 C13.6216216,14.0810811 13.6036036,14.0630631 13.5675676,14.0630631 C13.5135135,14.0630631 13.4774775,14.009009 13.4954955,13.954955 C13.4954955,13.9009009 13.5495495,13.8648649 13.6036036,13.8828829 C13.6396396,13.8828829 13.6576577,13.8828829 13.6936937,13.9009009 C13.7477477,13.9009009 13.7837838,13.954955 13.7657658,14.009009 L13.7657658,14.009009 Z M13.9459459,11.4144144 L13.9099099,11.4144144 L13.9099099,11.4144144 C13.9099099,11.4144144 13.8738739,11.3963964 13.8198198,11.3783784 C13.7657658,11.3603604 13.7477477,11.3063063 13.7657658,11.2522523 C13.7837838,11.1981982 13.8378378,11.1801802 13.8918919,11.1981982 C13.9459459,11.2162162 13.981982,11.2342342 13.981982,11.2342342 C14.036036,11.2522523 14.0540541,11.3063063 14.036036,11.3603604 C14.018018,11.3783784 13.981982,11.4144144 13.9459459,11.4144144 L13.9459459,11.4144144 Z M13.7117117,20.2612613 C13.7117117,20.2072072 13.7297297,20.1711712 13.7837838,20.1531532 L13.7837838,20.1531532 C13.8198198,20.1531532 13.8378378,20.1351351 13.8738739,20.1351351 C13.9279279,20.1351351 13.963964,20.1531532 13.981982,20.2072072 C13.981982,20.2612613 13.963964,20.2972973 13.9099099,20.3153153 C13.8738739,20.3153153 13.8558559,20.3333333 13.8198198,20.3333333 L13.8018018,20.3333333 C13.7657658,20.3513514 13.7297297,20.3153153 13.7117117,20.2612613 L13.7117117,20.2612613 Z M13.6036036,18.8918919 C13.5495495,18.8738739 13.5135135,18.8378378 13.5315315,18.7837838 C13.5315315,18.7477477 13.5495495,18.7297297 13.5495495,18.6936937 C13.5675676,18.6396396 13.6036036,18.6036036 13.6576577,18.6216216 C13.7117117,18.6396396 13.7477477,18.6756757 13.7297297,18.7297297 C13.7297297,18.7657658 13.7117117,18.7837838 13.7117117,18.8198198 C13.6936937,18.8558559 13.6576577,18.8918919 13.6036036,18.8918919 L13.6036036,18.8918919 L13.6036036,18.8918919 Z M13.4594595,19.5225225 C13.4054054,19.5045045 13.3873874,19.4504505 13.3873874,19.4144144 L13.3873874,19.4144144 C13.3873874,19.3783784 13.4054054,19.3603604 13.4054054,19.3243243 C13.4234234,19.2702703 13.4594595,19.2342342 13.5135135,19.2522523 C13.5675676,19.2702703 13.5855856,19.3063063 13.5855856,19.3603604 C13.5855856,19.3963964 13.5675676,19.4144144 13.5675676,19.4504505 C13.5495495,19.4864865 13.5135135,19.5225225 13.4594595,19.5225225 L13.4594595,19.5225225 L13.4594595,19.5225225 Z M13.2972973,20.1531532 L13.2612613,20.1531532 C13.2072072,20.1351351 13.1891892,20.0810811 13.2072072,20.045045 C13.2072072,20.009009 13.2252252,19.990991 13.2252252,19.954955 C13.2432432,19.9009009 13.2972973,19.8828829 13.3333333,19.9009009 C13.3873874,19.9189189 13.4054054,19.972973 13.3873874,20.009009 C13.3693694,20.045045 13.3693694,20.0630631 13.3513514,20.0990991 C13.3693694,20.1351351 13.3333333,20.1531532 13.2972973,20.1531532 L13.2972973,20.1531532 Z M13.2612613,20.4234234 C13.2252252,20.4234234 13.2072072,20.4234234 13.1711712,20.4414414 C13.1711712,20.4414414 13.1711712,20.4414414 13.1531532,20.4414414 C13.0990991,20.4414414 13.0630631,20.4054054 13.0630631,20.3513514 C13.0630631,20.2972973 13.0990991,20.2612613 13.1531532,20.2432432 L13.1531532,20.2432432 C13.1891892,20.2432432 13.2072072,20.2432432 13.2432432,20.2252252 C13.2972973,20.2252252 13.3333333,20.2612613 13.3513514,20.3153153 C13.3513514,20.3693694 13.3153153,20.4234234 13.2612613,20.4234234 L13.2612613,20.4234234 Z M13.009009,20.6576577 L13.009009,20.6576577 C13.009009,20.6576577 13.027027,20.6216216 13.045045,20.5675676 C13.0630631,20.5135135 13.1171171,20.4954955 13.1711712,20.5135135 C13.2252252,20.5315315 13.2432432,20.5855856 13.2252252,20.6396396 C13.2072072,20.6936937 13.1891892,20.7297297 13.1891892,20.7297297 C13.1711712,20.7657658 13.1351351,20.7837838 13.0990991,20.7837838 L13.0630631,20.7837838 C13.009009,20.7477477 12.990991,20.6936937 13.009009,20.6576577 L13.009009,20.6576577 Z M12.4144144,20.4054054 C12.4144144,20.3513514 12.4504505,20.3153153 12.5045045,20.2972973 L12.5945946,20.2972973 C12.6486486,20.2972973 12.6846847,20.3333333 12.7027027,20.3873874 C12.7027027,20.4414414 12.6666667,20.4774775 12.6126126,20.4954955 L12.5225225,20.4954955 L12.5225225,20.4954955 C12.4684685,20.4954955 12.4144144,20.4594595 12.4144144,20.4054054 L12.4144144,20.4054054 Z M11.7657658,20.4414414 C11.7657658,20.3873874 11.8018018,20.3513514 11.8558559,20.3513514 L11.9459459,20.3513514 C12,20.3513514 12.036036,20.3873874 12.036036,20.4414414 C12.036036,20.4954955 12,20.5315315 11.9459459,20.5315315 L11.8558559,20.5315315 L11.8558559,20.5315315 C11.8018018,20.5315315 11.7657658,20.4774775 11.7657658,20.4414414 L11.7657658,20.4414414 Z M11.1171171,20.4234234 C11.1171171,20.3693694 11.1531532,20.3333333 11.2072072,20.3333333 L11.2972973,20.3333333 C11.3513514,20.3333333 11.3873874,20.3693694 11.3873874,20.4234234 C11.3873874,20.4774775 11.3513514,20.5135135 11.2972973,20.5135135 L11.2972973,20.5135135 L11.2072072,20.5135135 C11.1531532,20.5315315 11.1171171,20.4774775 11.1171171,20.4234234 L11.1171171,20.4234234 Z M10.7207207,16.6396396 C10.7207207,15.990991 11.2612613,15.4504505 11.9099099,15.4504505 C12.5585586,15.4504505 13.0990991,15.990991 13.0990991,16.6396396 C13.0990991,17.2882883 12.5585586,17.8288288 11.9099099,17.8288288 C11.2612613,17.8288288 10.7207207,17.3063063 10.7207207,16.6396396 L10.7207207,16.6396396 Z M10.4504505,20.3873874 C10.4504505,20.3333333 10.5045045,20.2972973 10.5585586,20.2972973 L10.6486486,20.2972973 C10.7027027,20.2972973 10.7387387,20.3513514 10.7387387,20.4054054 C10.7387387,20.4594595 10.7027027,20.4954955 10.6486486,20.4954955 L10.6486486,20.4954955 L10.5585586,20.4954955 C10.4864865,20.4774775 10.4504505,20.4414414 10.4504505,20.3873874 L10.4504505,20.3873874 Z M10.2342342,13.990991 C10.2342342,13.9369369 10.2702703,13.9009009 10.3243243,13.8828829 C10.3603604,13.8828829 10.3783784,13.8828829 10.4144144,13.8648649 C10.4684685,13.8648649 10.5045045,13.9009009 10.5225225,13.954955 C10.5225225,14.009009 10.4864865,14.045045 10.4324324,14.0630631 L10.4324324,14.0630631 C10.3963964,14.0630631 10.3783784,14.0630631 10.3423423,14.0810811 C10.3423423,14.0810811 10.3423423,14.0810811 10.3243243,14.0810811 C10.2882883,14.0630631 10.2342342,14.027027 10.2342342,13.990991 L10.2342342,13.990991 Z M10.036036,17.5945946 L10.036036,17.5945946 C9.98198198,17.5945946 9.94594595,17.5405405 9.94594595,17.5045045 L9.94594595,17.4144144 C9.94594595,17.3603604 9.98198198,17.3243243 10.036036,17.3243243 C10.0900901,17.3243243 10.1261261,17.3603604 10.1261261,17.4144144 L10.1261261,17.5045045 C10.1261261,17.5585586 10.0900901,17.5945946 10.036036,17.5945946 L10.036036,17.5945946 Z M10.0900901,18.0630631 C10.0900901,18.0990991 10.0900901,18.1171171 10.0720721,18.1531532 C10.0720721,18.2072072 10.018018,18.2432432 9.98198198,18.2432432 C9.98198198,18.2432432 9.98198198,18.2432432 9.96396396,18.2432432 C9.90990991,18.2432432 9.87387387,18.1891892 9.87387387,18.1351351 C9.87387387,18.0990991 9.87387387,18.0810811 9.89189189,18.045045 C9.89189189,17.990991 9.94594595,17.954955 10,17.954955 C10.0540541,17.972973 10.0900901,18.009009 10.0900901,18.0630631 L10.0900901,18.0630631 Z M9.8018018,20.2972973 C9.8018018,20.2432432 9.85585586,20.2072072 9.90990991,20.2252252 C9.94594595,20.2252252 9.96396396,20.2432432 10,20.2432432 C10.0540541,20.2432432 10.0900901,20.2972973 10.0720721,20.3513514 C10.0720721,20.4054054 10.018018,20.4234234 9.98198198,20.4234234 C9.98198198,20.4234234 9.98198198,20.4234234 9.96396396,20.4234234 C9.92792793,20.4234234 9.90990991,20.4054054 9.87387387,20.4054054 C9.83783784,20.4054054 9.8018018,20.3513514 9.8018018,20.2972973 L9.8018018,20.2972973 Z M9.71171171,19.5225225 C9.65765766,19.5045045 9.63963964,19.4504505 9.63963964,19.4144144 L9.63963964,19.4144144 C9.63963964,19.3783784 9.65765766,19.3603604 9.65765766,19.3243243 C9.67567568,19.2702703 9.71171171,19.2342342 9.76576577,19.2522523 C9.81981982,19.2702703 9.83783784,19.3063063 9.83783784,19.3603604 C9.83783784,19.3963964 9.81981982,19.4144144 9.81981982,19.4504505 C9.8018018,19.4864865 9.76576577,19.5225225 9.71171171,19.5225225 L9.71171171,19.5225225 L9.71171171,19.5225225 Z M9.47747748,20.045045 L9.47747748,20.045045 C9.47747748,20.009009 9.4954955,19.990991 9.4954955,19.954955 C9.51351351,19.9009009 9.56756757,19.8828829 9.6036036,19.9009009 C9.65765766,19.9189189 9.67567568,19.972973 9.65765766,20.009009 C9.63963964,20.045045 9.63963964,20.0630631 9.62162162,20.0990991 C9.6036036,20.1351351 9.56756757,20.1711712 9.53153153,20.1711712 L9.4954955,20.1711712 C9.4954955,20.1351351 9.45945946,20.0810811 9.47747748,20.045045 L9.47747748,20.045045 Z M9.27927928,20.6576577 C9.27927928,20.6576577 9.2972973,20.6216216 9.31531532,20.5675676 C9.33333333,20.5135135 9.38738739,20.4954955 9.44144144,20.5135135 C9.4954955,20.5315315 9.51351351,20.5855856 9.4954955,20.6396396 C9.47747748,20.6936937 9.45945946,20.7297297 9.45945946,20.7297297 C9.44144144,20.7657658 9.40540541,20.7837838 9.36936937,20.7837838 L9.33333333,20.7837838 C9.27927928,20.7477477 9.24324324,20.6936937 9.27927928,20.6576577 L9.27927928,20.6576577 Z M9.17117117,20.1891892 C9.18918919,20.1351351 9.22522523,20.0990991 9.27927928,20.1171171 C9.31531532,20.1171171 9.33333333,20.1351351 9.36936937,20.1351351 C9.42342342,20.1531532 9.45945946,20.1891892 9.44144144,20.2432432 C9.42342342,20.2792793 9.38738739,20.3153153 9.35135135,20.3153153 L9.33333333,20.3153153 C9.2972973,20.3153153 9.27927928,20.2972973 9.24324324,20.2972973 C9.18918919,20.2792793 9.15315315,20.2252252 9.17117117,20.1891892 L9.17117117,20.1891892 Z M8.54054054,20.009009 C8.55855856,19.954955 8.61261261,19.9369369 8.64864865,19.9369369 L8.64864865,19.9369369 C8.68468468,19.9369369 8.7027027,19.954955 8.73873874,19.954955 C8.79279279,19.972973 8.81081081,20.027027 8.81081081,20.0630631 C8.79279279,20.0990991 8.75675676,20.1351351 8.72072072,20.1351351 L8.7027027,20.1351351 C8.66666667,20.1351351 8.64864865,20.1171171 8.61261261,20.1171171 C8.55855856,20.1171171 8.52252252,20.0630631 8.54054054,20.009009 L8.54054054,20.009009 Z M7.90990991,19.8108108 C7.92792793,19.7567568 7.98198198,19.7387387 8.03603604,19.7567568 C8.07207207,19.7747748 8.09009009,19.7747748 8.12612613,19.7927928 C8.18018018,19.8108108 8.1981982,19.8648649 8.18018018,19.9189189 C8.16216216,19.954955 8.12612613,19.972973 8.09009009,19.972973 L8.05405405,19.972973 C8.01801802,19.954955 8,19.954955 7.96396396,19.9369369 C7.92792793,19.9189189 7.89189189,19.8648649 7.90990991,19.8108108 L7.90990991,19.8108108 Z M7.31531532,19.5765766 C7.33333333,19.5225225 7.38738739,19.5045045 7.44144144,19.5225225 C7.47747748,19.5405405 7.4954955,19.5405405 7.53153153,19.5585586 C7.58558559,19.5765766 7.6036036,19.6306306 7.58558559,19.6846847 C7.56756757,19.7207207 7.53153153,19.7387387 7.4954955,19.7387387 L7.45945946,19.7387387 C7.42342342,19.7207207 7.40540541,19.7207207 7.36936937,19.7027027 C7.31531532,19.6666667 7.2972973,19.6126126 7.31531532,19.5765766 L7.31531532,19.5765766 Z M6.82882883,16.6396396 C6.82882883,15.990991 7.36936937,15.4504505 8.01801802,15.4504505 C8.66666667,15.4504505 9.20720721,15.990991 9.20720721,16.6396396 C9.20720721,17.2882883 8.66666667,17.8288288 8.01801802,17.8288288 C7.35135135,17.8288288 6.82882883,17.3063063 6.82882883,16.6396396 L6.82882883,16.6396396 Z M6.72072072,19.2882883 C6.73873874,19.2342342 6.79279279,19.2162162 6.84684685,19.2522523 C6.88288288,19.2702703 6.9009009,19.2882883 6.93693694,19.2882883 C6.99099099,19.3063063 7.00900901,19.3603604 6.97297297,19.4144144 C6.95495495,19.4504505 6.91891892,19.4684685 6.88288288,19.4684685 C6.86486486,19.4684685 6.84684685,19.4684685 6.84684685,19.4504505 C6.81081081,19.4324324 6.79279279,19.4144144 6.75675676,19.4144144 C6.72072072,19.3963964 6.7027027,19.3243243 6.72072072,19.2882883 L6.72072072,19.2882883 Z M6.54054054,14.963964 C6.57657658,14.9459459 6.59459459,14.9279279 6.63063063,14.9279279 C6.68468468,14.9099099 6.73873874,14.9279279 6.75675676,14.963964 C6.77477477,15.018018 6.75675676,15.0720721 6.72072072,15.0900901 C6.68468468,15.1081081 6.66666667,15.1261261 6.63063063,15.1261261 C6.61261261,15.1261261 6.59459459,15.1441441 6.59459459,15.1441441 C6.55855856,15.1441441 6.52252252,15.1261261 6.5045045,15.0900901 C6.46846847,15.0540541 6.48648649,14.981982 6.54054054,14.963964 L6.54054054,14.963964 Z M6.14414414,18.963964 C6.16216216,18.9279279 6.23423423,18.9099099 6.27027027,18.9279279 L6.27027027,18.9279279 C6.28828829,18.9459459 6.32432432,18.963964 6.34234234,18.981982 C6.37837838,19 6.3963964,19.0720721 6.37837838,19.1081081 C6.36036036,19.1441441 6.32432432,19.1621622 6.30630631,19.1621622 C6.28828829,19.1621622 6.27027027,19.1621622 6.25225225,19.1441441 C6.21621622,19.1261261 6.1981982,19.1081081 6.16216216,19.0900901 C6.14414414,19.0720721 6.12612613,19.018018 6.14414414,18.963964 L6.14414414,18.963964 Z M6.14414414,15.3963964 C6.12612613,15.4144144 6.09009009,15.4324324 6.07207207,15.4504505 C6.05405405,15.4684685 6.03603604,15.4684685 6.01801802,15.4684685 C5.98198198,15.4684685 5.96396396,15.4504505 5.94594595,15.4324324 C5.94594595,15.4504505 5.94594595,15.4684685 5.96396396,15.4864865 C5.98198198,15.5405405 5.94594595,15.5945946 5.89189189,15.5945946 L5.87387387,15.5945946 C5.83783784,15.5945946 5.78378378,15.5585586 5.78378378,15.5225225 C5.78378378,15.4864865 5.76576577,15.4684685 5.76576577,15.4324324 C5.74774775,15.3783784 5.78378378,15.3243243 5.83783784,15.3243243 C5.89189189,15.3063063 5.92792793,15.3423423 5.94594595,15.3783784 C5.94594595,15.3423423 5.96396396,15.3243243 5.98198198,15.3063063 C6,15.2882883 6.03603604,15.2702703 6.07207207,15.2522523 C6.10810811,15.2342342 6.18018018,15.2342342 6.1981982,15.2882883 C6.1981982,15.3063063 6.18018018,15.3783784 6.14414414,15.3963964 L6.14414414,15.3963964 Z M5.87387387,16.1531532 C5.87387387,16.1171171 5.87387387,16.0990991 5.85585586,16.0630631 C5.85585586,16.009009 5.89189189,15.972973 5.92792793,15.954955 C5.98198198,15.954955 6.01801802,15.990991 6.03603604,16.027027 C6.03603604,16.0630631 6.03603604,16.0810811 6.05405405,16.1171171 C6.05405405,16.1711712 6.01801802,16.2072072 5.98198198,16.2252252 C5.98198198,16.2252252 5.98198198,16.2252252 5.96396396,16.2252252 C5.90990991,16.2252252 5.87387387,16.1891892 5.87387387,16.1531532 L5.87387387,16.1531532 Z M6.01801802,16.6036036 C6.07207207,16.6036036 6.10810811,16.6396396 6.10810811,16.6936937 L6.10810811,16.7837838 C6.10810811,16.8378378 6.07207207,16.8738739 6.01801802,16.8738739 L6.01801802,16.8738739 C5.96396396,16.8738739 5.92792793,16.8378378 5.92792793,16.7837838 L5.92792793,16.6936937 C5.92792793,16.6396396 5.96396396,16.6036036 6.01801802,16.6036036 L6.01801802,16.6036036 Z M6.01801802,17.5225225 L6.01801802,17.5225225 C5.96396396,17.5225225 5.92792793,17.4684685 5.92792793,17.4144144 L5.92792793,17.3243243 C5.92792793,17.2702703 5.98198198,17.2342342 6.01801802,17.2342342 C6.07207207,17.2342342 6.10810811,17.2882883 6.10810811,17.3243243 L6.10810811,17.4144144 C6.10810811,17.4864865 6.07207207,17.5225225 6.01801802,17.5225225 L6.01801802,17.5225225 Z M5.92792793,18.1711712 C5.87387387,18.1531532 5.83783784,18.1171171 5.85585586,18.0630631 L5.85585586,18.0630631 C5.85585586,18.027027 5.87387387,18.009009 5.87387387,17.972973 C5.87387387,17.9189189 5.92792793,17.8828829 5.98198198,17.9009009 C6.03603604,17.9009009 6.07207207,17.954955 6.05405405,18.009009 C6.05405405,18.045045 6.03603604,18.0630631 6.03603604,18.0990991 C6.01801802,18.1531532 5.98198198,18.1711712 5.92792793,18.1711712 L5.92792793,18.1711712 L5.92792793,18.1711712 Z M5.74774775,18.8018018 C5.72972973,18.8018018 5.71171171,18.8018018 5.69369369,18.7837838 C5.67567568,18.7657658 5.63963964,18.7477477 5.62162162,18.7297297 C5.58558559,18.6936937 5.56756757,18.6396396 5.6036036,18.6036036 C5.63963964,18.5675676 5.69369369,18.5495495 5.72972973,18.5855856 L5.72972973,18.5855856 C5.74774775,18.5495495 5.78378378,18.5315315 5.83783784,18.5495495 C5.89189189,18.5675676 5.90990991,18.6216216 5.90990991,18.6576577 C5.90990991,18.6936937 5.89189189,18.7117117 5.89189189,18.7477477 C5.87387387,18.7837838 5.83783784,18.8198198 5.8018018,18.8198198 C5.78378378,18.8198198 5.78378378,18.8198198 5.74774775,18.8018018 C5.76576577,18.8198198 5.76576577,18.8018018 5.74774775,18.8018018 L5.74774775,18.8018018 Z M5.51351351,19.3063063 L5.51351351,19.3063063 C5.51351351,19.3063063 5.53153153,19.2702703 5.54954955,19.2162162 C5.56756757,19.1621622 5.62162162,19.1441441 5.67567568,19.1621622 C5.72972973,19.1801802 5.74774775,19.2342342 5.72972973,19.2882883 C5.71171171,19.3423423 5.69369369,19.3783784 5.69369369,19.3783784 C5.67567568,19.4144144 5.63963964,19.4324324 5.6036036,19.4324324 L5.56756757,19.4324324 C5.51351351,19.4144144 5.4954955,19.3603604 5.51351351,19.3063063 L5.51351351,19.3063063 Z M5.40540541,15.6666667 C5.42342342,15.6486486 5.45945946,15.6306306 5.47747748,15.6126126 C5.51351351,15.5765766 5.58558559,15.5945946 5.6036036,15.6306306 C5.63963964,15.6666667 5.62162162,15.7387387 5.58558559,15.7567568 C5.56756757,15.7747748 5.53153153,15.7927928 5.51351351,15.8108108 C5.4954955,15.8288288 5.47747748,15.8288288 5.45945946,15.8288288 C5.42342342,15.8288288 5.40540541,15.8108108 5.38738739,15.7927928 C5.36936937,15.7567568 5.36936937,15.6846847 5.40540541,15.6666667 L5.40540541,15.6666667 Z M5.0990991,18.1891892 C5.13513514,18.1531532 5.18918919,18.1531532 5.22522523,18.1891892 C5.22522523,18.1891892 5.24324324,18.2072072 5.2972973,18.2432432 C5.33333333,18.2792793 5.33333333,18.3333333 5.31531532,18.3693694 C5.27927928,18.4054054 5.26126126,18.4054054 5.24324324,18.4054054 C5.22522523,18.4054054 5.20720721,18.4054054 5.18918919,18.3873874 C5.13513514,18.3513514 5.11711712,18.3153153 5.11711712,18.3153153 C5.06306306,18.2972973 5.06306306,18.2252252 5.0990991,18.1891892 L5.0990991,18.1891892 Z" id="Shape" fill="#2962FF" transform="translate(12.432432, 13.000000) scale(-1, 1) translate(-12.432432, -13.000000) "></path>
            </g>
            <path d="M78.059,48 L80.373,48 C79.398,45.634 78.046,41.773 77.188,38.939 L73.951,38.939 C72.911,41.487 71.494,45.465 70.74,48 L72.976,48 C73.132,47.441 73.327,46.752 73.561,45.998 L77.292,45.998 C77.565,46.765 77.838,47.467 78.059,48 L78.059,48 Z M75.615,40.759 C75.888,41.721 76.278,42.956 76.694,44.191 L74.094,44.191 C74.51,42.93 74.926,41.708 75.277,40.759 L75.615,40.759 Z M82.076,41.344 C81.985,42.943 81.66,44.646 81.231,46.284 L79.983,46.284 L80.425,49.924 L82.063,49.924 L82.063,48 L86.73,48 L86.73,49.924 L88.355,49.924 L88.797,46.284 L87.484,46.284 L87.484,41.344 L82.076,41.344 Z M85.495,43.06 L85.495,46.284 L83.311,46.284 C83.61,45.153 83.818,43.983 83.883,43.06 L85.495,43.06 Z M94.049,44.815 C93.529,43.58 93.061,42.449 92.502,41.344 L89.694,41.344 L89.694,48 L91.67,48 L91.67,43.671 C92.151,44.737 92.827,46.544 93.204,47.649 L94.634,47.649 C95.037,46.518 95.739,44.776 96.246,43.671 L96.246,48 L98.209,48 L98.209,41.344 L95.518,41.344 C94.998,42.436 94.53,43.567 94.049,44.815 L94.049,44.815 Z M104.189,48 L106.178,48 L106.178,41.357 L104.189,41.357 C103.565,42.527 102.655,44.113 101.927,44.997 L101.927,41.357 L99.938,41.357 L99.938,48 L101.927,48 C102.707,46.986 103.513,45.777 104.189,44.516 L104.189,48 Z M109.909,42.982 C110.143,42.891 110.572,42.826 110.923,42.826 C111.872,42.826 112.184,43.112 112.184,44.724 C112.184,46.128 111.885,46.544 110.936,46.544 C110.351,46.544 109.909,46.336 109.909,46.037 L109.909,42.982 Z M107.907,50.496 L109.909,50.496 L109.909,47.883 C110.273,48.039 110.715,48.182 111.365,48.182 C113.016,48.182 114.186,47.363 114.186,44.672 C114.186,41.955 113.185,41.162 110.923,41.162 C109.883,41.162 108.622,41.357 107.907,41.63 L107.907,50.496 Z M121.401,43.749 C121.401,41.773 120.465,41.162 118.476,41.162 C117.488,41.162 116.383,41.318 115.616,41.513 L115.928,43.099 C116.487,42.93 117.228,42.826 117.995,42.826 C119.295,42.826 119.503,43.047 119.503,43.97 C118.996,43.866 118.489,43.801 117.995,43.801 C116.409,43.801 115.395,44.1 115.395,45.972 C115.395,47.714 116.045,48.182 118.242,48.182 C119.217,48.182 120.504,47.987 121.401,47.662 L121.401,43.749 Z M119.503,46.518 C119.191,46.635 118.775,46.7 118.398,46.7 C117.618,46.7 117.449,46.583 117.449,45.907 C117.449,45.244 117.709,45.166 118.424,45.166 C118.827,45.166 119.204,45.179 119.503,45.257 L119.503,46.518 Z M127.082,43.06 L127.082,48 L129.071,48 L129.071,41.344 L123.663,41.344 C123.52,43.606 123.13,46.089 122.571,48 L124.664,48 C125.093,46.596 125.431,44.763 125.548,43.06 L127.082,43.06 Z M134.089,43.06 L136.221,43.06 L136.221,41.344 L129.955,41.344 L129.955,43.06 L132.1,43.06 L132.1,48 L134.089,48 L134.089,43.06 Z M142.227,46.297 C141.733,46.427 140.862,46.518 140.381,46.518 C139.419,46.518 138.938,46.323 138.912,45.257 L142.981,45.257 C143.163,41.838 142.201,41.162 139.991,41.162 C138.08,41.162 136.858,41.955 136.858,44.633 C136.858,47.363 138.249,48.182 140.121,48.182 C140.875,48.182 141.863,48.039 142.526,47.818 L142.227,46.297 Z M140.134,42.67 C140.914,42.67 141.213,42.865 141.239,43.788 L138.925,43.788 C139.042,42.943 139.302,42.67 140.134,42.67 L140.134,42.67 Z M148.597,48 L150.586,48 L150.586,41.357 L148.597,41.357 C147.973,42.527 147.063,44.113 146.335,44.997 L146.335,41.357 L144.346,41.357 L144.346,48 L146.335,48 C147.115,46.986 147.921,45.777 148.597,44.516 L148.597,48 Z M145.399,38.939 C145.399,40.226 146.153,40.798 147.44,40.798 C148.753,40.798 149.481,40.226 149.481,38.939 L148.259,38.939 C148.259,39.433 148.038,39.576 147.635,39.602 C147.596,39.615 147.544,39.615 147.492,39.615 C146.959,39.615 146.699,39.498 146.699,38.939 L145.399,38.939 Z M157.047,46.167 C156.67,46.323 156.111,46.466 155.539,46.466 C154.564,46.466 154.07,46.232 154.07,44.672 C154.07,43.034 154.564,42.865 155.539,42.865 C156.085,42.865 156.67,42.995 157.047,43.138 L157.463,41.448 C156.943,41.266 156.059,41.162 155.37,41.162 C153.394,41.162 152.055,41.929 152.055,44.633 C152.055,47.363 153.381,48.182 155.37,48.182 C156.033,48.182 156.93,48.065 157.463,47.844 L157.047,46.167 Z M165.185,48 C164.002,45.14 163.404,44.659 162.754,44.399 C163.079,44.126 163.924,43.073 165.055,41.344 L162.754,41.344 C161.805,42.735 160.934,43.944 160.453,44.542 L160.453,41.344 L158.451,41.344 L158.451,48 L160.453,48 L160.453,44.997 C161.259,45.205 161.935,45.751 162.897,48 L165.185,48 Z M170.346,48 L172.335,48 L172.335,41.357 L170.346,41.357 C169.722,42.527 168.812,44.113 168.084,44.997 L168.084,41.357 L166.095,41.357 L166.095,48 L168.084,48 C168.864,46.986 169.67,45.777 170.346,44.516 L170.346,48 Z M179.173,46.297 C178.679,46.427 177.808,46.518 177.327,46.518 C176.365,46.518 175.884,46.323 175.858,45.257 L179.927,45.257 C180.109,41.838 179.147,41.162 176.937,41.162 C175.026,41.162 173.804,41.955 173.804,44.633 C173.804,47.363 175.195,48.182 177.067,48.182 C177.821,48.182 178.809,48.039 179.472,47.818 L179.173,46.297 Z M177.08,42.67 C177.86,42.67 178.159,42.865 178.185,43.788 L175.871,43.788 C175.988,42.943 176.248,42.67 177.08,42.67 L177.08,42.67 Z M74.159,60.219 L74.159,58.139 L76.642,58.139 C77.11,58.139 77.357,58.477 77.357,59.218 C77.357,59.92 77.136,60.219 76.694,60.219 L74.159,60.219 Z M74.159,54.72 L76.629,54.72 C77.032,54.72 77.214,54.954 77.214,55.578 C77.214,56.202 77.032,56.436 76.629,56.436 L74.159,56.436 L74.159,54.72 Z M77.526,57.229 C79.151,57.099 79.463,56.371 79.463,55.11 C79.463,53.693 79.008,52.939 77.201,52.939 L72.066,52.939 L72.066,62 L77.24,62 C78.709,62 79.632,61.376 79.632,59.556 C79.632,58.139 79.255,57.307 77.526,57.229 L77.526,57.229 Z M86.366,60.297 C85.872,60.427 85.001,60.518 84.52,60.518 C83.558,60.518 83.077,60.323 83.051,59.257 L87.12,59.257 C87.302,55.838 86.34,55.162 84.13,55.162 C82.219,55.162 80.997,55.955 80.997,58.633 C80.997,61.363 82.388,62.182 84.26,62.182 C85.014,62.182 86.002,62.039 86.665,61.818 L86.366,60.297 Z M84.273,56.67 C85.053,56.67 85.352,56.865 85.378,57.788 L83.064,57.788 C83.181,56.943 83.441,56.67 84.273,56.67 L84.273,56.67 Z M90.487,56.982 C90.721,56.891 91.15,56.826 91.501,56.826 C92.45,56.826 92.762,57.112 92.762,58.724 C92.762,60.128 92.463,60.544 91.514,60.544 C90.929,60.544 90.487,60.336 90.487,60.037 L90.487,56.982 Z M88.485,64.496 L90.487,64.496 L90.487,61.883 C90.851,62.039 91.293,62.182 91.943,62.182 C93.594,62.182 94.764,61.363 94.764,58.672 C94.764,55.955 93.763,55.162 91.501,55.162 C90.461,55.162 89.2,55.357 88.485,55.63 L88.485,64.496 Z M99.808,55.24 C99.561,55.175 99.301,55.162 98.989,55.162 C96.792,55.162 95.973,55.955 95.973,58.672 C95.973,61.363 96.961,62.182 98.534,62.182 C99.132,62.182 99.522,62.039 99.808,61.883 L99.808,64.496 L101.81,64.496 L101.81,61.883 C102.109,62.039 102.499,62.182 103.084,62.182 C104.657,62.182 105.645,61.363 105.645,58.672 C105.645,55.955 104.826,55.162 102.629,55.162 C102.317,55.162 102.057,55.175 101.81,55.24 L101.81,52.692 L99.808,52.692 L99.808,55.24 Z M98.963,60.544 C98.235,60.544 97.884,60.128 97.884,58.724 C97.884,57.112 98.196,56.826 98.989,56.826 C99.327,56.826 99.574,56.865 99.808,56.943 L99.808,60.063 C99.808,60.336 99.509,60.544 98.963,60.544 L98.963,60.544 Z M102.655,60.544 C102.122,60.544 101.823,60.349 101.81,60.076 L101.81,56.943 C102.057,56.865 102.291,56.826 102.629,56.826 C103.422,56.826 103.734,57.112 103.734,58.724 C103.734,60.128 103.396,60.544 102.655,60.544 L102.655,60.544 Z M111.352,62 L113.341,62 L113.341,55.357 L111.352,55.357 C110.728,56.527 109.818,58.113 109.09,58.997 L109.09,55.357 L107.101,55.357 L107.101,62 L109.09,62 C109.87,60.986 110.676,59.777 111.352,58.516 L111.352,62 Z" id="Адмиралтейские-" fill="#FFFFFF"></path>
            <g id="Group" transform="translate(301.000000, 135.000000)" fill="#F40A54">
                <path d="M0.7,14.2333333 L0.7,70 L8.78888889,70 L8.78888889,58.4888889 L15.0111111,58.4888889 L15.0111111,70 L15.6333333,70 L15.6333333,58.4888889 L21.5444444,58.4888889 L21.5444444,70 L29.9444444,70 L29.9444444,14.2333333 L0.7,14.2333333 L0.7,14.2333333 Z M13.5333333,52.2666667 L6.06666667,52.2666667 L6.06666667,41.5333333 C6.06666667,41.5333333 7.15555556,38.8888889 9.8,38.8888889 C12.4444444,38.8888889 13.5333333,41.5333333 13.5333333,41.5333333 L13.5333333,52.2666667 L13.5333333,52.2666667 Z M13.5333333,35.3888889 L6.06666667,35.3888889 L6.06666667,24.6555556 C6.06666667,24.6555556 7.15555556,22.0111111 9.8,22.0111111 C12.4444444,22.0111111 13.5333333,24.6555556 13.5333333,24.6555556 L13.5333333,35.3888889 L13.5333333,35.3888889 Z M24.6555556,52.5 L17.1888889,52.5 L17.1888889,41.7666667 C17.1888889,41.7666667 18.2777778,39.1222222 20.9222222,39.1222222 C23.5666667,39.1222222 24.6555556,41.7666667 24.6555556,41.7666667 L24.6555556,52.5 L24.6555556,52.5 Z M24.6555556,35.4666667 L17.1888889,35.4666667 L17.1888889,24.7333333 C17.1888889,24.7333333 18.2777778,22.0888889 20.9222222,22.0888889 C23.5666667,22.0888889 24.6555556,24.7333333 24.6555556,24.7333333 L24.6555556,35.4666667 L24.6555556,35.4666667 Z" id="Shape"></path>
                <path d="M42.7777778,5.52222222 L31.8111111,14.3888889 L31.8111111,70 L53.9,70 L53.9,14.3888889 L42.7777778,5.52222222 L42.7777778,5.52222222 Z M39.2777778,60.9777778 L34.3,60.9777778 L34.3,55.6111111 L39.2777778,55.6111111 L39.2777778,60.9777778 L39.2777778,60.9777778 Z M39.2777778,55.1444444 L34.3,55.1444444 L34.3,51.2555556 L39.2777778,51.2555556 L39.2777778,55.1444444 L39.2777778,55.1444444 Z M39.2777778,46.5111111 L34.3,46.5111111 L34.3,41.1444444 L39.2777778,41.1444444 L39.2777778,46.5111111 L39.2777778,46.5111111 Z M39.2777778,40.6 L34.3,40.6 L34.3,36.7111111 L39.2777778,36.7111111 L39.2777778,40.6 L39.2777778,40.6 Z M39.2777778,31.9666667 L34.3,31.9666667 L34.3,26.6 L39.2777778,26.6 L39.2777778,31.9666667 L39.2777778,31.9666667 Z M39.2777778,26.1333333 L34.3,26.1333333 L34.3,22.2444444 L39.2777778,22.2444444 L39.2777778,26.1333333 L39.2777778,26.1333333 Z M45.2666667,60.9777778 L40.2888889,60.9777778 L40.2888889,55.6111111 L45.2666667,55.6111111 L45.2666667,60.9777778 L45.2666667,60.9777778 Z M45.2666667,55.1444444 L40.2888889,55.1444444 L40.2888889,51.2555556 L45.2666667,51.2555556 L45.2666667,55.1444444 L45.2666667,55.1444444 Z M45.2666667,46.5111111 L40.2888889,46.5111111 L40.2888889,41.1444444 L45.2666667,41.1444444 L45.2666667,46.5111111 L45.2666667,46.5111111 Z M45.2666667,40.6 L40.2888889,40.6 L40.2888889,36.7111111 L45.2666667,36.7111111 L45.2666667,40.6 L45.2666667,40.6 Z M45.2666667,31.9666667 L40.2888889,31.9666667 L40.2888889,26.6 L45.2666667,26.6 L45.2666667,31.9666667 L45.2666667,31.9666667 Z M45.2666667,26.1333333 L40.2888889,26.1333333 L40.2888889,22.2444444 L45.2666667,22.2444444 L45.2666667,26.1333333 L45.2666667,26.1333333 Z M51.4111111,60.9777778 L46.4333333,60.9777778 L46.4333333,55.6111111 L51.4111111,55.6111111 L51.4111111,60.9777778 L51.4111111,60.9777778 Z M51.4111111,55.1444444 L46.4333333,55.1444444 L46.4333333,51.2555556 L51.4111111,51.2555556 L51.4111111,55.1444444 L51.4111111,55.1444444 Z M51.4111111,46.5111111 L46.4333333,46.5111111 L46.4333333,41.1444444 L51.4111111,41.1444444 L51.4111111,46.5111111 L51.4111111,46.5111111 Z M51.4111111,40.6 L46.4333333,40.6 L46.4333333,36.7111111 L51.4111111,36.7111111 L51.4111111,40.6 L51.4111111,40.6 Z M51.4111111,31.9666667 L46.4333333,31.9666667 L46.4333333,26.6 L51.4111111,26.6 L51.4111111,31.9666667 L51.4111111,31.9666667 Z M51.4111111,26.1333333 L46.4333333,26.1333333 L46.4333333,22.2444444 L51.4111111,22.2444444 L51.4111111,26.1333333 L51.4111111,26.1333333 Z" id="Shape"></path>
                <polygon id="Shape" points="54.0555556 12.6 58.4111111 12.6 42.7777778 0 27.3 12.6 31.6555556 12.6 42.7777778 3.5"></polygon>
            </g>
        </g>
    </g>
</svg>