<?xml version="1.0" encoding="UTF-8" standalone="no"?>
<svg width="500px" height="448px" viewBox="0 0 500 448" version="1.1" xmlns="http://www.w3.org/2000/svg" xmlns:xlink="http://www.w3.org/1999/xlink">
    <!-- Generator: Sketch 3.8.3 (29802) - http://www.bohemiancoding.com/sketch -->
    <title>Artboard 2 Copy</title>
    <desc>Created with Sketch.</desc>
    <defs></defs>
    <g id="Page-1" stroke="none" stroke-width="1" fill="none" fill-rule="evenodd">
        <g id="Artboard-2-Copy">
            <rect id="Rectangle-10" fill="#03152C" x="-23" y="-22" width="923" height="488"></rect>
            <rect id="Rectangle-16" fill="#616C7B" x="484" y="386" width="6" height="68"></rect>
            <rect id="Rectangle-14" fill="#F5F5F5" transform="translate(175.315077, 184.053710) rotate(-3.000000) translate(-175.315077, -184.053710) " x="-74.1849232" y="181.05371" width="499" height="6"></rect>
            <rect id="Rectangle-12" fill="#616C7B" x="421" y="50" width="6" height="331"></rect>
            <rect id="Rectangle-12" fill="#F5F5F5" x="318" y="177" width="2" height="200"></rect>
            <rect id="Rectangle-15" fill="#616C7B" transform="translate(628.000000, 86.000000) rotate(-2.000000) translate(-628.000000, -86.000000) " x="425" y="83" width="406" height="6"></rect>
            <polygon id="Path-10" fill="#1E57F2" points="-44 70 -2 67 12 35 31 34 57 55 312 60 639 -85 726 -84 331 99 45 96 12 116 -48 108"></polygon>
            <path d="M-61,338 L744,371.922027 C744,371.922027 865,383.617934 881,373.871345 C897,364.124756 942,292 942,292 L944,325.138402 C944,325.138402 907,394.304094 884,406 C861,417.695906 744,403 744,403 L-61,373 L-61,338 Z" id="Path-11" fill="#1047DE"></path>
            <path d="M82.3353129,356.075778 C78.3033129,356.075778 76.2333129,357.425778 76.2333129,362.519778 C76.2333129,367.685778 78.3033129,369.179778 82.3353129,369.179778 C86.3493129,369.179778 88.4373129,367.685778 88.4373129,362.519778 C88.4373129,357.425778 86.3493129,356.075778 82.3353129,356.075778 L82.3353129,356.075778 Z M82.3353129,366.533778 C79.7973129,366.533778 79.3293129,366.029778 79.3293129,362.555778 C79.3293129,359.135778 79.7973129,358.739778 82.3353129,358.739778 C84.8733129,358.739778 85.3413129,359.135778 85.3413129,362.555778 C85.3413129,366.029778 84.8733129,366.533778 82.3353129,366.533778 L82.3353129,366.533778 Z M92.9733129,364.499778 C92.9733129,362.681778 93.2253129,362.195778 94.5213129,362.195778 C95.7453129,362.195778 96.1233129,362.573778 96.1233129,364.481778 C96.1233129,366.785778 95.6913129,366.983778 94.4673129,366.983778 C93.4233129,366.983778 92.9733129,366.569778 92.9733129,364.499778 L92.9733129,364.499778 Z M92.9733129,360.845778 C93.1533129,359.441778 93.4593129,358.721778 95.0613129,358.595778 C96.5553129,358.469778 97.6713129,358.325778 98.4453129,357.983778 L98.4453129,355.607778 C97.4553129,355.985778 96.2853129,356.165778 94.8813129,356.273778 C91.4253129,356.525778 90.1833129,357.425778 90.1833129,363.509778 C90.1833129,368.297778 91.7673129,369.179778 94.3773129,369.179778 C97.5093129,369.179778 98.9313129,368.135778 98.9313129,364.427778 C98.9313129,360.737778 97.5453129,359.873778 95.2413129,359.873778 C94.2873129,359.873778 93.4593129,360.197778 92.9733129,360.845778 L92.9733129,360.845778 Z M103.701313,366.875778 L103.701313,365.165778 L105.933313,365.165778 C106.473313,365.165778 106.761313,365.381778 106.761313,366.065778 C106.761313,366.695778 106.509313,366.875778 106.005313,366.875778 L103.701313,366.875778 Z M103.701313,361.763778 L105.915313,361.763778 C106.383313,361.763778 106.599313,361.925778 106.599313,362.501778 C106.599313,363.041778 106.383313,363.239778 105.915313,363.239778 L103.701313,363.239778 L103.701313,361.763778 Z M107.229313,364.085778 C109.065313,363.959778 109.443313,363.221778 109.443313,361.925778 C109.443313,360.485778 108.903313,359.711778 106.797313,359.711778 L100.929313,359.711778 L100.929313,368.927778 L106.851313,368.927778 C108.561313,368.927778 109.623313,368.297778 109.623313,366.443778 C109.623313,365.003778 109.173313,364.157778 107.229313,364.085778 L107.229313,364.085778 Z M115.725313,369.179778 C118.731313,369.179778 120.225313,368.045778 120.225313,364.265778 C120.225313,360.503778 118.713313,359.459778 115.725313,359.459778 C112.791313,359.459778 111.261313,360.503778 111.261313,364.265778 C111.261313,368.045778 112.755313,369.179778 115.725313,369.179778 L115.725313,369.179778 Z M115.725313,361.619778 C117.039313,361.619778 117.417313,361.907778 117.417313,364.319778 C117.417313,366.641778 117.039313,367.019778 115.725313,367.019778 C114.429313,367.019778 114.051313,366.641778 114.051313,364.319778 C114.051313,361.907778 114.429313,361.619778 115.725313,361.619778 L115.725313,361.619778 Z M123.987313,359.711778 C123.861313,361.925778 123.411313,364.283778 122.817313,366.551778 L121.089313,366.551778 L121.701313,371.591778 L123.969313,371.591778 L123.969313,368.927778 L130.431313,368.927778 L130.431313,371.591778 L132.681313,371.591778 L133.293313,366.551778 L131.475313,366.551778 L131.475313,359.711778 L123.987313,359.711778 Z M128.721313,362.087778 L128.721313,366.551778 L125.697313,366.551778 C126.111313,364.985778 126.399313,363.365778 126.489313,362.087778 L128.721313,362.087778 Z M140.241313,365.309778 L140.241313,368.927778 L142.995313,368.927778 L142.995313,359.729778 L140.241313,359.729778 L140.241313,362.951778 L137.289313,362.951778 L137.289313,359.729778 L134.535313,359.729778 L134.535313,368.927778 L137.289313,368.927778 L137.289313,365.309778 L140.241313,365.309778 Z M150.429313,366.983778 L148.143313,366.983778 L148.143313,364.949778 L150.375313,364.949778 C150.915313,364.949778 151.221313,365.255778 151.221313,365.957778 C151.221313,366.659778 150.933313,366.983778 150.429313,366.983778 L150.429313,366.983778 Z M148.143313,362.879778 L148.143313,359.729778 L145.389313,359.729778 L145.389313,368.927778 L151.221313,368.927778 C153.039313,368.927778 154.083313,368.171778 154.083313,365.921778 C154.083313,363.941778 153.039313,362.879778 151.221313,362.879778 L148.143313,362.879778 Z M157.665313,359.729778 L154.893313,359.729778 L154.893313,368.927778 L157.665313,368.927778 L157.665313,359.729778 Z M165.927313,368.927778 L168.681313,368.927778 L168.681313,359.729778 L165.927313,359.729778 C165.063313,361.349778 163.803313,363.545778 162.795313,364.769778 L162.795313,359.729778 L160.041313,359.729778 L160.041313,368.927778 L162.795313,368.927778 C163.875313,367.523778 164.991313,365.849778 165.927313,364.103778 L165.927313,368.927778 Z M161.499313,356.381778 C161.499313,358.163778 162.543313,358.955778 164.325313,358.955778 C166.143313,358.955778 167.151313,358.163778 167.151313,356.381778 L165.459313,356.381778 C165.459313,357.065778 165.153313,357.263778 164.595313,357.299778 C164.541313,357.317778 164.469313,357.317778 164.397313,357.317778 C163.659313,357.317778 163.299313,357.155778 163.299313,356.381778 L161.499313,356.381778 Z M185.025313,368.927778 C183.387313,364.967778 182.559313,364.301778 181.659313,363.941778 C182.109313,363.563778 183.279313,362.105778 184.845313,359.711778 L181.659313,359.711778 C180.345313,361.637778 179.139313,363.311778 178.473313,364.139778 L178.473313,359.711778 L175.701313,359.711778 L175.701313,368.927778 L178.473313,368.927778 L178.473313,364.769778 C179.589313,365.057778 180.525313,365.813778 181.857313,368.927778 L185.025313,368.927778 Z M194.241313,363.041778 C194.241313,360.305778 192.945313,359.459778 190.191313,359.459778 C188.823313,359.459778 187.293313,359.675778 186.231313,359.945778 L186.663313,362.141778 C187.437313,361.907778 188.463313,361.763778 189.525313,361.763778 C191.325313,361.763778 191.613313,362.069778 191.613313,363.347778 C190.911313,363.203778 190.209313,363.113778 189.525313,363.113778 C187.329313,363.113778 185.925313,363.527778 185.925313,366.119778 C185.925313,368.531778 186.825313,369.179778 189.867313,369.179778 C191.217313,369.179778 192.999313,368.909778 194.241313,368.459778 L194.241313,363.041778 Z M191.613313,366.875778 C191.181313,367.037778 190.605313,367.127778 190.083313,367.127778 C189.003313,367.127778 188.769313,366.965778 188.769313,366.029778 C188.769313,365.111778 189.129313,365.003778 190.119313,365.003778 C190.677313,365.003778 191.199313,365.021778 191.613313,365.129778 L191.613313,366.875778 Z M202.233313,365.309778 L202.233313,368.927778 L204.987313,368.927778 L204.987313,359.729778 L202.233313,359.729778 L202.233313,362.951778 L199.281313,362.951778 L199.281313,359.729778 L196.527313,359.729778 L196.527313,368.927778 L199.281313,368.927778 L199.281313,365.309778 L202.233313,365.309778 Z M215.337313,363.041778 C215.337313,360.305778 214.041313,359.459778 211.287313,359.459778 C209.919313,359.459778 208.389313,359.675778 207.327313,359.945778 L207.759313,362.141778 C208.533313,361.907778 209.559313,361.763778 210.621313,361.763778 C212.421313,361.763778 212.709313,362.069778 212.709313,363.347778 C212.007313,363.203778 211.305313,363.113778 210.621313,363.113778 C208.425313,363.113778 207.021313,363.527778 207.021313,366.119778 C207.021313,368.531778 207.921313,369.179778 210.963313,369.179778 C212.313313,369.179778 214.095313,368.909778 215.337313,368.459778 L215.337313,363.041778 Z M212.709313,366.875778 C212.277313,367.037778 211.701313,367.127778 211.179313,367.127778 C210.099313,367.127778 209.865313,366.965778 209.865313,366.029778 C209.865313,365.111778 210.225313,365.003778 211.215313,365.003778 C211.773313,365.003778 212.295313,365.021778 212.709313,365.129778 L212.709313,366.875778 Z M223.203313,362.087778 L223.203313,368.927778 L225.957313,368.927778 L225.957313,359.711778 L218.469313,359.711778 C218.271313,362.843778 217.731313,366.281778 216.957313,368.927778 L219.855313,368.927778 C220.449313,366.983778 220.917313,364.445778 221.079313,362.087778 L223.203313,362.087778 Z" id="Обводный-канал" fill="#FFFFFF" transform="translate(151.095313, 363.599778) rotate(2.000000) translate(-151.095313, -363.599778) "></path>
            <path d="M148.772,75.598 C149.096,75.472 149.69,75.382 150.176,75.382 C151.49,75.382 151.922,75.778 151.922,78.01 C151.922,79.954 151.508,80.53 150.194,80.53 C149.384,80.53 148.772,80.242 148.772,79.828 L148.772,75.598 Z M146,86.002 L148.772,86.002 L148.772,82.384 C149.276,82.6 149.888,82.798 150.788,82.798 C153.074,82.798 154.694,81.664 154.694,77.938 C154.694,74.176 153.308,73.078 150.176,73.078 C148.736,73.078 146.99,73.348 146,73.726 L146,86.002 Z M158.222,79.594 C156.998,79.594 156.584,79.81 156.584,81.07 C156.584,82.438 156.998,82.672 158.222,82.672 C159.482,82.672 159.878,82.438 159.878,81.07 C159.878,79.81 159.482,79.594 158.222,79.594 L158.222,79.594 Z M171.434,70 L171.434,71.44 C167.258,71.656 166.16,73.006 166.16,76.246 C166.16,79.486 167.258,80.854 171.434,81.07 L171.434,82.546 L174.332,82.546 L174.332,81.052 C178.544,80.836 179.786,79.486 179.786,76.246 C179.786,73.024 178.562,71.656 174.332,71.44 L174.332,70 L171.434,70 Z M176.798,76.246 C176.798,78.046 176.51,78.64 174.332,78.712 L174.332,73.816 C176.51,73.87 176.798,74.446 176.798,76.246 L176.798,76.246 Z M169.094,76.246 C169.094,74.464 169.418,73.888 171.434,73.816 L171.434,78.712 C169.418,78.622 169.094,78.01 169.094,76.246 L169.094,76.246 Z M185.762,82.798 C188.768,82.798 190.262,81.664 190.262,77.884 C190.262,74.122 188.75,73.078 185.762,73.078 C182.828,73.078 181.298,74.122 181.298,77.884 C181.298,81.664 182.792,82.798 185.762,82.798 L185.762,82.798 Z M185.762,75.238 C187.076,75.238 187.454,75.526 187.454,77.938 C187.454,80.26 187.076,80.638 185.762,80.638 C184.466,80.638 184.088,80.26 184.088,77.938 C184.088,75.526 184.466,75.238 185.762,75.238 L185.762,75.238 Z M197.984,78.928 L197.984,82.546 L200.738,82.546 L200.738,73.348 L197.984,73.348 L197.984,76.57 L195.032,76.57 L195.032,73.348 L192.278,73.348 L192.278,82.546 L195.032,82.546 L195.032,78.928 L197.984,78.928 Z M207.704,75.706 L210.656,75.706 L210.656,73.33 L201.98,73.33 L201.98,75.706 L204.95,75.706 L204.95,82.546 L207.704,82.546 L207.704,75.706 Z M219.854,76.66 C219.854,73.924 218.558,73.078 215.804,73.078 C214.436,73.078 212.906,73.294 211.844,73.564 L212.276,75.76 C213.05,75.526 214.076,75.382 215.138,75.382 C216.938,75.382 217.226,75.688 217.226,76.966 C216.524,76.822 215.822,76.732 215.138,76.732 C212.942,76.732 211.538,77.146 211.538,79.738 C211.538,82.15 212.438,82.798 215.48,82.798 C216.83,82.798 218.612,82.528 219.854,82.078 L219.854,76.66 Z M217.226,80.494 C216.794,80.656 216.218,80.746 215.696,80.746 C214.616,80.746 214.382,80.584 214.382,79.648 C214.382,78.73 214.742,78.622 215.732,78.622 C216.29,78.622 216.812,78.64 217.226,78.748 L217.226,80.494 Z M227.846,78.928 L227.846,82.546 L230.6,82.546 L230.6,73.348 L227.846,73.348 L227.846,76.57 L224.894,76.57 L224.894,73.348 L222.14,73.348 L222.14,82.546 L224.894,82.546 L224.894,78.928 L227.846,78.928 Z M242.318,82.546 C240.68,78.586 239.852,77.92 238.952,77.56 C239.402,77.182 240.572,75.724 242.138,73.33 L238.952,73.33 C237.638,75.256 236.432,76.93 235.766,77.758 L235.766,73.33 L232.994,73.33 L232.994,82.546 L235.766,82.546 L235.766,78.388 C236.882,78.676 237.818,79.432 239.15,82.546 L242.318,82.546 Z M251.534,76.66 C251.534,73.924 250.238,73.078 247.484,73.078 C246.116,73.078 244.586,73.294 243.524,73.564 L243.956,75.76 C244.73,75.526 245.756,75.382 246.818,75.382 C248.618,75.382 248.906,75.688 248.906,76.966 C248.204,76.822 247.502,76.732 246.818,76.732 C244.622,76.732 243.218,77.146 243.218,79.738 C243.218,82.15 244.118,82.798 247.16,82.798 C248.51,82.798 250.292,82.528 251.534,82.078 L251.534,76.66 Z M248.906,80.494 C248.474,80.656 247.898,80.746 247.376,80.746 C246.296,80.746 246.062,80.584 246.062,79.648 C246.062,78.73 246.422,78.622 247.412,78.622 C247.97,78.622 248.492,78.64 248.906,78.748 L248.906,80.494 Z" id="р.-Фонтанка" fill="#FFFFFF"></path>
            <path d="M372.187,427.219 L372.187,425.139 L374.67,425.139 C375.138,425.139 375.385,425.477 375.385,426.218 C375.385,426.92 375.164,427.219 374.722,427.219 L372.187,427.219 Z M376.997,419.939 L370.094,419.939 L370.094,429 L375.268,429 C376.737,429 377.66,428.376 377.66,426.231 C377.66,424.372 376.815,423.436 375.229,423.436 L372.187,423.436 L372.187,421.772 L376.997,421.772 L376.997,419.939 Z M385.031,424.749 C385.031,422.773 384.095,422.162 382.106,422.162 C381.118,422.162 380.013,422.318 379.246,422.513 L379.558,424.099 C380.117,423.93 380.858,423.826 381.625,423.826 C382.925,423.826 383.133,424.047 383.133,424.97 C382.626,424.866 382.119,424.801 381.625,424.801 C380.039,424.801 379.025,425.1 379.025,426.972 C379.025,428.714 379.675,429.182 381.872,429.182 C382.847,429.182 384.134,428.987 385.031,428.662 L385.031,424.749 Z M383.133,427.518 C382.821,427.635 382.405,427.7 382.028,427.7 C381.248,427.7 381.079,427.583 381.079,426.907 C381.079,426.244 381.339,426.166 382.054,426.166 C382.457,426.166 382.834,426.179 383.133,426.257 L383.133,427.518 Z M390.712,424.06 L390.712,429 L392.701,429 L392.701,422.344 L387.293,422.344 C387.15,424.606 386.76,427.089 386.201,429 L388.294,429 C388.723,427.596 389.061,425.763 389.178,424.06 L390.712,424.06 Z M397.719,424.06 L399.851,424.06 L399.851,422.344 L393.585,422.344 L393.585,424.06 L395.73,424.06 L395.73,429 L397.719,429 L397.719,424.06 Z M404.999,429 L406.988,429 L406.988,422.357 L404.999,422.357 C404.375,423.527 403.465,425.113 402.737,425.997 L402.737,422.357 L400.748,422.357 L400.748,429 L402.737,429 C403.517,427.986 404.323,426.777 404.999,425.516 L404.999,429 Z M412.968,429 L414.957,429 L414.957,422.357 L412.968,422.357 C412.344,423.527 411.434,425.113 410.706,425.997 L410.706,422.357 L408.717,422.357 L408.717,429 L410.706,429 C411.486,427.986 412.292,426.777 412.968,425.516 L412.968,429 Z M409.77,419.939 C409.77,421.226 410.524,421.798 411.811,421.798 C413.124,421.798 413.852,421.226 413.852,419.939 L412.63,419.939 C412.63,420.433 412.409,420.576 412.006,420.602 C411.967,420.615 411.915,420.615 411.863,420.615 C411.33,420.615 411.07,420.498 411.07,419.939 L409.77,419.939 Z M421.418,427.167 C421.041,427.323 420.482,427.466 419.91,427.466 C418.935,427.466 418.441,427.232 418.441,425.672 C418.441,424.034 418.935,423.865 419.91,423.865 C420.456,423.865 421.041,423.995 421.418,424.138 L421.834,422.448 C421.314,422.266 420.43,422.162 419.741,422.162 C417.765,422.162 416.426,422.929 416.426,425.633 C416.426,428.363 417.752,429.182 419.741,429.182 C420.404,429.182 421.301,429.065 421.834,428.844 L421.418,427.167 Z M429.556,429 C428.373,426.14 427.775,425.659 427.125,425.399 C427.45,425.126 428.295,424.073 429.426,422.344 L427.125,422.344 C426.176,423.735 425.305,424.944 424.824,425.542 L424.824,422.344 L422.822,422.344 L422.822,429 L424.824,429 L424.824,425.997 C425.63,426.205 426.306,426.751 427.268,429 L429.556,429 Z M436.212,424.749 C436.212,422.773 435.276,422.162 433.287,422.162 C432.299,422.162 431.194,422.318 430.427,422.513 L430.739,424.099 C431.298,423.93 432.039,423.826 432.806,423.826 C434.106,423.826 434.314,424.047 434.314,424.97 C433.807,424.866 433.3,424.801 432.806,424.801 C431.22,424.801 430.206,425.1 430.206,426.972 C430.206,428.714 430.856,429.182 433.053,429.182 C434.028,429.182 435.315,428.987 436.212,428.662 L436.212,424.749 Z M434.314,427.518 C434.002,427.635 433.586,427.7 433.209,427.7 C432.429,427.7 432.26,427.583 432.26,426.907 C432.26,426.244 432.52,426.166 433.235,426.166 C433.638,426.166 434.015,426.179 434.314,426.257 L434.314,427.518 Z M442.14,425.308 L440.541,425.308 C440.164,425.308 439.917,425.113 439.917,424.606 C439.917,424.099 440.138,423.917 440.528,423.917 L442.14,423.917 L442.14,425.308 Z M439.631,426.179 C438.565,426.322 438.084,426.803 437.265,429 L439.54,429 C440.125,427.206 440.476,426.842 441.256,426.842 L442.14,426.842 L442.14,429 L444.142,429 L444.142,422.344 L439.878,422.344 C438.305,422.344 437.759,423.202 437.759,424.294 C437.759,425.256 438.214,426.101 439.631,426.179 L439.631,426.179 Z" id="Балтийская" fill="#FFFFFF"></path>
            <g id="Group" transform="translate(452.000000, 412.000000)">
                <circle id="Oval-2" fill="#F9F9F9" cx="12.5" cy="12.5" r="12.5"></circle>
                <path d="M17.0152837,7.43468784 C18.1609616,8.52983553 18.8686022,10.0546532 18.8686022,11.7225855 C18.8686022,14.510985 16.8973798,16.8698231 14.2184082,17.5858311 L14.2184082,17.5858311 L14.7070845,18.1755678 L18.7338549,18.1755678 C20.1406601,16.7265998 21,14.7806969 21,12.6576665 C21,9.13630698 18.6412705,6.12883451 15.3558274,5 L12.5000543,14.0981584 L9.64417256,5 C6.35872949,6.12883451 4,9.13630698 4,12.6576665 C4,14.7806969 4.85933994,16.7265998 6.26614506,18.1755678 L10.2845482,18.1755678 L10.7815918,17.5858311 L10.7732244,17.5858311 C8.09425279,16.8698231 6.12303041,14.510985 6.12303041,11.7225855 C6.12303041,10.0545445 6.83067099,8.5382029 7.97634891,7.43468784 C8.08588541,7.30830792 8.30484975,7.24093428 8.51555539,7.2746211 C8.72615235,7.31678396 8.92838195,7.46000729 9.02944241,7.77166472 L12.1801382,17.8049041 C12.2811987,17.8133801 12.3907352,17.8133801 12.5002717,17.8133801 C12.6098082,17.8133801 12.7108686,17.8133801 12.8204051,17.8049041 L15.9709923,7.76318868 C16.0552093,7.51042885 16.2321195,7.34199475 16.4428251,7.28309714 C16.6276679,7.24093428 16.8298975,7.28309714 17.0152837,7.43468784 L17.0152837,7.43468784 L17.0152837,7.43468784 Z" id="Shape" fill="#2962FF"></path>
            </g>
            <circle id="Oval-5" fill="#F40A54" cx="307.5" cy="190.5" r="4.5"></circle>
            <path d="M39.3747154,169.727319 L39.3747154,165.965319 L42.5067154,165.965319 C43.2987154,165.965319 43.7307154,166.523319 43.7307154,167.891319 C43.7307154,169.205319 43.2267154,169.727319 42.4707154,169.727319 L39.3747154,169.727319 Z M39.3747154,176.027319 L39.3747154,172.121319 L43.4967154,172.121319 C45.8367154,172.121319 46.9167154,170.159319 46.9167154,167.891319 C46.9167154,165.317319 46.0527154,163.481319 43.4787154,163.481319 L36.4767154,163.481319 L36.4767154,176.027319 L39.3747154,176.027319 Z M54.3867154,176.027319 L57.1407154,176.027319 L57.1407154,166.829319 L54.3867154,166.829319 C53.5227154,168.449319 52.2627154,170.645319 51.2547154,171.869319 L51.2547154,166.829319 L48.5007154,166.829319 L48.5007154,176.027319 L51.2547154,176.027319 C52.3347154,174.623319 53.4507154,172.949319 54.3867154,171.203319 L54.3867154,176.027319 Z M61.5507154,176.027319 C62.7747154,173.075319 63.7647154,172.157319 64.7007154,171.869319 L64.7007154,176.027319 L67.4727154,176.027319 L67.4727154,171.869319 C68.4087154,172.157319 69.3807154,173.075319 70.6227154,176.027319 L73.7547154,176.027319 C72.2247154,172.067319 71.2887154,171.419319 70.4427154,171.041319 C70.8567154,170.663319 72.1347154,169.205319 73.5747154,166.811319 L70.4247154,166.811319 C69.2727154,168.683319 68.1207154,170.321319 67.4727154,171.185319 L67.4727154,166.811319 L64.7007154,166.811319 L64.7007154,171.185319 C64.0347154,170.321319 62.9007154,168.683319 61.7307154,166.811319 L58.5807154,166.811319 C60.0387154,169.205319 61.2987154,170.663319 61.7127154,171.041319 C60.8667154,171.419319 59.9487154,172.067319 58.4187154,176.027319 L61.5507154,176.027319 Z M81.5667154,173.489319 C81.0447154,173.705319 80.2707154,173.903319 79.4787154,173.903319 C78.1287154,173.903319 77.4447154,173.579319 77.4447154,171.419319 C77.4447154,169.151319 78.1287154,168.917319 79.4787154,168.917319 C80.2347154,168.917319 81.0447154,169.097319 81.5667154,169.295319 L82.1427154,166.955319 C81.4227154,166.703319 80.1987154,166.559319 79.2447154,166.559319 C76.5087154,166.559319 74.6547154,167.621319 74.6547154,171.365319 C74.6547154,175.145319 76.4907154,176.279319 79.2447154,176.279319 C80.1627154,176.279319 81.4047154,176.117319 82.1427154,175.811319 L81.5667154,173.489319 Z M92.8347154,176.027319 C91.1967154,172.067319 90.3687154,171.401319 89.4687154,171.041319 C89.9187154,170.663319 91.0887154,169.205319 92.6547154,166.811319 L89.4687154,166.811319 C88.1547154,168.737319 86.9487154,170.411319 86.2827154,171.239319 L86.2827154,166.811319 L83.5107154,166.811319 L83.5107154,176.027319 L86.2827154,176.027319 L86.2827154,171.869319 C87.3987154,172.157319 88.3347154,172.913319 89.6667154,176.027319 L92.8347154,176.027319 Z M99.9807154,176.027319 L102.734715,176.027319 L102.734715,166.829319 L99.9807154,166.829319 C99.1167154,168.449319 97.8567154,170.645319 96.8487154,171.869319 L96.8487154,166.829319 L94.0947154,166.829319 L94.0947154,176.027319 L96.8487154,176.027319 C97.9287154,174.623319 99.0447154,172.949319 99.9807154,171.203319 L99.9807154,176.027319 Z M111.014715,176.027319 L113.768715,176.027319 L113.768715,166.829319 L111.014715,166.829319 C110.150715,168.449319 108.890715,170.645319 107.882715,171.869319 L107.882715,166.829319 L105.128715,166.829319 L105.128715,176.027319 L107.882715,176.027319 C108.962715,174.623319 110.078715,172.949319 111.014715,171.203319 L111.014715,176.027319 Z M106.586715,163.481319 C106.586715,165.263319 107.630715,166.055319 109.412715,166.055319 C111.230715,166.055319 112.238715,165.263319 112.238715,163.481319 L110.546715,163.481319 C110.546715,164.165319 110.240715,164.363319 109.682715,164.399319 C109.628715,164.417319 109.556715,164.417319 109.484715,164.417319 C108.746715,164.417319 108.386715,164.255319 108.386715,163.481319 L106.586715,163.481319 Z M123.560715,169.187319 L126.494715,169.187319 L126.494715,176.027319 L129.266715,176.027319 L129.266715,166.811319 L120.788715,166.811319 L120.788715,176.027319 L123.560715,176.027319 L123.560715,169.187319 Z M134.414715,169.079319 C134.738715,168.953319 135.332715,168.863319 135.818715,168.863319 C137.132715,168.863319 137.564715,169.259319 137.564715,171.491319 C137.564715,173.435319 137.150715,174.011319 135.836715,174.011319 C135.026715,174.011319 134.414715,173.723319 134.414715,173.309319 L134.414715,169.079319 Z M131.642715,179.483319 L134.414715,179.483319 L134.414715,175.865319 C134.918715,176.081319 135.530715,176.279319 136.430715,176.279319 C138.716715,176.279319 140.336715,175.145319 140.336715,171.419319 C140.336715,167.657319 138.950715,166.559319 135.818715,166.559319 C134.378715,166.559319 132.632715,166.829319 131.642715,167.207319 L131.642715,179.483319 Z M143.864715,173.075319 C142.640715,173.075319 142.226715,173.291319 142.226715,174.551319 C142.226715,175.919319 142.640715,176.153319 143.864715,176.153319 C145.124715,176.153319 145.520715,175.919319 145.520715,174.551319 C145.520715,173.291319 145.124715,173.075319 143.864715,173.075319 L143.864715,173.075319 Z" id="Рижский-пр." fill="#FFFFFF" transform="translate(90.998715, 171.482319) rotate(-3.000000) translate(-90.998715, -171.482319) "></path>
            <path d="M166.582,202.454 L157.906,202.454 C157.744,206.144 157.096,209.384 156.142,212.336 L154.126,212.336 L154.522,217.772 L157.114,217.772 L157.114,215 L165.826,215 L165.826,217.772 L168.4,217.772 L168.796,212.336 L166.582,212.336 L166.582,202.454 Z M163.702,212.336 L159.274,212.336 C159.994,209.906 160.354,207.386 160.57,204.992 L163.702,204.992 L163.702,212.336 Z M172.756,208.052 C173.08,207.926 173.674,207.836 174.16,207.836 C175.474,207.836 175.906,208.232 175.906,210.464 C175.906,212.408 175.492,212.984 174.178,212.984 C173.368,212.984 172.756,212.696 172.756,212.282 L172.756,208.052 Z M169.984,218.456 L172.756,218.456 L172.756,214.838 C173.26,215.054 173.872,215.252 174.772,215.252 C177.058,215.252 178.678,214.118 178.678,210.392 C178.678,206.63 177.292,205.532 174.16,205.532 C172.72,205.532 170.974,205.802 169.984,206.18 L169.984,218.456 Z M184.816,215.252 C187.822,215.252 189.316,214.118 189.316,210.338 C189.316,206.576 187.804,205.532 184.816,205.532 C181.882,205.532 180.352,206.576 180.352,210.338 C180.352,214.118 181.846,215.252 184.816,215.252 L184.816,215.252 Z M184.816,207.692 C186.13,207.692 186.508,207.98 186.508,210.392 C186.508,212.714 186.13,213.092 184.816,213.092 C183.52,213.092 183.142,212.714 183.142,210.392 C183.142,207.98 183.52,207.692 184.816,207.692 L184.816,207.692 Z M194.104,212.948 L194.104,211.238 L196.336,211.238 C196.876,211.238 197.164,211.454 197.164,212.138 C197.164,212.768 196.912,212.948 196.408,212.948 L194.104,212.948 Z M194.104,207.836 L196.318,207.836 C196.786,207.836 197.002,207.998 197.002,208.574 C197.002,209.114 196.786,209.312 196.318,209.312 L194.104,209.312 L194.104,207.836 Z M197.632,210.158 C199.468,210.032 199.846,209.294 199.846,207.998 C199.846,206.558 199.306,205.784 197.2,205.784 L191.332,205.784 L191.332,215 L197.254,215 C198.964,215 200.026,214.37 200.026,212.516 C200.026,211.076 199.576,210.23 197.632,210.158 L197.632,210.158 Z M207.946,209.888 L205.732,209.888 C205.21,209.888 204.868,209.618 204.868,208.916 C204.868,208.214 205.174,207.962 205.714,207.962 L207.946,207.962 L207.946,209.888 Z M204.472,211.094 C202.996,211.292 202.33,211.958 201.196,215 L204.346,215 C205.156,212.516 205.642,212.012 206.722,212.012 L207.946,212.012 L207.946,215 L210.718,215 L210.718,205.784 L204.814,205.784 C202.636,205.784 201.88,206.972 201.88,208.484 C201.88,209.816 202.51,210.986 204.472,211.094 L204.472,211.094 Z M218.8,211.382 L218.8,215 L221.554,215 L221.554,205.802 L218.8,205.802 L218.8,209.024 L215.848,209.024 L215.848,205.802 L213.094,205.802 L213.094,215 L215.848,215 L215.848,211.382 L218.8,211.382 Z M231.904,209.114 C231.904,206.378 230.608,205.532 227.854,205.532 C226.486,205.532 224.956,205.748 223.894,206.018 L224.326,208.214 C225.1,207.98 226.126,207.836 227.188,207.836 C228.988,207.836 229.276,208.142 229.276,209.42 C228.574,209.276 227.872,209.186 227.188,209.186 C224.992,209.186 223.588,209.6 223.588,212.192 C223.588,214.604 224.488,215.252 227.53,215.252 C228.88,215.252 230.662,214.982 231.904,214.532 L231.904,209.114 Z M229.276,212.948 C228.844,213.11 228.268,213.2 227.746,213.2 C226.666,213.2 226.432,213.038 226.432,212.102 C226.432,211.184 226.792,211.076 227.782,211.076 C228.34,211.076 228.862,211.094 229.276,211.202 L229.276,212.948 Z M240.112,209.888 L237.898,209.888 C237.376,209.888 237.034,209.618 237.034,208.916 C237.034,208.214 237.34,207.962 237.88,207.962 L240.112,207.962 L240.112,209.888 Z M236.638,211.094 C235.162,211.292 234.496,211.958 233.362,215 L236.512,215 C237.322,212.516 237.808,212.012 238.888,212.012 L240.112,212.012 L240.112,215 L242.884,215 L242.884,205.784 L236.98,205.784 C234.802,205.784 234.046,206.972 234.046,208.484 C234.046,209.816 234.676,210.986 236.638,211.094 L236.638,211.094 Z M251.668,215.45 C251.218,216.44 250.66,217.592 250.156,218.456 L253.198,218.456 C253.648,217.574 254.098,216.53 254.512,215.558 C255.88,212.39 257.104,208.988 258.022,205.802 L255.268,205.802 C254.764,207.908 254.044,210.104 253.306,212.21 C252.73,210.014 252.028,207.728 251.29,205.802 L248.5,205.802 C249.58,208.664 250.768,212.192 251.668,215.45 L251.668,215.45 Z M264.682,208.16 L264.682,215 L267.436,215 L267.436,205.784 L259.948,205.784 C259.75,208.916 259.21,212.354 258.436,215 L261.334,215 C261.928,213.056 262.396,210.518 262.558,208.16 L264.682,208.16 Z M271.306,212.048 C270.082,212.048 269.668,212.264 269.668,213.524 C269.668,214.892 270.082,215.126 271.306,215.126 C272.566,215.126 272.962,214.892 272.962,213.524 C272.962,212.264 272.566,212.048 271.306,212.048 L271.306,212.048 Z M278.65,213.11 L275.482,213.11 L274.06,217.862 L276.526,217.862 L278.65,213.11 Z M286.948,205.784 C286.822,207.998 286.372,210.356 285.778,212.624 L284.05,212.624 L284.662,217.664 L286.93,217.664 L286.93,215 L293.392,215 L293.392,217.664 L295.642,217.664 L296.254,212.624 L294.436,212.624 L294.436,205.784 L286.948,205.784 Z M291.682,208.16 L291.682,212.624 L288.658,212.624 C289.072,211.058 289.36,209.438 289.45,208.16 L291.682,208.16 Z M298.99,212.048 C297.766,212.048 297.352,212.264 297.352,213.524 C297.352,214.892 297.766,215.126 298.99,215.126 C300.25,215.126 300.646,214.892 300.646,213.524 C300.646,212.264 300.25,212.048 298.99,212.048 L298.99,212.048 Z M309.43,215 L309.43,201.878 L303.004,204.272 L303.76,206.72 L306.568,205.586 L306.568,215 L309.43,215 Z" id="Дровяная-ул.,-д.1" fill="#F40A54"></path>
            <g id="Group-2" transform="translate(8.000000, 16.000000)">
                <circle id="Oval-2" fill="#F9F9F9" cx="12.5" cy="12.5" r="12.5"></circle>
                <path d="M4,17.0720721 C4,19.2342342 7.44144144,21 11.6756757,21 C14.1441441,21 16.3423423,20.4054054 17.7297297,19.4864865 L19.6756757,19.4864865 L20.8648649,18.2972973 L19.027027,18.2252252 C19.2252252,17.8828829 19.3333333,17.5405405 19.3513514,17.1621622 L19.8918919,17.1621622 C19.8378378,17.2522523 19.8198198,17.3963964 19.8198198,17.5765766 C19.8198198,17.8468468 19.8918919,18.045045 19.963964,18.045045 C20.0540541,18.045045 20.1081081,17.8288288 20.1081081,17.5765766 C20.1081081,17.3963964 20.0720721,17.2522523 20.036036,17.1621622 L20.1981982,17.1621622 L20.1981982,17.0900901 L20,17.0900901 C20.0720721,17.036036 20.1081081,16.8558559 20.1081081,16.6396396 C20.1081081,16.3693694 20.036036,16.1711712 19.963964,16.1711712 C19.8738739,16.1711712 19.8198198,16.3873874 19.8198198,16.6396396 C19.8198198,16.8558559 19.8738739,17.0540541 19.9279279,17.0900901 L19.3513514,17.0900901 L19.3513514,17.0900901 C19.3513514,16.7297297 19.2612613,16.3873874 19.0810811,16.0630631 L20.8648649,15.990991 L19.6756757,14.8018018 L17.9099099,14.8018018 C17.009009,14.1711712 15.7477477,13.6666667 14.2882883,13.3963964 L14.2882883,11.0720721 C14.2882883,10.7657658 14.036036,10.5135135 13.7297297,10.5135135 L13.6936937,10.5135135 L13.6936937,6.06306306 C13.6936937,6.00900901 13.6756757,5.95495495 13.6576577,5.91891892 L13.6576577,5.55855856 C13.6576577,5.25225225 13.4054054,5 13.0990991,5 L10.7387387,5 C10.4324324,5 10.1801802,5.25225225 10.1801802,5.55855856 L10.1801802,6.02702703 C10.1801802,6.33333333 10.4324324,6.58558559 10.7387387,6.58558559 L12.8288288,6.58558559 L12.8288288,10.5135135 L12.3783784,10.5135135 L12.3783784,9.41441441 C12.3783784,9.25225225 12.2522523,9.12612613 12.0900901,9.12612613 C11.9279279,9.12612613 11.8018018,9.25225225 11.8018018,9.41441441 L11.8018018,10.5135135 L10.8648649,10.5135135 C10.5585586,10.5135135 10.3063063,10.7657658 10.3063063,11.0720721 L10.3063063,13.2162162 C6.72072072,13.5585586 4,15.1441441 4,17.0720721 L4,17.0720721 Z M11.0990991,5.97297297 C11.0990991,6.17117117 10.9369369,6.33333333 10.7387387,6.33333333 C10.5405405,6.33333333 10.3783784,6.17117117 10.3783784,5.97297297 L10.3783784,5.57657658 C10.3783784,5.37837838 10.5405405,5.21621622 10.7387387,5.21621622 C10.9369369,5.21621622 11.0990991,5.37837838 11.0990991,5.57657658 L11.0990991,5.97297297 L11.0990991,5.97297297 Z M15.045045,14.2972973 C15.027027,14.3333333 14.990991,14.3693694 14.954955,14.3693694 L14.9369369,14.3693694 C14.9009009,14.3693694 14.8828829,14.3513514 14.8468468,14.3513514 C14.7927928,14.3333333 14.7747748,14.2792793 14.7747748,14.2432432 C14.7927928,14.1891892 14.8468468,14.1711712 14.8828829,14.1711712 C14.9189189,14.1711712 14.9369369,14.1891892 14.972973,14.1891892 C15.027027,14.1891892 15.0630631,14.2432432 15.045045,14.2972973 L15.045045,14.2972973 Z M15.6576577,14.4954955 C15.6396396,14.5315315 15.6036036,14.5495495 15.5675676,14.5495495 L15.5315315,14.5495495 C15.4954955,14.5315315 15.4774775,14.5315315 15.4414414,14.5135135 C15.3873874,14.4954955 15.3693694,14.4414414 15.3873874,14.3873874 C15.4054054,14.3333333 15.4594595,14.3153153 15.5135135,14.3333333 C15.5495495,14.3513514 15.5675676,14.3513514 15.6036036,14.3693694 C15.6576577,14.3873874 15.6756757,14.4414414 15.6576577,14.4954955 L15.6576577,14.4954955 Z M16.2702703,14.7297297 C16.2522523,14.7657658 16.2162162,14.8018018 16.1801802,14.8018018 L16.1441441,14.8018018 L16.1441441,14.8018018 C16.1081081,14.7837838 16.0900901,14.7837838 16.0540541,14.7657658 C16,14.7477477 15.981982,14.6936937 16,14.6396396 C16.018018,14.5855856 16.0720721,14.5675676 16.1261261,14.5855856 C16.1621622,14.6036036 16.1801802,14.6036036 16.2162162,14.6216216 C16.2702703,14.6396396 16.2882883,14.6936937 16.2702703,14.7297297 L16.2702703,14.7297297 Z M16.8648649,15.018018 C16.8468468,15.0540541 16.8108108,15.0720721 16.7747748,15.0720721 C16.7567568,15.0720721 16.7387387,15.0720721 16.7387387,15.0540541 L16.7387387,15.0540541 C16.7027027,15.036036 16.6846847,15.018018 16.6486486,15.018018 C16.5945946,15 16.5765766,14.9459459 16.6126126,14.8918919 C16.6306306,14.8378378 16.6846847,14.8198198 16.7387387,14.8558559 C16.7747748,14.8738739 16.7927928,14.8918919 16.8288288,14.8918919 C16.8648649,14.9099099 16.8828829,14.981982 16.8648649,15.018018 L16.8648649,15.018018 Z M17.4054054,14.9459459 L17.3693694,14.9459459 C17.3333333,14.9459459 17.2972973,14.9279279 17.2792793,14.8738739 L17.2792793,14.8738739 L17.2792793,14.8558559 C17.2612613,14.8018018 17.2792793,14.7477477 17.3333333,14.7297297 C17.3873874,14.7117117 17.4414414,14.7297297 17.4594595,14.7837838 C17.4594595,14.7837838 17.4594595,14.7837838 17.4594595,14.8018018 C17.4774775,14.8738739 17.4594595,14.9279279 17.4054054,14.9459459 L17.4054054,14.9459459 Z M17.5675676,15.5765766 L17.5675676,15.5765766 C17.5135135,15.5765766 17.4594595,15.5405405 17.4594595,15.5045045 C17.4594595,15.4684685 17.4414414,15.4504505 17.4414414,15.4144144 C17.4234234,15.3603604 17.4594595,15.3063063 17.5135135,15.3063063 C17.5675676,15.2882883 17.6216216,15.3243243 17.6216216,15.3783784 C17.6216216,15.4144144 17.6396396,15.4324324 17.6396396,15.4684685 C17.6576577,15.5225225 17.6216216,15.5765766 17.5675676,15.5765766 L17.5675676,15.5765766 Z M17.5495495,18.5495495 C17.6036036,18.5675676 17.6216216,18.6216216 17.6216216,18.6576577 C17.6216216,18.6936937 17.6036036,18.7117117 17.6036036,18.7477477 C17.5855856,18.7837838 17.5495495,18.8198198 17.5135135,18.8198198 L17.4954955,18.8198198 C17.4414414,18.8018018 17.4234234,18.7477477 17.4234234,18.7117117 C17.4234234,18.6756757 17.4414414,18.6576577 17.4414414,18.6216216 C17.4414414,18.5675676 17.4954955,18.5315315 17.5495495,18.5495495 L17.5495495,18.5495495 Z M17.7477477,16.027027 C17.7477477,16.0630631 17.7477477,16.0810811 17.7657658,16.1171171 C17.7657658,16.1711712 17.7297297,16.2072072 17.6936937,16.2252252 C17.6936937,16.2252252 17.6936937,16.2252252 17.6756757,16.2252252 C17.6216216,16.2252252 17.5855856,16.1891892 17.5855856,16.1531532 C17.5855856,16.1171171 17.5855856,16.0990991 17.5675676,16.0630631 C17.5675676,16.009009 17.6036036,15.972973 17.6396396,15.954955 C17.6936937,15.9369369 17.7297297,15.972973 17.7477477,16.027027 L17.7477477,16.027027 Z M17.7117117,16.6036036 C17.7657658,16.6036036 17.8018018,16.6396396 17.8198198,16.6936937 L17.8198198,16.7837838 C17.8198198,16.8378378 17.7837838,16.8738739 17.7297297,16.8738739 L17.7297297,16.8738739 C17.6756757,16.8738739 17.6396396,16.8378378 17.6396396,16.7837838 L17.6396396,16.6936937 C17.6216216,16.6396396 17.6576577,16.6036036 17.7117117,16.6036036 L17.7117117,16.6036036 Z M18.2702703,15.9189189 C18.3063063,15.8828829 18.3603604,15.8828829 18.3963964,15.9009009 C18.4504505,15.9369369 18.4684685,15.972973 18.4684685,15.972973 C18.5045045,16.009009 18.5045045,16.0630631 18.4684685,16.0990991 C18.4504505,16.1171171 18.4324324,16.1351351 18.3963964,16.1351351 C18.3783784,16.1351351 18.3423423,16.1351351 18.3243243,16.1171171 C18.3243243,16.1171171 18.3063063,16.0990991 18.2522523,16.0630631 C18.2522523,16.027027 18.2342342,15.972973 18.2702703,15.9189189 L18.2702703,15.9189189 Z M17.981982,18.5495495 C18,18.5315315 18.036036,18.5135135 18.0540541,18.4954955 C18.0900901,18.4594595 18.1621622,18.4774775 18.1801802,18.5135135 C18.2162162,18.5495495 18.1981982,18.6216216 18.1621622,18.6396396 C18.1441441,18.6576577 18.1081081,18.6756757 18.0900901,18.6936937 C18.0720721,18.7117117 18.0540541,18.7117117 18.036036,18.7117117 C18,18.7117117 17.981982,18.6936937 17.963964,18.6756757 C17.9279279,18.6396396 17.9459459,18.5855856 17.981982,18.5495495 L17.981982,18.5495495 Z M17.8558559,15.7207207 C17.8378378,15.7027027 17.8018018,15.6846847 17.7837838,15.6666667 C17.7477477,15.6306306 17.7297297,15.5765766 17.7657658,15.5405405 C17.8018018,15.5045045 17.8558559,15.4864865 17.8918919,15.5225225 C17.9099099,15.5405405 17.9459459,15.5585586 17.963964,15.5765766 C18,15.6126126 18.018018,15.6666667 17.981982,15.7027027 C17.963964,15.7207207 17.9279279,15.7387387 17.9099099,15.7387387 C17.8738739,15.7387387 17.8558559,15.7387387 17.8558559,15.7207207 L17.8558559,15.7207207 Z M17.7297297,17.5405405 C17.7117117,17.5405405 17.7117117,17.5225225 17.7297297,17.5405405 C17.6756757,17.5405405 17.6396396,17.4864865 17.6396396,17.4324324 L17.6396396,17.3423423 C17.6396396,17.2882883 17.6936937,17.2522523 17.7297297,17.2522523 C17.7837838,17.2522523 17.8198198,17.3063063 17.8198198,17.3423423 L17.8198198,17.4324324 C17.8198198,17.4864865 17.7657658,17.5405405 17.7297297,17.5405405 L17.7297297,17.5405405 Z M17.6396396,18.1711712 C17.6396396,18.1711712 17.6216216,18.1711712 17.6396396,18.1711712 C17.5675676,18.1531532 17.5315315,18.1171171 17.5495495,18.0630631 L17.5495495,18.0630631 C17.5495495,18.027027 17.5675676,18.009009 17.5675676,17.972973 C17.5675676,17.9189189 17.6216216,17.8828829 17.6756757,17.9009009 C17.7297297,17.9009009 17.7657658,17.954955 17.7477477,18.009009 C17.7477477,18.045045 17.7297297,18.0630631 17.7297297,18.0990991 C17.7297297,18.1531532 17.6756757,18.1711712 17.6396396,18.1711712 L17.6396396,18.1711712 Z M17.4054054,19.036036 C17.3873874,19 17.3873874,18.9279279 17.4414414,18.9099099 L17.4414414,18.9099099 C17.4774775,18.8918919 17.4954955,18.8738739 17.5135135,18.8558559 C17.5495495,18.8198198 17.6216216,18.8378378 17.6396396,18.8918919 C17.6576577,18.9279279 17.6576577,19 17.6036036,19.018018 C17.5855856,19.036036 17.5495495,19.0540541 17.5315315,19.0720721 C17.5135135,19.0720721 17.4954955,19.0900901 17.4774775,19.0900901 C17.4594595,19.0900901 17.4234234,19.0720721 17.4054054,19.036036 L17.4054054,19.036036 Z M17.2072072,19.3063063 C17.2072072,19.3063063 17.2252252,19.2702703 17.2432432,19.2162162 C17.2612613,19.1621622 17.3153153,19.1441441 17.3693694,19.1621622 C17.4234234,19.1801802 17.4414414,19.2342342 17.4234234,19.2882883 C17.4054054,19.3423423 17.3873874,19.3783784 17.3873874,19.3783784 C17.3693694,19.4144144 17.3333333,19.4324324 17.2972973,19.4324324 L17.2612613,19.4324324 C17.2072072,19.4144144 17.1891892,19.3603604 17.2072072,19.3063063 L17.2072072,19.3063063 Z M17.1891892,15.1981982 C17.2072072,15.1621622 17.2792793,15.1441441 17.3153153,15.1621622 C17.3513514,15.1801802 17.3693694,15.1981982 17.3873874,15.2162162 C17.4234234,15.2342342 17.4414414,15.3063063 17.4234234,15.3423423 C17.4054054,15.3783784 17.3693694,15.3963964 17.3513514,15.3963964 C17.3333333,15.3963964 17.3153153,15.3963964 17.2972973,15.3783784 C17.2792793,15.3603604 17.2432432,15.3423423 17.2252252,15.3243243 C17.1711712,15.3063063 17.1711712,15.2522523 17.1891892,15.1981982 L17.1891892,15.1981982 Z M16.8828829,19.2162162 C16.9189189,19.1981982 16.9369369,19.1801802 16.972973,19.1801802 C17.027027,19.1621622 17.0810811,19.1801802 17.0990991,19.2162162 C17.1171171,19.2702703 17.0990991,19.3243243 17.0630631,19.3423423 C17.027027,19.3603604 17.009009,19.3783784 16.972973,19.3783784 C16.954955,19.3783784 16.9369369,19.3963964 16.9369369,19.3963964 C16.9009009,19.3963964 16.8648649,19.3783784 16.8468468,19.3423423 C16.8108108,19.2882883 16.8288288,19.2342342 16.8828829,19.2162162 L16.8828829,19.2162162 Z M16.2882883,19.4864865 C16.3243243,19.4684685 16.3423423,19.4684685 16.3783784,19.4504505 C16.4324324,19.4324324 16.4864865,19.4504505 16.5045045,19.5045045 C16.5225225,19.5585586 16.5045045,19.6126126 16.4504505,19.6306306 C16.4144144,19.6486486 16.3963964,19.6486486 16.3603604,19.6666667 L16.3243243,19.6666667 C16.2882883,19.6666667 16.2522523,19.6486486 16.2342342,19.6126126 C16.2162162,19.5585586 16.2342342,19.5045045 16.2882883,19.4864865 L16.2882883,19.4864865 Z M15.6756757,19.7027027 C15.7117117,19.6846847 15.7297297,19.6846847 15.7657658,19.6666667 C15.8198198,19.6486486 15.8738739,19.6846847 15.8918919,19.7207207 C15.9099099,19.7747748 15.8738739,19.8288288 15.8378378,19.8468468 C15.8018018,19.8648649 15.7837838,19.8648649 15.7477477,19.8828829 L15.7117117,19.8828829 C15.6756757,19.8828829 15.6396396,19.8648649 15.6216216,19.8108108 C15.6036036,19.7747748 15.6396396,19.7207207 15.6756757,19.7027027 L15.6756757,19.7027027 Z M15.0630631,19.8828829 L15.0630631,19.8828829 C15.0990991,19.8828829 15.1171171,19.8648649 15.1531532,19.8648649 C15.2072072,19.8468468 15.2612613,19.8828829 15.2612613,19.9369369 C15.2792793,19.990991 15.2432432,20.045045 15.1891892,20.045045 C15.1531532,20.045045 15.1351351,20.0630631 15.0990991,20.0630631 L15.0810811,20.0630631 C15.045045,20.0630631 15.009009,20.027027 14.990991,19.990991 C14.972973,19.954955 15.009009,19.9009009 15.0630631,19.8828829 L15.0630631,19.8828829 Z M14.6486486,16.6396396 C14.6486486,15.990991 15.1891892,15.4504505 15.8378378,15.4504505 C16.4864865,15.4504505 17.027027,15.990991 17.027027,16.6396396 C17.027027,17.2882883 16.4864865,17.8288288 15.8378378,17.8288288 C15.1711712,17.8288288 14.6486486,17.3063063 14.6486486,16.6396396 L14.6486486,16.6396396 Z M14.4324324,20.045045 C14.4684685,20.045045 14.4864865,20.027027 14.5225225,20.027027 C14.5765766,20.009009 14.6306306,20.045045 14.6306306,20.0990991 C14.6486486,20.1531532 14.6126126,20.2072072 14.5585586,20.2072072 C14.5225225,20.2072072 14.5045045,20.2252252 14.4684685,20.2252252 L14.4504505,20.2252252 C14.4144144,20.2252252 14.3603604,20.1891892 14.3603604,20.1531532 C14.3423423,20.0990991 14.3783784,20.045045 14.4324324,20.045045 L14.4324324,20.045045 Z M14.1441441,14.0630631 C14.1621622,14.009009 14.1981982,13.972973 14.2522523,13.990991 C14.2882883,13.990991 14.3063063,14.009009 14.3423423,14.009009 C14.3963964,14.027027 14.4324324,14.0630631 14.4144144,14.1171171 C14.3963964,14.1531532 14.3603604,14.1891892 14.3243243,14.1891892 L14.3063063,14.1891892 L14.3063063,14.1891892 C14.2702703,14.1891892 14.2522523,14.1711712 14.2162162,14.1711712 C14.1621622,14.1711712 14.1261261,14.1171171 14.1441441,14.0630631 L14.1441441,14.0630631 Z M5.71171171,14.9459459 L5.67567568,14.9459459 C5.63963964,14.9459459 5.6036036,14.9279279 5.58558559,14.8738739 L5.58558559,14.8558559 C5.56756757,14.8018018 5.58558559,14.7477477 5.63963964,14.7297297 C5.69369369,14.7117117 5.74774775,14.7297297 5.76576577,14.7837838 C5.76576577,14.7837838 5.76576577,14.7837838 5.78378378,14.8018018 C5.78378378,14.8738739 5.76576577,14.9279279 5.71171171,14.9459459 L5.71171171,14.9459459 Z M7.2972973,14.8198198 C7.26126126,14.8378378 7.24324324,14.8378378 7.20720721,14.8558559 L7.17117117,14.8558559 C7.13513514,14.8558559 7.0990991,14.8378378 7.08108108,14.8018018 C7.06306306,14.7477477 7.08108108,14.6936937 7.13513514,14.6756757 C7.17117117,14.6576577 7.18918919,14.6576577 7.22522523,14.6396396 C7.27927928,14.6216216 7.33333333,14.6396396 7.35135135,14.6936937 C7.36936937,14.7477477 7.35135135,14.8018018 7.2972973,14.8198198 L7.2972973,14.8198198 Z M7.90990991,14.6036036 C7.87387387,14.6216216 7.85585586,14.6216216 7.81981982,14.6396396 L7.78378378,14.6396396 C7.74774775,14.6396396 7.71171171,14.6216216 7.69369369,14.5855856 C7.67567568,14.5315315 7.71171171,14.4774775 7.74774775,14.4594595 C7.78378378,14.4414414 7.8018018,14.4414414 7.83783784,14.4234234 C7.89189189,14.4054054 7.94594595,14.4414414 7.96396396,14.4774775 C7.98198198,14.5315315 7.94594595,14.5855856 7.90990991,14.6036036 L7.90990991,14.6036036 Z M8.52252252,14.4234234 C8.48648649,14.4234234 8.46846847,14.4414414 8.43243243,14.4414414 L8.41441441,14.4414414 C8.37837838,14.4414414 8.34234234,14.4054054 8.32432432,14.3693694 C8.30630631,14.3153153 8.34234234,14.2612613 8.3963964,14.2612613 C8.43243243,14.2612613 8.45045045,14.2432432 8.48648649,14.2432432 C8.54054054,14.2252252 8.59459459,14.2612613 8.59459459,14.3153153 C8.59459459,14.3513514 8.57657658,14.4054054 8.52252252,14.4234234 L8.52252252,14.4234234 Z M9.15315315,14.2612613 C9.11711712,14.2612613 9.0990991,14.2792793 9.06306306,14.2792793 L9.04504505,14.2792793 C9.00900901,14.2792793 8.95495495,14.2432432 8.95495495,14.2072072 C8.93693694,14.1531532 8.97297297,14.0990991 9.02702703,14.0990991 C9.06306306,14.0990991 9.08108108,14.0810811 9.11711712,14.0810811 C9.17117117,14.0630631 9.22522523,14.0990991 9.22522523,14.1531532 C9.24324324,14.2072072 9.20720721,14.2612613 9.15315315,14.2612613 L9.15315315,14.2612613 Z M9.53153153,13.7207207 L9.4954955,13.7207207 C9.45945946,13.7207207 9.42342342,13.7027027 9.40540541,13.6486486 L9.40540541,13.6486486 C9.38738739,13.5945946 9.38738739,13.5765766 9.38738739,13.5765766 C9.36936937,13.5225225 9.38738739,13.4684685 9.44144144,13.4504505 C9.4954955,13.4324324 9.54954955,13.4504505 9.56756757,13.5045045 C9.56756757,13.5045045 9.58558559,13.5225225 9.58558559,13.5765766 C9.6036036,13.6486486 9.58558559,13.7027027 9.53153153,13.7207207 L9.53153153,13.7207207 Z M9.87387387,14.045045 C9.87387387,14.0990991 9.85585586,14.1351351 9.8018018,14.1531532 L9.8018018,14.1531532 L9.76576577,14.1531532 C9.76576577,14.1891892 9.78378378,14.2072072 9.78378378,14.2432432 C9.8018018,14.2972973 9.76576577,14.3513514 9.71171171,14.3513514 L9.69369369,14.3513514 C9.65765766,14.3513514 9.62162162,14.3153153 9.6036036,14.2792793 C9.6036036,14.2432432 9.58558559,14.2252252 9.58558559,14.1891892 C9.58558559,14.1531532 9.58558559,14.1171171 9.6036036,14.0990991 L9.6036036,14.0810811 C9.6036036,14.027027 9.62162162,13.972973 9.67567568,13.972973 C9.71171171,13.972973 9.72972973,13.954955 9.76576577,13.954955 C9.81981982,13.954955 9.85585586,13.990991 9.87387387,14.045045 L9.87387387,14.045045 Z M9.90990991,14.8738739 C9.92792793,14.9279279 9.89189189,14.981982 9.83783784,14.981982 L9.81981982,14.981982 C9.78378378,14.981982 9.72972973,14.9459459 9.72972973,14.9099099 L9.72972973,14.9099099 C9.72972973,14.8738739 9.71171171,14.8558559 9.71171171,14.8198198 C9.69369369,14.7657658 9.72972973,14.7117117 9.78378378,14.7117117 C9.83783784,14.6936937 9.89189189,14.7297297 9.89189189,14.7837838 C9.90990991,14.8198198 9.90990991,14.8558559 9.90990991,14.8738739 L9.90990991,14.8738739 Z M9.8018018,18.6936937 C9.81981982,18.6396396 9.85585586,18.6036036 9.90990991,18.6216216 C9.96396396,18.6396396 10,18.6756757 9.98198198,18.7297297 C9.98198198,18.7657658 9.96396396,18.7837838 9.96396396,18.8198198 C9.96396396,18.8558559 9.90990991,18.8918919 9.87387387,18.8918919 L9.85585586,18.8918919 C9.8018018,18.8738739 9.76576577,18.8378378 9.78378378,18.7837838 C9.8018018,18.7477477 9.8018018,18.7117117 9.8018018,18.6936937 L9.8018018,18.6936937 Z M10.018018,15.5225225 C10.018018,15.5765766 9.98198198,15.6126126 9.94594595,15.6306306 C9.94594595,15.6306306 9.94594595,15.6306306 9.92792793,15.6306306 C9.87387387,15.6306306 9.83783784,15.5945946 9.83783784,15.5585586 L9.83783784,15.5585586 C9.83783784,15.5225225 9.83783784,15.5045045 9.81981982,15.4684685 C9.81981982,15.4144144 9.85585586,15.3783784 9.89189189,15.3603604 C9.94594595,15.3603604 9.98198198,15.3963964 10,15.4324324 C10.018018,15.4684685 10.018018,15.5045045 10.018018,15.5225225 L10.018018,15.5225225 Z M10.0900901,16.1891892 C10.0900901,16.2432432 10.0540541,16.2792793 10,16.2972973 L10,16.2972973 C9.94594595,16.2972973 9.90990991,16.2612613 9.90990991,16.2072072 L9.90990991,16.1171171 C9.90990991,16.0630631 9.94594595,16.027027 10,16.009009 C10.0540541,16.009009 10.0900901,16.045045 10.1081081,16.0990991 C10.0900901,16.1171171 10.0900901,16.1531532 10.0900901,16.1891892 L10.0900901,16.1891892 Z M10.1441441,16.8378378 C10.1441441,16.8918919 10.1081081,16.9279279 10.0540541,16.9279279 L10.0540541,16.9279279 C10,16.9279279 9.96396396,16.8918919 9.96396396,16.8378378 L9.96396396,16.7477477 C9.96396396,16.6936937 10,16.6576577 10.0540541,16.6576577 C10.1081081,16.6576577 10.1441441,16.6936937 10.1441441,16.7477477 C10.1261261,16.7837838 10.1261261,16.8198198 10.1441441,16.8378378 L10.1441441,16.8378378 Z M10.7747748,11.2882883 L10.7747748,11.2882883 C10.7387387,11.3063063 10.7027027,11.3063063 10.6846847,11.3063063 L10.6486486,11.3063063 C10.6126126,11.3063063 10.5765766,11.2882883 10.5585586,11.2342342 C10.5405405,11.1801802 10.5765766,11.1261261 10.6126126,11.1261261 C10.6306306,11.1261261 10.6666667,11.1081081 10.7027027,11.0900901 C10.7567568,11.0720721 10.8108108,11.1081081 10.8108108,11.1621622 C10.8468468,11.2342342 10.8108108,11.2882883 10.7747748,11.2882883 L10.7747748,11.2882883 Z M11.1711712,13.9009009 C11.1711712,13.954955 11.1351351,13.990991 11.0810811,14.009009 L10.990991,14.009009 L10.990991,14.009009 C10.9369369,14.009009 10.9009009,13.972973 10.9009009,13.9189189 C10.9009009,13.8648649 10.9369369,13.8288288 10.990991,13.8108108 L11.0810811,13.8108108 C11.1171171,13.8108108 11.1711712,13.8468468 11.1711712,13.9009009 L11.1711712,13.9009009 Z M11.4774775,11.0540541 C11.4774775,11.1081081 11.4594595,11.1441441 11.4054054,11.1621622 C11.3693694,11.1621622 11.3513514,11.1801802 11.3153153,11.1801802 L11.2972973,11.1801802 C11.2612613,11.1801802 11.2072072,11.1441441 11.2072072,11.1081081 C11.2072072,11.0540541 11.2252252,11 11.2792793,11 C11.3153153,11 11.3333333,10.981982 11.3693694,10.981982 C11.4234234,10.963964 11.4594595,11 11.4774775,11.0540541 L11.4774775,11.0540541 Z M11.8198198,13.8648649 C11.8198198,13.9189189 11.7837838,13.954955 11.7297297,13.954955 L11.6396396,13.954955 L11.6396396,13.954955 C11.5855856,13.954955 11.5495495,13.9189189 11.5495495,13.8648649 C11.5495495,13.8108108 11.5855856,13.7747748 11.6396396,13.7747748 L11.7297297,13.7747748 C11.7657658,13.7747748 11.8198198,13.8288288 11.8198198,13.8648649 L11.8198198,13.8648649 Z M12.1261261,10.981982 C12.1261261,11.036036 12.0900901,11.0720721 12.036036,11.0720721 L11.9459459,11.0720721 L11.9459459,11.0720721 C11.8918919,11.0720721 11.8558559,11.036036 11.8558559,10.981982 C11.8558559,10.9279279 11.8918919,10.8918919 11.9459459,10.8738739 L12.036036,10.8738739 C12.0720721,10.8918919 12.1261261,10.9459459 12.1261261,10.981982 L12.1261261,10.981982 Z M12.4684685,13.8828829 C12.4684685,13.9369369 12.4324324,13.972973 12.3783784,13.972973 L12.3783784,13.972973 L12.2882883,13.972973 C12.2342342,13.972973 12.1981982,13.9369369 12.1981982,13.8828829 C12.1981982,13.8288288 12.2342342,13.7927928 12.2882883,13.7927928 L12.3783784,13.7927928 C12.4324324,13.7747748 12.4684685,13.8288288 12.4684685,13.8828829 L12.4684685,13.8828829 Z M12.7747748,11.018018 C12.7747748,11.0720721 12.7207207,11.1081081 12.6846847,11.1081081 C12.6846847,11.1081081 12.6846847,11.1081081 12.6666667,11.1081081 L12.5765766,11.1081081 C12.5225225,11.1081081 12.4864865,11.0540541 12.4864865,11 C12.4864865,10.9459459 12.5405405,10.9099099 12.5945946,10.9099099 L12.6846847,10.9099099 C12.7387387,10.9279279 12.7747748,10.963964 12.7747748,11.018018 L12.7747748,11.018018 Z M13.1171171,13.9189189 C13.1171171,13.972973 13.0810811,14.009009 13.027027,14.009009 L13.027027,14.009009 L13.027027,14.009009 L12.9369369,14.009009 C12.8828829,14.009009 12.8468468,13.954955 12.8468468,13.9009009 C12.8468468,13.8468468 12.9009009,13.8108108 12.954955,13.8108108 L13.045045,13.8108108 C13.0990991,13.8288288 13.1351351,13.8648649 13.1171171,13.9189189 L13.1171171,13.9189189 Z M13.1531532,13.6666667 C13.1351351,13.6126126 13.1351351,13.5945946 13.1351351,13.5945946 C13.1171171,13.5405405 13.1351351,13.4864865 13.1891892,13.4684685 C13.2432432,13.4504505 13.2972973,13.4684685 13.3153153,13.5225225 C13.3153153,13.5225225 13.3333333,13.5405405 13.3333333,13.5945946 C13.3513514,13.6486486 13.3153153,13.7027027 13.2792793,13.7207207 L13.2432432,13.7207207 C13.2072072,13.7207207 13.1711712,13.7027027 13.1531532,13.6666667 L13.1531532,13.6666667 L13.1531532,13.6666667 Z M13.4234234,11.1441441 C13.4054054,11.1801802 13.3693694,11.2162162 13.3333333,11.2162162 L13.3153153,11.2162162 L13.3153153,11.2162162 C13.2792793,11.2162162 13.2612613,11.1981982 13.2252252,11.1981982 C13.1711712,11.1801802 13.1351351,11.1441441 13.1531532,11.0900901 C13.1711712,11.036036 13.2072072,11 13.2612613,11.018018 C13.2972973,11.018018 13.3153153,11.036036 13.3513514,11.036036 C13.4054054,11.036036 13.4234234,11.0900901 13.4234234,11.1441441 L13.4234234,11.1441441 Z M13.5135135,14.2432432 C13.5315315,14.2972973 13.4954955,14.3513514 13.4414414,14.3513514 L13.4234234,14.3513514 C13.3873874,14.3513514 13.3513514,14.3153153 13.3333333,14.2792793 C13.3333333,14.2432432 13.3153153,14.2252252 13.3153153,14.1891892 C13.2972973,14.1351351 13.3333333,14.0810811 13.3873874,14.0810811 C13.4414414,14.0630631 13.4954955,14.0990991 13.4954955,14.1531532 C13.4954955,14.1711712 13.4954955,14.2072072 13.5135135,14.2432432 L13.5135135,14.2432432 Z M13.5675676,15.5585586 L13.5675676,15.5585586 C13.5675676,15.5225225 13.5675676,15.5045045 13.5495495,15.4684685 C13.5495495,15.4144144 13.5855856,15.3783784 13.6216216,15.3603604 C13.6756757,15.3603604 13.7117117,15.3963964 13.7297297,15.4324324 C13.7297297,15.4684685 13.7477477,15.4864865 13.7477477,15.5225225 C13.7477477,15.5765766 13.7117117,15.6126126 13.6756757,15.6306306 C13.6756757,15.6306306 13.6756757,15.6306306 13.6576577,15.6306306 C13.6216216,15.6306306 13.5855856,15.5945946 13.5675676,15.5585586 L13.5675676,15.5585586 Z M13.8738739,16.7477477 L13.8738739,16.8378378 C13.8738739,16.8918919 13.8378378,16.9279279 13.7837838,16.9279279 L13.7837838,16.9279279 C13.7297297,16.9279279 13.6936937,16.8918919 13.6936937,16.8378378 L13.6936937,16.7477477 C13.6936937,16.6936937 13.7297297,16.6576577 13.7837838,16.6576577 C13.8198198,16.6576577 13.8558559,16.6936937 13.8738739,16.7477477 L13.8738739,16.7477477 Z M13.7477477,16.2792793 L13.7477477,16.2792793 C13.6936937,16.2792793 13.6576577,16.2432432 13.6396396,16.1891892 L13.6396396,16.0990991 C13.6396396,16.045045 13.6756757,16.009009 13.7297297,15.990991 C13.7837838,15.990991 13.8198198,16.027027 13.8378378,16.0810811 L13.8378378,16.1711712 C13.8378378,16.2432432 13.8018018,16.2792793 13.7477477,16.2792793 L13.7477477,16.2792793 Z M13.8738739,17.4144144 L13.8738739,17.5045045 C13.8738739,17.5585586 13.8378378,17.5945946 13.7837838,17.5945946 L13.7837838,17.5945946 C13.7297297,17.5945946 13.6936937,17.5405405 13.6936937,17.5045045 L13.6936937,17.4144144 C13.6936937,17.3603604 13.7297297,17.3243243 13.7837838,17.3243243 C13.8378378,17.3063063 13.8738739,17.3603604 13.8738739,17.4144144 L13.8738739,17.4144144 Z M13.8198198,18.0630631 C13.8198198,18.0990991 13.8198198,18.1171171 13.8018018,18.1531532 C13.8018018,18.2072072 13.7477477,18.2432432 13.7117117,18.2432432 C13.7117117,18.2432432 13.7117117,18.2432432 13.6936937,18.2432432 C13.6396396,18.2432432 13.6036036,18.1891892 13.6036036,18.1351351 L13.6036036,18.1351351 C13.6036036,18.0990991 13.6036036,18.0810811 13.6216216,18.045045 C13.6216216,17.990991 13.6756757,17.954955 13.7297297,17.954955 C13.8018018,17.972973 13.8378378,18.009009 13.8198198,18.0630631 L13.8198198,18.0630631 Z M13.5495495,15 C13.5135135,15 13.4594595,14.963964 13.4594595,14.9279279 C13.4594595,14.8918919 13.4414414,14.8738739 13.4414414,14.8378378 C13.4234234,14.7837838 13.4594595,14.7297297 13.5135135,14.7297297 C13.5675676,14.7117117 13.6216216,14.7477477 13.6216216,14.8018018 C13.6216216,14.8378378 13.6396396,14.8558559 13.6396396,14.8918919 C13.6576577,14.9279279 13.6216216,14.981982 13.5495495,15 L13.5495495,15 L13.5495495,15 Z M13.7657658,14.009009 C13.7657658,14.0630631 13.7117117,14.0810811 13.6756757,14.0810811 L13.6576577,14.0810811 C13.6216216,14.0810811 13.6036036,14.0630631 13.5675676,14.0630631 C13.5135135,14.0630631 13.4774775,14.009009 13.4954955,13.954955 C13.4954955,13.9009009 13.5495495,13.8648649 13.6036036,13.8828829 C13.6396396,13.8828829 13.6576577,13.8828829 13.6936937,13.9009009 C13.7477477,13.9009009 13.7837838,13.954955 13.7657658,14.009009 L13.7657658,14.009009 Z M13.9459459,11.4144144 L13.9099099,11.4144144 L13.9099099,11.4144144 C13.9099099,11.4144144 13.8738739,11.3963964 13.8198198,11.3783784 C13.7657658,11.3603604 13.7477477,11.3063063 13.7657658,11.2522523 C13.7837838,11.1981982 13.8378378,11.1801802 13.8918919,11.1981982 C13.9459459,11.2162162 13.981982,11.2342342 13.981982,11.2342342 C14.036036,11.2522523 14.0540541,11.3063063 14.036036,11.3603604 C14.018018,11.3783784 13.981982,11.4144144 13.9459459,11.4144144 L13.9459459,11.4144144 Z M13.7117117,20.2612613 C13.7117117,20.2072072 13.7297297,20.1711712 13.7837838,20.1531532 L13.7837838,20.1531532 C13.8198198,20.1531532 13.8378378,20.1351351 13.8738739,20.1351351 C13.9279279,20.1351351 13.963964,20.1531532 13.981982,20.2072072 C13.981982,20.2612613 13.963964,20.2972973 13.9099099,20.3153153 C13.8738739,20.3153153 13.8558559,20.3333333 13.8198198,20.3333333 L13.8018018,20.3333333 C13.7657658,20.3513514 13.7297297,20.3153153 13.7117117,20.2612613 L13.7117117,20.2612613 Z M13.6036036,18.8918919 C13.5495495,18.8738739 13.5135135,18.8378378 13.5315315,18.7837838 C13.5315315,18.7477477 13.5495495,18.7297297 13.5495495,18.6936937 C13.5675676,18.6396396 13.6036036,18.6036036 13.6576577,18.6216216 C13.7117117,18.6396396 13.7477477,18.6756757 13.7297297,18.7297297 C13.7297297,18.7657658 13.7117117,18.7837838 13.7117117,18.8198198 C13.6936937,18.8558559 13.6576577,18.8918919 13.6036036,18.8918919 L13.6036036,18.8918919 L13.6036036,18.8918919 Z M13.4594595,19.5225225 C13.4054054,19.5045045 13.3873874,19.4504505 13.3873874,19.4144144 L13.3873874,19.4144144 C13.3873874,19.3783784 13.4054054,19.3603604 13.4054054,19.3243243 C13.4234234,19.2702703 13.4594595,19.2342342 13.5135135,19.2522523 C13.5675676,19.2702703 13.5855856,19.3063063 13.5855856,19.3603604 C13.5855856,19.3963964 13.5675676,19.4144144 13.5675676,19.4504505 C13.5495495,19.4864865 13.5135135,19.5225225 13.4594595,19.5225225 L13.4594595,19.5225225 L13.4594595,19.5225225 Z M13.2972973,20.1531532 L13.2612613,20.1531532 C13.2072072,20.1351351 13.1891892,20.0810811 13.2072072,20.045045 C13.2072072,20.009009 13.2252252,19.990991 13.2252252,19.954955 C13.2432432,19.9009009 13.2972973,19.8828829 13.3333333,19.9009009 C13.3873874,19.9189189 13.4054054,19.972973 13.3873874,20.009009 C13.3693694,20.045045 13.3693694,20.0630631 13.3513514,20.0990991 C13.3693694,20.1351351 13.3333333,20.1531532 13.2972973,20.1531532 L13.2972973,20.1531532 Z M13.2612613,20.4234234 C13.2252252,20.4234234 13.2072072,20.4234234 13.1711712,20.4414414 C13.1711712,20.4414414 13.1711712,20.4414414 13.1531532,20.4414414 C13.0990991,20.4414414 13.0630631,20.4054054 13.0630631,20.3513514 C13.0630631,20.2972973 13.0990991,20.2612613 13.1531532,20.2432432 L13.1531532,20.2432432 C13.1891892,20.2432432 13.2072072,20.2432432 13.2432432,20.2252252 C13.2972973,20.2252252 13.3333333,20.2612613 13.3513514,20.3153153 C13.3513514,20.3693694 13.3153153,20.4234234 13.2612613,20.4234234 L13.2612613,20.4234234 Z M13.009009,20.6576577 L13.009009,20.6576577 C13.009009,20.6576577 13.027027,20.6216216 13.045045,20.5675676 C13.0630631,20.5135135 13.1171171,20.4954955 13.1711712,20.5135135 C13.2252252,20.5315315 13.2432432,20.5855856 13.2252252,20.6396396 C13.2072072,20.6936937 13.1891892,20.7297297 13.1891892,20.7297297 C13.1711712,20.7657658 13.1351351,20.7837838 13.0990991,20.7837838 L13.0630631,20.7837838 C13.009009,20.7477477 12.990991,20.6936937 13.009009,20.6576577 L13.009009,20.6576577 Z M12.4144144,20.4054054 C12.4144144,20.3513514 12.4504505,20.3153153 12.5045045,20.2972973 L12.5945946,20.2972973 C12.6486486,20.2972973 12.6846847,20.3333333 12.7027027,20.3873874 C12.7027027,20.4414414 12.6666667,20.4774775 12.6126126,20.4954955 L12.5225225,20.4954955 L12.5225225,20.4954955 C12.4684685,20.4954955 12.4144144,20.4594595 12.4144144,20.4054054 L12.4144144,20.4054054 Z M11.7657658,20.4414414 C11.7657658,20.3873874 11.8018018,20.3513514 11.8558559,20.3513514 L11.9459459,20.3513514 C12,20.3513514 12.036036,20.3873874 12.036036,20.4414414 C12.036036,20.4954955 12,20.5315315 11.9459459,20.5315315 L11.8558559,20.5315315 L11.8558559,20.5315315 C11.8018018,20.5315315 11.7657658,20.4774775 11.7657658,20.4414414 L11.7657658,20.4414414 Z M11.1171171,20.4234234 C11.1171171,20.3693694 11.1531532,20.3333333 11.2072072,20.3333333 L11.2972973,20.3333333 C11.3513514,20.3333333 11.3873874,20.3693694 11.3873874,20.4234234 C11.3873874,20.4774775 11.3513514,20.5135135 11.2972973,20.5135135 L11.2972973,20.5135135 L11.2072072,20.5135135 C11.1531532,20.5315315 11.1171171,20.4774775 11.1171171,20.4234234 L11.1171171,20.4234234 Z M10.7207207,16.6396396 C10.7207207,15.990991 11.2612613,15.4504505 11.9099099,15.4504505 C12.5585586,15.4504505 13.0990991,15.990991 13.0990991,16.6396396 C13.0990991,17.2882883 12.5585586,17.8288288 11.9099099,17.8288288 C11.2612613,17.8288288 10.7207207,17.3063063 10.7207207,16.6396396 L10.7207207,16.6396396 Z M10.4504505,20.3873874 C10.4504505,20.3333333 10.5045045,20.2972973 10.5585586,20.2972973 L10.6486486,20.2972973 C10.7027027,20.2972973 10.7387387,20.3513514 10.7387387,20.4054054 C10.7387387,20.4594595 10.7027027,20.4954955 10.6486486,20.4954955 L10.6486486,20.4954955 L10.5585586,20.4954955 C10.4864865,20.4774775 10.4504505,20.4414414 10.4504505,20.3873874 L10.4504505,20.3873874 Z M10.2342342,13.990991 C10.2342342,13.9369369 10.2702703,13.9009009 10.3243243,13.8828829 C10.3603604,13.8828829 10.3783784,13.8828829 10.4144144,13.8648649 C10.4684685,13.8648649 10.5045045,13.9009009 10.5225225,13.954955 C10.5225225,14.009009 10.4864865,14.045045 10.4324324,14.0630631 L10.4324324,14.0630631 C10.3963964,14.0630631 10.3783784,14.0630631 10.3423423,14.0810811 C10.3423423,14.0810811 10.3423423,14.0810811 10.3243243,14.0810811 C10.2882883,14.0630631 10.2342342,14.027027 10.2342342,13.990991 L10.2342342,13.990991 Z M10.036036,17.5945946 L10.036036,17.5945946 C9.98198198,17.5945946 9.94594595,17.5405405 9.94594595,17.5045045 L9.94594595,17.4144144 C9.94594595,17.3603604 9.98198198,17.3243243 10.036036,17.3243243 C10.0900901,17.3243243 10.1261261,17.3603604 10.1261261,17.4144144 L10.1261261,17.5045045 C10.1261261,17.5585586 10.0900901,17.5945946 10.036036,17.5945946 L10.036036,17.5945946 Z M10.0900901,18.0630631 C10.0900901,18.0990991 10.0900901,18.1171171 10.0720721,18.1531532 C10.0720721,18.2072072 10.018018,18.2432432 9.98198198,18.2432432 C9.98198198,18.2432432 9.98198198,18.2432432 9.96396396,18.2432432 C9.90990991,18.2432432 9.87387387,18.1891892 9.87387387,18.1351351 C9.87387387,18.0990991 9.87387387,18.0810811 9.89189189,18.045045 C9.89189189,17.990991 9.94594595,17.954955 10,17.954955 C10.0540541,17.972973 10.0900901,18.009009 10.0900901,18.0630631 L10.0900901,18.0630631 Z M9.8018018,20.2972973 C9.8018018,20.2432432 9.85585586,20.2072072 9.90990991,20.2252252 C9.94594595,20.2252252 9.96396396,20.2432432 10,20.2432432 C10.0540541,20.2432432 10.0900901,20.2972973 10.0720721,20.3513514 C10.0720721,20.4054054 10.018018,20.4234234 9.98198198,20.4234234 C9.98198198,20.4234234 9.98198198,20.4234234 9.96396396,20.4234234 C9.92792793,20.4234234 9.90990991,20.4054054 9.87387387,20.4054054 C9.83783784,20.4054054 9.8018018,20.3513514 9.8018018,20.2972973 L9.8018018,20.2972973 Z M9.71171171,19.5225225 C9.65765766,19.5045045 9.63963964,19.4504505 9.63963964,19.4144144 L9.63963964,19.4144144 C9.63963964,19.3783784 9.65765766,19.3603604 9.65765766,19.3243243 C9.67567568,19.2702703 9.71171171,19.2342342 9.76576577,19.2522523 C9.81981982,19.2702703 9.83783784,19.3063063 9.83783784,19.3603604 C9.83783784,19.3963964 9.81981982,19.4144144 9.81981982,19.4504505 C9.8018018,19.4864865 9.76576577,19.5225225 9.71171171,19.5225225 L9.71171171,19.5225225 L9.71171171,19.5225225 Z M9.47747748,20.045045 L9.47747748,20.045045 C9.47747748,20.009009 9.4954955,19.990991 9.4954955,19.954955 C9.51351351,19.9009009 9.56756757,19.8828829 9.6036036,19.9009009 C9.65765766,19.9189189 9.67567568,19.972973 9.65765766,20.009009 C9.63963964,20.045045 9.63963964,20.0630631 9.62162162,20.0990991 C9.6036036,20.1351351 9.56756757,20.1711712 9.53153153,20.1711712 L9.4954955,20.1711712 C9.4954955,20.1351351 9.45945946,20.0810811 9.47747748,20.045045 L9.47747748,20.045045 Z M9.27927928,20.6576577 C9.27927928,20.6576577 9.2972973,20.6216216 9.31531532,20.5675676 C9.33333333,20.5135135 9.38738739,20.4954955 9.44144144,20.5135135 C9.4954955,20.5315315 9.51351351,20.5855856 9.4954955,20.6396396 C9.47747748,20.6936937 9.45945946,20.7297297 9.45945946,20.7297297 C9.44144144,20.7657658 9.40540541,20.7837838 9.36936937,20.7837838 L9.33333333,20.7837838 C9.27927928,20.7477477 9.24324324,20.6936937 9.27927928,20.6576577 L9.27927928,20.6576577 Z M9.17117117,20.1891892 C9.18918919,20.1351351 9.22522523,20.0990991 9.27927928,20.1171171 C9.31531532,20.1171171 9.33333333,20.1351351 9.36936937,20.1351351 C9.42342342,20.1531532 9.45945946,20.1891892 9.44144144,20.2432432 C9.42342342,20.2792793 9.38738739,20.3153153 9.35135135,20.3153153 L9.33333333,20.3153153 C9.2972973,20.3153153 9.27927928,20.2972973 9.24324324,20.2972973 C9.18918919,20.2792793 9.15315315,20.2252252 9.17117117,20.1891892 L9.17117117,20.1891892 Z M8.54054054,20.009009 C8.55855856,19.954955 8.61261261,19.9369369 8.64864865,19.9369369 L8.64864865,19.9369369 C8.68468468,19.9369369 8.7027027,19.954955 8.73873874,19.954955 C8.79279279,19.972973 8.81081081,20.027027 8.81081081,20.0630631 C8.79279279,20.0990991 8.75675676,20.1351351 8.72072072,20.1351351 L8.7027027,20.1351351 C8.66666667,20.1351351 8.64864865,20.1171171 8.61261261,20.1171171 C8.55855856,20.1171171 8.52252252,20.0630631 8.54054054,20.009009 L8.54054054,20.009009 Z M7.90990991,19.8108108 C7.92792793,19.7567568 7.98198198,19.7387387 8.03603604,19.7567568 C8.07207207,19.7747748 8.09009009,19.7747748 8.12612613,19.7927928 C8.18018018,19.8108108 8.1981982,19.8648649 8.18018018,19.9189189 C8.16216216,19.954955 8.12612613,19.972973 8.09009009,19.972973 L8.05405405,19.972973 C8.01801802,19.954955 8,19.954955 7.96396396,19.9369369 C7.92792793,19.9189189 7.89189189,19.8648649 7.90990991,19.8108108 L7.90990991,19.8108108 Z M7.31531532,19.5765766 C7.33333333,19.5225225 7.38738739,19.5045045 7.44144144,19.5225225 C7.47747748,19.5405405 7.4954955,19.5405405 7.53153153,19.5585586 C7.58558559,19.5765766 7.6036036,19.6306306 7.58558559,19.6846847 C7.56756757,19.7207207 7.53153153,19.7387387 7.4954955,19.7387387 L7.45945946,19.7387387 C7.42342342,19.7207207 7.40540541,19.7207207 7.36936937,19.7027027 C7.31531532,19.6666667 7.2972973,19.6126126 7.31531532,19.5765766 L7.31531532,19.5765766 Z M6.82882883,16.6396396 C6.82882883,15.990991 7.36936937,15.4504505 8.01801802,15.4504505 C8.66666667,15.4504505 9.20720721,15.990991 9.20720721,16.6396396 C9.20720721,17.2882883 8.66666667,17.8288288 8.01801802,17.8288288 C7.35135135,17.8288288 6.82882883,17.3063063 6.82882883,16.6396396 L6.82882883,16.6396396 Z M6.72072072,19.2882883 C6.73873874,19.2342342 6.79279279,19.2162162 6.84684685,19.2522523 C6.88288288,19.2702703 6.9009009,19.2882883 6.93693694,19.2882883 C6.99099099,19.3063063 7.00900901,19.3603604 6.97297297,19.4144144 C6.95495495,19.4504505 6.91891892,19.4684685 6.88288288,19.4684685 C6.86486486,19.4684685 6.84684685,19.4684685 6.84684685,19.4504505 C6.81081081,19.4324324 6.79279279,19.4144144 6.75675676,19.4144144 C6.72072072,19.3963964 6.7027027,19.3243243 6.72072072,19.2882883 L6.72072072,19.2882883 Z M6.54054054,14.963964 C6.57657658,14.9459459 6.59459459,14.9279279 6.63063063,14.9279279 C6.68468468,14.9099099 6.73873874,14.9279279 6.75675676,14.963964 C6.77477477,15.018018 6.75675676,15.0720721 6.72072072,15.0900901 C6.68468468,15.1081081 6.66666667,15.1261261 6.63063063,15.1261261 C6.61261261,15.1261261 6.59459459,15.1441441 6.59459459,15.1441441 C6.55855856,15.1441441 6.52252252,15.1261261 6.5045045,15.0900901 C6.46846847,15.0540541 6.48648649,14.981982 6.54054054,14.963964 L6.54054054,14.963964 Z M6.14414414,18.963964 C6.16216216,18.9279279 6.23423423,18.9099099 6.27027027,18.9279279 L6.27027027,18.9279279 C6.28828829,18.9459459 6.32432432,18.963964 6.34234234,18.981982 C6.37837838,19 6.3963964,19.0720721 6.37837838,19.1081081 C6.36036036,19.1441441 6.32432432,19.1621622 6.30630631,19.1621622 C6.28828829,19.1621622 6.27027027,19.1621622 6.25225225,19.1441441 C6.21621622,19.1261261 6.1981982,19.1081081 6.16216216,19.0900901 C6.14414414,19.0720721 6.12612613,19.018018 6.14414414,18.963964 L6.14414414,18.963964 Z M6.14414414,15.3963964 C6.12612613,15.4144144 6.09009009,15.4324324 6.07207207,15.4504505 C6.05405405,15.4684685 6.03603604,15.4684685 6.01801802,15.4684685 C5.98198198,15.4684685 5.96396396,15.4504505 5.94594595,15.4324324 C5.94594595,15.4504505 5.94594595,15.4684685 5.96396396,15.4864865 C5.98198198,15.5405405 5.94594595,15.5945946 5.89189189,15.5945946 L5.87387387,15.5945946 C5.83783784,15.5945946 5.78378378,15.5585586 5.78378378,15.5225225 C5.78378378,15.4864865 5.76576577,15.4684685 5.76576577,15.4324324 C5.74774775,15.3783784 5.78378378,15.3243243 5.83783784,15.3243243 C5.89189189,15.3063063 5.92792793,15.3423423 5.94594595,15.3783784 C5.94594595,15.3423423 5.96396396,15.3243243 5.98198198,15.3063063 C6,15.2882883 6.03603604,15.2702703 6.07207207,15.2522523 C6.10810811,15.2342342 6.18018018,15.2342342 6.1981982,15.2882883 C6.1981982,15.3063063 6.18018018,15.3783784 6.14414414,15.3963964 L6.14414414,15.3963964 Z M5.87387387,16.1531532 C5.87387387,16.1171171 5.87387387,16.0990991 5.85585586,16.0630631 C5.85585586,16.009009 5.89189189,15.972973 5.92792793,15.954955 C5.98198198,15.954955 6.01801802,15.990991 6.03603604,16.027027 C6.03603604,16.0630631 6.03603604,16.0810811 6.05405405,16.1171171 C6.05405405,16.1711712 6.01801802,16.2072072 5.98198198,16.2252252 C5.98198198,16.2252252 5.98198198,16.2252252 5.96396396,16.2252252 C5.90990991,16.2252252 5.87387387,16.1891892 5.87387387,16.1531532 L5.87387387,16.1531532 Z M6.01801802,16.6036036 C6.07207207,16.6036036 6.10810811,16.6396396 6.10810811,16.6936937 L6.10810811,16.7837838 C6.10810811,16.8378378 6.07207207,16.8738739 6.01801802,16.8738739 L6.01801802,16.8738739 C5.96396396,16.8738739 5.92792793,16.8378378 5.92792793,16.7837838 L5.92792793,16.6936937 C5.92792793,16.6396396 5.96396396,16.6036036 6.01801802,16.6036036 L6.01801802,16.6036036 Z M6.01801802,17.5225225 L6.01801802,17.5225225 C5.96396396,17.5225225 5.92792793,17.4684685 5.92792793,17.4144144 L5.92792793,17.3243243 C5.92792793,17.2702703 5.98198198,17.2342342 6.01801802,17.2342342 C6.07207207,17.2342342 6.10810811,17.2882883 6.10810811,17.3243243 L6.10810811,17.4144144 C6.10810811,17.4864865 6.07207207,17.5225225 6.01801802,17.5225225 L6.01801802,17.5225225 Z M5.92792793,18.1711712 C5.87387387,18.1531532 5.83783784,18.1171171 5.85585586,18.0630631 L5.85585586,18.0630631 C5.85585586,18.027027 5.87387387,18.009009 5.87387387,17.972973 C5.87387387,17.9189189 5.92792793,17.8828829 5.98198198,17.9009009 C6.03603604,17.9009009 6.07207207,17.954955 6.05405405,18.009009 C6.05405405,18.045045 6.03603604,18.0630631 6.03603604,18.0990991 C6.01801802,18.1531532 5.98198198,18.1711712 5.92792793,18.1711712 L5.92792793,18.1711712 L5.92792793,18.1711712 Z M5.74774775,18.8018018 C5.72972973,18.8018018 5.71171171,18.8018018 5.69369369,18.7837838 C5.67567568,18.7657658 5.63963964,18.7477477 5.62162162,18.7297297 C5.58558559,18.6936937 5.56756757,18.6396396 5.6036036,18.6036036 C5.63963964,18.5675676 5.69369369,18.5495495 5.72972973,18.5855856 L5.72972973,18.5855856 C5.74774775,18.5495495 5.78378378,18.5315315 5.83783784,18.5495495 C5.89189189,18.5675676 5.90990991,18.6216216 5.90990991,18.6576577 C5.90990991,18.6936937 5.89189189,18.7117117 5.89189189,18.7477477 C5.87387387,18.7837838 5.83783784,18.8198198 5.8018018,18.8198198 C5.78378378,18.8198198 5.78378378,18.8198198 5.74774775,18.8018018 C5.76576577,18.8198198 5.76576577,18.8018018 5.74774775,18.8018018 L5.74774775,18.8018018 Z M5.51351351,19.3063063 L5.51351351,19.3063063 C5.51351351,19.3063063 5.53153153,19.2702703 5.54954955,19.2162162 C5.56756757,19.1621622 5.62162162,19.1441441 5.67567568,19.1621622 C5.72972973,19.1801802 5.74774775,19.2342342 5.72972973,19.2882883 C5.71171171,19.3423423 5.69369369,19.3783784 5.69369369,19.3783784 C5.67567568,19.4144144 5.63963964,19.4324324 5.6036036,19.4324324 L5.56756757,19.4324324 C5.51351351,19.4144144 5.4954955,19.3603604 5.51351351,19.3063063 L5.51351351,19.3063063 Z M5.40540541,15.6666667 C5.42342342,15.6486486 5.45945946,15.6306306 5.47747748,15.6126126 C5.51351351,15.5765766 5.58558559,15.5945946 5.6036036,15.6306306 C5.63963964,15.6666667 5.62162162,15.7387387 5.58558559,15.7567568 C5.56756757,15.7747748 5.53153153,15.7927928 5.51351351,15.8108108 C5.4954955,15.8288288 5.47747748,15.8288288 5.45945946,15.8288288 C5.42342342,15.8288288 5.40540541,15.8108108 5.38738739,15.7927928 C5.36936937,15.7567568 5.36936937,15.6846847 5.40540541,15.6666667 L5.40540541,15.6666667 Z M5.0990991,18.1891892 C5.13513514,18.1531532 5.18918919,18.1531532 5.22522523,18.1891892 C5.22522523,18.1891892 5.24324324,18.2072072 5.2972973,18.2432432 C5.33333333,18.2792793 5.33333333,18.3333333 5.31531532,18.3693694 C5.27927928,18.4054054 5.26126126,18.4054054 5.24324324,18.4054054 C5.22522523,18.4054054 5.20720721,18.4054054 5.18918919,18.3873874 C5.13513514,18.3513514 5.11711712,18.3153153 5.11711712,18.3153153 C5.06306306,18.2972973 5.06306306,18.2252252 5.0990991,18.1891892 L5.0990991,18.1891892 Z" id="Shape" fill="#2962FF" transform="translate(12.432432, 13.000000) scale(-1, 1) translate(-12.432432, -13.000000) "></path>
            </g>
            <path d="M55.059,26 L57.373,26 C56.398,23.634 55.046,19.773 54.188,16.939 L50.951,16.939 C49.911,19.487 48.494,23.465 47.74,26 L49.976,26 C50.132,25.441 50.327,24.752 50.561,23.998 L54.292,23.998 C54.565,24.765 54.838,25.467 55.059,26 L55.059,26 Z M52.615,18.759 C52.888,19.721 53.278,20.956 53.694,22.191 L51.094,22.191 C51.51,20.93 51.926,19.708 52.277,18.759 L52.615,18.759 Z M59.076,19.344 C58.985,20.943 58.66,22.646 58.231,24.284 L56.983,24.284 L57.425,27.924 L59.063,27.924 L59.063,26 L63.73,26 L63.73,27.924 L65.355,27.924 L65.797,24.284 L64.484,24.284 L64.484,19.344 L59.076,19.344 Z M62.495,21.06 L62.495,24.284 L60.311,24.284 C60.61,23.153 60.818,21.983 60.883,21.06 L62.495,21.06 Z M71.049,22.815 C70.529,21.58 70.061,20.449 69.502,19.344 L66.694,19.344 L66.694,26 L68.67,26 L68.67,21.671 C69.151,22.737 69.827,24.544 70.204,25.649 L71.634,25.649 C72.037,24.518 72.739,22.776 73.246,21.671 L73.246,26 L75.209,26 L75.209,19.344 L72.518,19.344 C71.998,20.436 71.53,21.567 71.049,22.815 L71.049,22.815 Z M81.189,26 L83.178,26 L83.178,19.357 L81.189,19.357 C80.565,20.527 79.655,22.113 78.927,22.997 L78.927,19.357 L76.938,19.357 L76.938,26 L78.927,26 C79.707,24.986 80.513,23.777 81.189,22.516 L81.189,26 Z M86.909,20.982 C87.143,20.891 87.572,20.826 87.923,20.826 C88.872,20.826 89.184,21.112 89.184,22.724 C89.184,24.128 88.885,24.544 87.936,24.544 C87.351,24.544 86.909,24.336 86.909,24.037 L86.909,20.982 Z M84.907,28.496 L86.909,28.496 L86.909,25.883 C87.273,26.039 87.715,26.182 88.365,26.182 C90.016,26.182 91.186,25.363 91.186,22.672 C91.186,19.955 90.185,19.162 87.923,19.162 C86.883,19.162 85.622,19.357 84.907,19.63 L84.907,28.496 Z M98.401,21.749 C98.401,19.773 97.465,19.162 95.476,19.162 C94.488,19.162 93.383,19.318 92.616,19.513 L92.928,21.099 C93.487,20.93 94.228,20.826 94.995,20.826 C96.295,20.826 96.503,21.047 96.503,21.97 C95.996,21.866 95.489,21.801 94.995,21.801 C93.409,21.801 92.395,22.1 92.395,23.972 C92.395,25.714 93.045,26.182 95.242,26.182 C96.217,26.182 97.504,25.987 98.401,25.662 L98.401,21.749 Z M96.503,24.518 C96.191,24.635 95.775,24.7 95.398,24.7 C94.618,24.7 94.449,24.583 94.449,23.907 C94.449,23.244 94.709,23.166 95.424,23.166 C95.827,23.166 96.204,23.179 96.503,23.257 L96.503,24.518 Z M104.082,21.06 L104.082,26 L106.071,26 L106.071,19.344 L100.663,19.344 C100.52,21.606 100.13,24.089 99.571,26 L101.664,26 C102.093,24.596 102.431,22.763 102.548,21.06 L104.082,21.06 Z M111.089,21.06 L113.221,21.06 L113.221,19.344 L106.955,19.344 L106.955,21.06 L109.1,21.06 L109.1,26 L111.089,26 L111.089,21.06 Z M119.227,24.297 C118.733,24.427 117.862,24.518 117.381,24.518 C116.419,24.518 115.938,24.323 115.912,23.257 L119.981,23.257 C120.163,19.838 119.201,19.162 116.991,19.162 C115.08,19.162 113.858,19.955 113.858,22.633 C113.858,25.363 115.249,26.182 117.121,26.182 C117.875,26.182 118.863,26.039 119.526,25.818 L119.227,24.297 Z M117.134,20.67 C117.914,20.67 118.213,20.865 118.239,21.788 L115.925,21.788 C116.042,20.943 116.302,20.67 117.134,20.67 L117.134,20.67 Z M125.597,26 L127.586,26 L127.586,19.357 L125.597,19.357 C124.973,20.527 124.063,22.113 123.335,22.997 L123.335,19.357 L121.346,19.357 L121.346,26 L123.335,26 C124.115,24.986 124.921,23.777 125.597,22.516 L125.597,26 Z M122.399,16.939 C122.399,18.226 123.153,18.798 124.44,18.798 C125.753,18.798 126.481,18.226 126.481,16.939 L125.259,16.939 C125.259,17.433 125.038,17.576 124.635,17.602 C124.596,17.615 124.544,17.615 124.492,17.615 C123.959,17.615 123.699,17.498 123.699,16.939 L122.399,16.939 Z M134.047,24.167 C133.67,24.323 133.111,24.466 132.539,24.466 C131.564,24.466 131.07,24.232 131.07,22.672 C131.07,21.034 131.564,20.865 132.539,20.865 C133.085,20.865 133.67,20.995 134.047,21.138 L134.463,19.448 C133.943,19.266 133.059,19.162 132.37,19.162 C130.394,19.162 129.055,19.929 129.055,22.633 C129.055,25.363 130.381,26.182 132.37,26.182 C133.033,26.182 133.93,26.065 134.463,25.844 L134.047,24.167 Z M142.185,26 C141.002,23.14 140.404,22.659 139.754,22.399 C140.079,22.126 140.924,21.073 142.055,19.344 L139.754,19.344 C138.805,20.735 137.934,21.944 137.453,22.542 L137.453,19.344 L135.451,19.344 L135.451,26 L137.453,26 L137.453,22.997 C138.259,23.205 138.935,23.751 139.897,26 L142.185,26 Z M147.346,26 L149.335,26 L149.335,19.357 L147.346,19.357 C146.722,20.527 145.812,22.113 145.084,22.997 L145.084,19.357 L143.095,19.357 L143.095,26 L145.084,26 C145.864,24.986 146.67,23.777 147.346,22.516 L147.346,26 Z M156.173,24.297 C155.679,24.427 154.808,24.518 154.327,24.518 C153.365,24.518 152.884,24.323 152.858,23.257 L156.927,23.257 C157.109,19.838 156.147,19.162 153.937,19.162 C152.026,19.162 150.804,19.955 150.804,22.633 C150.804,25.363 152.195,26.182 154.067,26.182 C154.821,26.182 155.809,26.039 156.472,25.818 L156.173,24.297 Z M154.08,20.67 C154.86,20.67 155.159,20.865 155.185,21.788 L152.871,21.788 C152.988,20.943 153.248,20.67 154.08,20.67 L154.08,20.67 Z M51.159,38.219 L51.159,36.139 L53.642,36.139 C54.11,36.139 54.357,36.477 54.357,37.218 C54.357,37.92 54.136,38.219 53.694,38.219 L51.159,38.219 Z M51.159,32.72 L53.629,32.72 C54.032,32.72 54.214,32.954 54.214,33.578 C54.214,34.202 54.032,34.436 53.629,34.436 L51.159,34.436 L51.159,32.72 Z M54.526,35.229 C56.151,35.099 56.463,34.371 56.463,33.11 C56.463,31.693 56.008,30.939 54.201,30.939 L49.066,30.939 L49.066,40 L54.24,40 C55.709,40 56.632,39.376 56.632,37.556 C56.632,36.139 56.255,35.307 54.526,35.229 L54.526,35.229 Z M63.366,38.297 C62.872,38.427 62.001,38.518 61.52,38.518 C60.558,38.518 60.077,38.323 60.051,37.257 L64.12,37.257 C64.302,33.838 63.34,33.162 61.13,33.162 C59.219,33.162 57.997,33.955 57.997,36.633 C57.997,39.363 59.388,40.182 61.26,40.182 C62.014,40.182 63.002,40.039 63.665,39.818 L63.366,38.297 Z M61.273,34.67 C62.053,34.67 62.352,34.865 62.378,35.788 L60.064,35.788 C60.181,34.943 60.441,34.67 61.273,34.67 L61.273,34.67 Z M67.487,34.982 C67.721,34.891 68.15,34.826 68.501,34.826 C69.45,34.826 69.762,35.112 69.762,36.724 C69.762,38.128 69.463,38.544 68.514,38.544 C67.929,38.544 67.487,38.336 67.487,38.037 L67.487,34.982 Z M65.485,42.496 L67.487,42.496 L67.487,39.883 C67.851,40.039 68.293,40.182 68.943,40.182 C70.594,40.182 71.764,39.363 71.764,36.672 C71.764,33.955 70.763,33.162 68.501,33.162 C67.461,33.162 66.2,33.357 65.485,33.63 L65.485,42.496 Z M76.808,33.24 C76.561,33.175 76.301,33.162 75.989,33.162 C73.792,33.162 72.973,33.955 72.973,36.672 C72.973,39.363 73.961,40.182 75.534,40.182 C76.132,40.182 76.522,40.039 76.808,39.883 L76.808,42.496 L78.81,42.496 L78.81,39.883 C79.109,40.039 79.499,40.182 80.084,40.182 C81.657,40.182 82.645,39.363 82.645,36.672 C82.645,33.955 81.826,33.162 79.629,33.162 C79.317,33.162 79.057,33.175 78.81,33.24 L78.81,30.692 L76.808,30.692 L76.808,33.24 Z M75.963,38.544 C75.235,38.544 74.884,38.128 74.884,36.724 C74.884,35.112 75.196,34.826 75.989,34.826 C76.327,34.826 76.574,34.865 76.808,34.943 L76.808,38.063 C76.808,38.336 76.509,38.544 75.963,38.544 L75.963,38.544 Z M79.655,38.544 C79.122,38.544 78.823,38.349 78.81,38.076 L78.81,34.943 C79.057,34.865 79.291,34.826 79.629,34.826 C80.422,34.826 80.734,35.112 80.734,36.724 C80.734,38.128 80.396,38.544 79.655,38.544 L79.655,38.544 Z M88.352,40 L90.341,40 L90.341,33.357 L88.352,33.357 C87.728,34.527 86.818,36.113 86.09,36.997 L86.09,33.357 L84.101,33.357 L84.101,40 L86.09,40 C86.87,38.986 87.676,37.777 88.352,36.516 L88.352,40 Z" id="Адмиралтейские-" fill="#FFFFFF"></path>
            <g id="Group" transform="translate(278.000000, 113.000000)" fill="#F40A54">
                <path d="M0.7,14.2333333 L0.7,70 L8.78888889,70 L8.78888889,58.4888889 L15.0111111,58.4888889 L15.0111111,70 L15.6333333,70 L15.6333333,58.4888889 L21.5444444,58.4888889 L21.5444444,70 L29.9444444,70 L29.9444444,14.2333333 L0.7,14.2333333 L0.7,14.2333333 Z M13.5333333,52.2666667 L6.06666667,52.2666667 L6.06666667,41.5333333 C6.06666667,41.5333333 7.15555556,38.8888889 9.8,38.8888889 C12.4444444,38.8888889 13.5333333,41.5333333 13.5333333,41.5333333 L13.5333333,52.2666667 L13.5333333,52.2666667 Z M13.5333333,35.3888889 L6.06666667,35.3888889 L6.06666667,24.6555556 C6.06666667,24.6555556 7.15555556,22.0111111 9.8,22.0111111 C12.4444444,22.0111111 13.5333333,24.6555556 13.5333333,24.6555556 L13.5333333,35.3888889 L13.5333333,35.3888889 Z M24.6555556,52.5 L17.1888889,52.5 L17.1888889,41.7666667 C17.1888889,41.7666667 18.2777778,39.1222222 20.9222222,39.1222222 C23.5666667,39.1222222 24.6555556,41.7666667 24.6555556,41.7666667 L24.6555556,52.5 L24.6555556,52.5 Z M24.6555556,35.4666667 L17.1888889,35.4666667 L17.1888889,24.7333333 C17.1888889,24.7333333 18.2777778,22.0888889 20.9222222,22.0888889 C23.5666667,22.0888889 24.6555556,24.7333333 24.6555556,24.7333333 L24.6555556,35.4666667 L24.6555556,35.4666667 Z" id="Shape"></path>
                <path d="M42.7777778,5.52222222 L31.8111111,14.3888889 L31.8111111,70 L53.9,70 L53.9,14.3888889 L42.7777778,5.52222222 L42.7777778,5.52222222 Z M39.2777778,60.9777778 L34.3,60.9777778 L34.3,55.6111111 L39.2777778,55.6111111 L39.2777778,60.9777778 L39.2777778,60.9777778 Z M39.2777778,55.1444444 L34.3,55.1444444 L34.3,51.2555556 L39.2777778,51.2555556 L39.2777778,55.1444444 L39.2777778,55.1444444 Z M39.2777778,46.5111111 L34.3,46.5111111 L34.3,41.1444444 L39.2777778,41.1444444 L39.2777778,46.5111111 L39.2777778,46.5111111 Z M39.2777778,40.6 L34.3,40.6 L34.3,36.7111111 L39.2777778,36.7111111 L39.2777778,40.6 L39.2777778,40.6 Z M39.2777778,31.9666667 L34.3,31.9666667 L34.3,26.6 L39.2777778,26.6 L39.2777778,31.9666667 L39.2777778,31.9666667 Z M39.2777778,26.1333333 L34.3,26.1333333 L34.3,22.2444444 L39.2777778,22.2444444 L39.2777778,26.1333333 L39.2777778,26.1333333 Z M45.2666667,60.9777778 L40.2888889,60.9777778 L40.2888889,55.6111111 L45.2666667,55.6111111 L45.2666667,60.9777778 L45.2666667,60.9777778 Z M45.2666667,55.1444444 L40.2888889,55.1444444 L40.2888889,51.2555556 L45.2666667,51.2555556 L45.2666667,55.1444444 L45.2666667,55.1444444 Z M45.2666667,46.5111111 L40.2888889,46.5111111 L40.2888889,41.1444444 L45.2666667,41.1444444 L45.2666667,46.5111111 L45.2666667,46.5111111 Z M45.2666667,40.6 L40.2888889,40.6 L40.2888889,36.7111111 L45.2666667,36.7111111 L45.2666667,40.6 L45.2666667,40.6 Z M45.2666667,31.9666667 L40.2888889,31.9666667 L40.2888889,26.6 L45.2666667,26.6 L45.2666667,31.9666667 L45.2666667,31.9666667 Z M45.2666667,26.1333333 L40.2888889,26.1333333 L40.2888889,22.2444444 L45.2666667,22.2444444 L45.2666667,26.1333333 L45.2666667,26.1333333 Z M51.4111111,60.9777778 L46.4333333,60.9777778 L46.4333333,55.6111111 L51.4111111,55.6111111 L51.4111111,60.9777778 L51.4111111,60.9777778 Z M51.4111111,55.1444444 L46.4333333,55.1444444 L46.4333333,51.2555556 L51.4111111,51.2555556 L51.4111111,55.1444444 L51.4111111,55.1444444 Z M51.4111111,46.5111111 L46.4333333,46.5111111 L46.4333333,41.1444444 L51.4111111,41.1444444 L51.4111111,46.5111111 L51.4111111,46.5111111 Z M51.4111111,40.6 L46.4333333,40.6 L46.4333333,36.7111111 L51.4111111,36.7111111 L51.4111111,40.6 L51.4111111,40.6 Z M51.4111111,31.9666667 L46.4333333,31.9666667 L46.4333333,26.6 L51.4111111,26.6 L51.4111111,31.9666667 L51.4111111,31.9666667 Z M51.4111111,26.1333333 L46.4333333,26.1333333 L46.4333333,22.2444444 L51.4111111,22.2444444 L51.4111111,26.1333333 L51.4111111,26.1333333 Z" id="Shape"></path>
                <polygon id="Shape" points="54.0555556 12.6 58.4111111 12.6 42.7777778 0 27.3 12.6 31.6555556 12.6 42.7777778 3.5"></polygon>
            </g>
        </g>
    </g>
</svg>