<?xml version="1.0" encoding="UTF-8" standalone="no"?>
<svg width="48px" height="60px" viewBox="0 0 48 60" version="1.1" xmlns="http://www.w3.org/2000/svg" xmlns:xlink="http://www.w3.org/1999/xlink">
    <!-- Generator: Sketch 39.1 (31720) - http://www.bohemiancoding.com/sketch -->
    <title>Group</title>
    <desc>Created with Sketch.</desc>
    <defs></defs>
    <g id="Page-1" stroke="none" stroke-width="1" fill="none" fill-rule="evenodd">
        <g id="Group">
            <path d="M23.6355268,50.5621845 C46.1199503,37.4192789 46.1181579,29.7194506 46.5137931,27.2611652 C46.8011937,25.4748792 49.1882248,14.8316975 43.23429,8.18041983 C38.1409282,2.49093034 35.1846006,2.8139602 35.1846006,2.8139602 C35.1846006,2.8139602 33.3808775,3.70658236 32.0084008,1.9963203 C30.7602538,0.441239106 29.071007,0.113288646 27.8368715,1.11577357 C26.8224626,1.93982266 25.2319017,0.687202137 24.0044764,0.578085466 C18.7838051,0.113439354 19.0059154,0.986681888 17.5200043,0.938532522 C13.2963048,0.80168795 12.0964521,3.10464402 11.0355323,3.55945193 C8.2879039,4.73694067 1.14544412,8.27880552 0.552155031,17.4225057 C0.469869019,18.6898867 -0.745933118,23.5830517 0.905892075,27.4255871 C3.5573684,33.5932889 5.69158211,36.3857861 8.54981978,40.6558466 C11.4080574,44.9259025 15.505794,50.1172178 15.505794,50.1172178 C15.505794,50.1172178 15.9729746,50.617048 15.9892242,50.8349821 C16.0263412,51.3313822 17.4444282,51.7432581 19.1992611,51.9765503 C20.1412193,52.1017626 20.8077005,52.1707832 21.6329442,51.7973663 C22.2751328,51.5065357 23.6355268,50.5621845 23.6355268,50.5621845 Z" id="svg_1" fill="#2962FF"></path>
            <path d="M46.8117752,27.2611698 C46.4262847,14.7272069 37.4481937,10.7864361 29.0726448,6.24253506 C20.712745,5.3034076 14.5797764,8.13123384 9.99189943,12.5034058 C6.59999911,15.7359521 3.47641998,20.4928728 3.43289322,25.9195549 C3.38340239,32.0914329 6.29053491,36.943009 9.09748949,40.9754555 C5.34990961,36.1920037 0.0092395528,28.9852955 0.302458435,21.0003002 C0.455252571,16.8383107 3.09644765,12.4464634 5.37078142,10.2673798 C6.82971116,8.86956507 9.23805988,7.60442236 11.4825827,6.5406717 C16.5456877,4.14126902 22.7041501,4.53674832 28.6254398,6.09346673 C24.5999991,3.41456094 17.2290191,1.26618902 11.3335143,3.55930524 C15.5285948,-1.51333893 25.4142112,1.65525749 28.6254398,5.64626176 C27.8590809,3.28218932 26.6276249,1.38320765 24.3024584,0.577939379 C27.7104584,-1.13515394 29.5252178,2.20144398 29.3707814,5.49719344 C29.9487214,3.12149322 33.3708784,0.0635045963 35.4825827,2.81396363 C33.2159963,3.52889724 31.3666538,4.66092343 29.6689181,5.94439841 C33.7208943,3.57972775 41.9460374,3.76039945 43.5322721,8.18042325 C40.5750528,6.40084964 34.9049429,5.10097133 29.8179864,6.24253506 C38.7279485,7.81699871 47.733908,9.56914629 47.8552535,19.6586853 C47.9083245,24.0799023 47.1269077,25.0917771 46.8117752,27.2611698 L46.8117752,27.2611698 Z" id="svg_2" fill="#FFFFFF"></path>
            <path d="M21.7931946,52.453862 C21.8535672,52.3088153 21.4246955,52.3842501 21.931081,51.7973663 C30.5907596,46.3785818 42.2537182,40.5813171 41.1473335,26.2176915 C40.7661648,21.2693675 38.2750843,17.5353579 35.9299422,14.1431574 C33.9620929,11.2969978 31.4371755,7.94459821 29.0727994,6.24253506 C30.9646223,12.1019657 33.6930258,19.5680515 32.9485758,27.5593064 C32.5255179,32.1006723 30.3573217,36.7074786 28.4765261,40.5282505 C27.5998535,42.3087226 22.0503384,53.9836046 19.0817917,51.705991 C20.1021645,35.6264376 19.8199774,17.1066364 27.4083002,7.8575447 C27.6715535,7.53674847 28.4517785,6.96313476 29.0727995,6.24253506 C24.0459198,7.64750325 19.497398,9.52725719 16.401992,12.8015425 C13.2448717,16.1408221 10.5714817,22.0652461 10.2901908,27.7083748 C10.0333473,32.8628597 11.4770737,36.5719759 12.675284,40.6773189 C13.6446739,43.9984108 16.6563017,50.8349821 16.7479772,51.4090462 C16.830559,51.9267546 21.5448447,53.0499897 21.7931948,52.4538619 L21.7931946,52.453862 Z" id="svg_3" fill="#FFFFFF"></path>
            <path d="M20.7674537,58.4735419 C20.6413407,59.2840281 19.747827,59.8178407 18.7715767,59.6660884 L16.7096636,59.3454423 C15.7334135,59.19369 15.0439725,58.4140655 15.1700855,57.6034338 L15.5882211,54.9131982 C15.7143341,54.102712 16.6078478,53.5687537 17.584098,53.720506 L19.6460112,54.0411521 C20.6222613,54.1929044 21.3117023,54.9728291 21.1855893,55.7833154 L20.7674537,58.4735419 L20.7674537,58.4735419 Z" id="svg_4" fill="#2962FF"></path>
            <ellipse id="svg_5" fill="#FFFFFF" transform="translate(18.381425, 55.334424) rotate(9.311609) translate(-18.381425, -55.334424) " cx="18.3814246" cy="55.3344235" rx="2.29589691" ry="1.04330492"></ellipse>
            <path d="M21.931081,51.7973663 C21.931081,51.7973663 22.4197248,53.4718465 18.7621872,53.0499897 C15.5323251,52.6774645 16.2872063,50.8349821 16.2872063,50.8349821 C18.1778373,51.8326954 19.7062381,51.8098857 21.9310809,51.7973663 L21.931081,51.7973663 Z" id="svg_6" fill="#2962FF"></path>
        </g>
    </g>
</svg>